%TF.GenerationSoftware,KiCad,Pcbnew,10.0.2*%
%TF.CreationDate,2026-06-06T16:39:37+02:00*%
%TF.ProjectId,C.A.S.E,432e412e-532e-4452-9e6b-696361645f70,rev?*%
%TF.SameCoordinates,Original*%
%TF.FileFunction,Soldermask,Top*%
%TF.FilePolarity,Negative*%
%FSLAX46Y46*%
G04 Gerber Fmt 4.6, Leading zero omitted, Abs format (unit mm)*
G04 Created by KiCad (PCBNEW 10.0.2) date 2026-06-06 16:39:37*
%MOMM*%
%LPD*%
G01*
G04 APERTURE LIST*
G04 Aperture macros list*
%AMRoundRect*
0 Rectangle with rounded corners*
0 $1 Rounding radius*
0 $2 $3 $4 $5 $6 $7 $8 $9 X,Y pos of 4 corners*
0 Add a 4 corners polygon primitive as box body*
4,1,4,$2,$3,$4,$5,$6,$7,$8,$9,$2,$3,0*
0 Add four circle primitives for the rounded corners*
1,1,$1+$1,$2,$3*
1,1,$1+$1,$4,$5*
1,1,$1+$1,$6,$7*
1,1,$1+$1,$8,$9*
0 Add four rect primitives between the rounded corners*
20,1,$1+$1,$2,$3,$4,$5,0*
20,1,$1+$1,$4,$5,$6,$7,0*
20,1,$1+$1,$6,$7,$8,$9,0*
20,1,$1+$1,$8,$9,$2,$3,0*%
G04 Aperture macros list end*
%ADD10C,4.400000*%
%ADD11R,2.000000X2.000000*%
%ADD12C,2.000000*%
%ADD13R,3.200000X2.000000*%
%ADD14C,1.700000*%
%ADD15C,4.000000*%
%ADD16C,2.200000*%
%ADD17RoundRect,0.243750X0.150260X-0.494975X0.494975X-0.150260X-0.150260X0.494975X-0.494975X0.150260X0*%
%ADD18C,0.650000*%
%ADD19O,1.254000X2.304000*%
%ADD20O,1.004000X1.804000*%
G04 APERTURE END LIST*
D10*
%TO.C,H1*%
X208400000Y-153950000D03*
%TD*%
D11*
%TO.C,SW13*%
X187800000Y-86150000D03*
D12*
X187800000Y-91150000D03*
X187800000Y-88650000D03*
D13*
X195300000Y-83050000D03*
X195300000Y-94250000D03*
D12*
X202300000Y-91150000D03*
X202300000Y-86150000D03*
%TD*%
D14*
%TO.C,SW3*%
X150276000Y-124507100D03*
D15*
X155356000Y-124507100D03*
D14*
X160436000Y-124507100D03*
D16*
X157896000Y-119427100D03*
X151546000Y-121967100D03*
%TD*%
D14*
%TO.C,SW2*%
X169330000Y-105480000D03*
D15*
X174410000Y-105480000D03*
D14*
X179490000Y-105480000D03*
D16*
X176950000Y-100400000D03*
X170600000Y-102940000D03*
%TD*%
D10*
%TO.C,H4*%
X208150000Y-73550000D03*
%TD*%
D17*
%TO.C,D1*%
X134587087Y-133062913D03*
X135912913Y-131737087D03*
%TD*%
D14*
%TO.C,SW1*%
X150280000Y-105480000D03*
D15*
X155360000Y-105480000D03*
D14*
X160440000Y-105480000D03*
D16*
X157900000Y-100400000D03*
X151550000Y-102940000D03*
%TD*%
D17*
%TO.C,D2*%
X139537087Y-133112913D03*
X140862913Y-131787087D03*
%TD*%
D14*
%TO.C,SW6*%
X188420000Y-115370000D03*
D15*
X193500000Y-115370000D03*
D14*
X198580000Y-115370000D03*
D16*
X196040000Y-110290000D03*
X189690000Y-112830000D03*
%TD*%
D14*
%TO.C,SW5*%
X159860000Y-86380000D03*
D15*
X164940000Y-86380000D03*
D14*
X170020000Y-86380000D03*
D16*
X167480000Y-81300000D03*
X161130000Y-83840000D03*
%TD*%
D14*
%TO.C,SW7*%
X160160000Y-143580000D03*
D15*
X165240000Y-143580000D03*
D14*
X170320000Y-143580000D03*
D16*
X167780000Y-138500000D03*
X161430000Y-141040000D03*
%TD*%
D10*
%TO.C,H2*%
X122550000Y-154050000D03*
%TD*%
D17*
%TO.C,D3*%
X129837087Y-132912913D03*
X131162913Y-131587087D03*
%TD*%
D14*
%TO.C,SW8*%
X131260000Y-114880000D03*
D15*
X136340000Y-114880000D03*
D14*
X141420000Y-114880000D03*
D16*
X138880000Y-109800000D03*
X132530000Y-112340000D03*
%TD*%
D10*
%TO.C,H3*%
X122550000Y-73650000D03*
%TD*%
D14*
%TO.C,SW4*%
X169336200Y-124506800D03*
D15*
X174416200Y-124506800D03*
D14*
X179496200Y-124506800D03*
D16*
X176956200Y-119426800D03*
X170606200Y-121966800D03*
%TD*%
D18*
%TO.C,J1*%
X161560000Y-73532500D03*
X167340000Y-73532500D03*
D19*
X160130000Y-74032500D03*
X168770000Y-74032500D03*
D20*
X160130000Y-69852500D03*
X168770000Y-69852500D03*
%TD*%
M02*
