%TF.GenerationSoftware,KiCad,Pcbnew,10.0.2*%
%TF.CreationDate,2026-06-06T16:39:37+02:00*%
%TF.ProjectId,C.A.S.E,432e412e-532e-4452-9e6b-696361645f70,rev?*%
%TF.SameCoordinates,Original*%
%TF.FileFunction,Copper,L2,Bot*%
%TF.FilePolarity,Positive*%
%FSLAX46Y46*%
G04 Gerber Fmt 4.6, Leading zero omitted, Abs format (unit mm)*
G04 Created by KiCad (PCBNEW 10.0.2) date 2026-06-06 16:39:37*
%MOMM*%
%LPD*%
G01*
G04 APERTURE LIST*
G04 Aperture macros list*
%AMRoundRect*
0 Rectangle with rounded corners*
0 $1 Rounding radius*
0 $2 $3 $4 $5 $6 $7 $8 $9 X,Y pos of 4 corners*
0 Add a 4 corners polygon primitive as box body*
4,1,4,$2,$3,$4,$5,$6,$7,$8,$9,$2,$3,0*
0 Add four circle primitives for the rounded corners*
1,1,$1+$1,$2,$3*
1,1,$1+$1,$4,$5*
1,1,$1+$1,$6,$7*
1,1,$1+$1,$8,$9*
0 Add four rect primitives between the rounded corners*
20,1,$1+$1,$2,$3,$4,$5,0*
20,1,$1+$1,$4,$5,$6,$7,0*
20,1,$1+$1,$6,$7,$8,$9,0*
20,1,$1+$1,$8,$9,$2,$3,0*%
G04 Aperture macros list end*
%TA.AperFunction,ComponentPad*%
%ADD10C,4.400000*%
%TD*%
%TA.AperFunction,ComponentPad*%
%ADD11R,2.000000X2.000000*%
%TD*%
%TA.AperFunction,ComponentPad*%
%ADD12C,2.000000*%
%TD*%
%TA.AperFunction,ComponentPad*%
%ADD13R,3.200000X2.000000*%
%TD*%
%TA.AperFunction,ComponentPad*%
%ADD14C,2.200000*%
%TD*%
%TA.AperFunction,SMDPad,CuDef*%
%ADD15RoundRect,0.250000X-0.450000X0.262500X-0.450000X-0.262500X0.450000X-0.262500X0.450000X0.262500X0*%
%TD*%
%TA.AperFunction,SMDPad,CuDef*%
%ADD16RoundRect,0.250000X0.450000X-0.262500X0.450000X0.262500X-0.450000X0.262500X-0.450000X-0.262500X0*%
%TD*%
%TA.AperFunction,SMDPad,CuDef*%
%ADD17RoundRect,0.250000X-0.475000X0.250000X-0.475000X-0.250000X0.475000X-0.250000X0.475000X0.250000X0*%
%TD*%
%TA.AperFunction,SMDPad,CuDef*%
%ADD18R,1.500000X0.900000*%
%TD*%
%TA.AperFunction,SMDPad,CuDef*%
%ADD19R,0.900000X1.500000*%
%TD*%
%TA.AperFunction,SMDPad,CuDef*%
%ADD20R,0.900000X0.900000*%
%TD*%
%TA.AperFunction,SMDPad,CuDef*%
%ADD21R,1.500000X1.400000*%
%TD*%
%TA.AperFunction,SMDPad,CuDef*%
%ADD22R,2.150000X0.950000*%
%TD*%
%TA.AperFunction,SMDPad,CuDef*%
%ADD23R,2.150000X3.250000*%
%TD*%
%TA.AperFunction,SMDPad,CuDef*%
%ADD24RoundRect,0.250000X0.475000X-0.250000X0.475000X0.250000X-0.475000X0.250000X-0.475000X-0.250000X0*%
%TD*%
%TA.AperFunction,SMDPad,CuDef*%
%ADD25R,0.600000X1.300000*%
%TD*%
%TA.AperFunction,SMDPad,CuDef*%
%ADD26R,0.300000X1.300000*%
%TD*%
%TA.AperFunction,ComponentPad*%
%ADD27O,1.050000X2.100000*%
%TD*%
%TA.AperFunction,ComponentPad*%
%ADD28O,0.800000X1.600000*%
%TD*%
%TA.AperFunction,ViaPad*%
%ADD29C,0.600000*%
%TD*%
%TA.AperFunction,Conductor*%
%ADD30C,0.200000*%
%TD*%
%TA.AperFunction,Conductor*%
%ADD31C,0.500000*%
%TD*%
G04 APERTURE END LIST*
D10*
%TO.P,H1,1*%
%TO.N,N/C*%
X208400000Y-153950000D03*
%TD*%
D11*
%TO.P,SW13,A,A_A*%
%TO.N,/IO38*%
X187800000Y-86150000D03*
D12*
%TO.P,SW13,B,B_B*%
%TO.N,/IO39*%
X187800000Y-91150000D03*
%TO.P,SW13,C,C_C*%
%TO.N,GND*%
X187800000Y-88650000D03*
D13*
%TO.P,SW13,MP*%
%TO.N,N/C*%
X195300000Y-83050000D03*
X195300000Y-94250000D03*
D12*
%TO.P,SW13,S1,S1_S1*%
%TO.N,GND*%
X202300000Y-91150000D03*
%TO.P,SW13,S2,S2_S2*%
%TO.N,/IO40*%
X202300000Y-86150000D03*
%TD*%
D14*
%TO.P,SW3,1,1_1*%
%TO.N,/btn_3*%
X157896000Y-119427100D03*
%TO.P,SW3,2,2_2*%
%TO.N,GND*%
X151546000Y-121967100D03*
%TD*%
%TO.P,SW2,1,1_1*%
%TO.N,/btn_2*%
X176950000Y-100400000D03*
%TO.P,SW2,2,2_2*%
%TO.N,GND*%
X170600000Y-102940000D03*
%TD*%
D10*
%TO.P,H4,1*%
%TO.N,N/C*%
X208150000Y-73550000D03*
%TD*%
D14*
%TO.P,SW1,1,1_1*%
%TO.N,/btn_1*%
X157900000Y-100400000D03*
%TO.P,SW1,2,2_2*%
%TO.N,GND*%
X151550000Y-102940000D03*
%TD*%
%TO.P,SW6,1,1_1*%
%TO.N,/btn_6*%
X196040000Y-110290000D03*
%TO.P,SW6,2,2_2*%
%TO.N,GND*%
X189690000Y-112830000D03*
%TD*%
%TO.P,SW5,1,1_1*%
%TO.N,/btn_5*%
X167480000Y-81300000D03*
%TO.P,SW5,2,2_2*%
%TO.N,GND*%
X161130000Y-83840000D03*
%TD*%
%TO.P,SW7,1,1_1*%
%TO.N,/btn_7*%
X167780000Y-138500000D03*
%TO.P,SW7,2,2_2*%
%TO.N,GND*%
X161430000Y-141040000D03*
%TD*%
D10*
%TO.P,H2,1*%
%TO.N,N/C*%
X122550000Y-154050000D03*
%TD*%
D14*
%TO.P,SW8,1,1_1*%
%TO.N,/btn_8*%
X138880000Y-109800000D03*
%TO.P,SW8,2,2_2*%
%TO.N,GND*%
X132530000Y-112340000D03*
%TD*%
D10*
%TO.P,H3,1*%
%TO.N,N/C*%
X122550000Y-73650000D03*
%TD*%
D14*
%TO.P,SW4,1,1_1*%
%TO.N,/btn_4*%
X176956200Y-119426800D03*
%TO.P,SW4,2,2_2*%
%TO.N,GND*%
X170606200Y-121966800D03*
%TD*%
D15*
%TO.P,R2,1*%
%TO.N,GND*%
X156600000Y-72987500D03*
%TO.P,R2,2*%
%TO.N,Net-(J1-CC1)*%
X156600000Y-74812500D03*
%TD*%
D16*
%TO.P,R1,1*%
%TO.N,Net-(J1-CC2)*%
X174300000Y-74862500D03*
%TO.P,R1,2*%
%TO.N,GND*%
X174300000Y-73037500D03*
%TD*%
D17*
%TO.P,C6,1*%
%TO.N,GND*%
X206450000Y-134200000D03*
%TO.P,C6,2*%
%TO.N,+3.3V*%
X206450000Y-136100000D03*
%TD*%
D15*
%TO.P,R7,1*%
%TO.N,/boot*%
X210100000Y-100087500D03*
%TO.P,R7,2*%
%TO.N,+3.3V*%
X210100000Y-101912500D03*
%TD*%
D18*
%TO.P,X1,1,GND_1*%
%TO.N,GND*%
X203600000Y-133790000D03*
%TO.P,X1,2,3V3_2*%
%TO.N,+3.3V*%
X203600000Y-135060000D03*
%TO.P,X1,3,EN_3*%
%TO.N,/rst*%
X203600000Y-136330000D03*
%TO.P,X1,4,IO4_4*%
%TO.N,/btn_4*%
X203600000Y-137600000D03*
%TO.P,X1,5,IO5_5*%
%TO.N,/btn_5*%
X203600000Y-138870000D03*
%TO.P,X1,6,IO6_6*%
%TO.N,/btn_6*%
X203600000Y-140140000D03*
%TO.P,X1,7,IO7_7*%
%TO.N,/btn_7*%
X203600000Y-141410000D03*
%TO.P,X1,8,IO15_8*%
%TO.N,/cs*%
X203600000Y-142680000D03*
%TO.P,X1,9,IO16_9*%
%TO.N,/scl*%
X203600000Y-143950000D03*
%TO.P,X1,10,IO17_10*%
%TO.N,/sda*%
X203600000Y-145220000D03*
%TO.P,X1,11,IO18_11*%
%TO.N,unconnected-(X1-IO18-Pad11)*%
X203600000Y-146490000D03*
%TO.P,X1,12,IO8_12*%
%TO.N,/btn_8*%
X203600000Y-147760000D03*
%TO.P,X1,13,IO19_13*%
%TO.N,/USB_D-*%
X203600000Y-149030000D03*
%TO.P,X1,14,IO20_14*%
%TO.N,/USB_D+*%
X203600000Y-150300000D03*
D19*
%TO.P,X1,15,IO3_15*%
%TO.N,/btn_3*%
X201835000Y-151550000D03*
%TO.P,X1,16,IO46_16*%
%TO.N,unconnected-(X1-IO46-Pad16)*%
X200565000Y-151550000D03*
%TO.P,X1,17,IO9_17*%
%TO.N,/IO9*%
X199295000Y-151550000D03*
%TO.P,X1,18,IO10_18*%
%TO.N,unconnected-(X1-IO10-Pad18)*%
X198025000Y-151550000D03*
%TO.P,X1,19,IO11_19*%
%TO.N,unconnected-(X1-IO11-Pad19)*%
X196755000Y-151550000D03*
%TO.P,X1,20,IO12_20*%
%TO.N,/busy*%
X195485000Y-151550000D03*
%TO.P,X1,21,IO13_21*%
%TO.N,/res*%
X194215000Y-151550000D03*
%TO.P,X1,22,IO14_22*%
%TO.N,/dc*%
X192945000Y-151550000D03*
%TO.P,X1,23,IO21_23*%
%TO.N,unconnected-(X1-IO21-Pad23)*%
X191675000Y-151550000D03*
%TO.P,X1,24,IO47_24*%
%TO.N,unconnected-(X1-IO47-Pad24)*%
X190405000Y-151550000D03*
%TO.P,X1,25,IO48_25*%
%TO.N,unconnected-(X1-IO48-Pad25)*%
X189135000Y-151550000D03*
%TO.P,X1,26,IO45_26*%
%TO.N,unconnected-(X1-IO45-Pad26)*%
X187865000Y-151550000D03*
D18*
%TO.P,X1,27,IO0_27*%
%TO.N,/boot*%
X186100000Y-150300000D03*
%TO.P,X1,28,IO35_28*%
%TO.N,unconnected-(X1-IO35-Pad28)*%
X186100000Y-149030000D03*
%TO.P,X1,29,IO36_29*%
%TO.N,unconnected-(X1-IO36-Pad29)*%
X186100000Y-147760000D03*
%TO.P,X1,30,IO37_30*%
%TO.N,unconnected-(X1-IO37-Pad30)*%
X186100000Y-146490000D03*
%TO.P,X1,31,IO38_31*%
%TO.N,/IO38*%
X186100000Y-145220000D03*
%TO.P,X1,32,IO39_32*%
%TO.N,/IO39*%
X186100000Y-143950000D03*
%TO.P,X1,33,IO40_33*%
%TO.N,/IO40*%
X186100000Y-142680000D03*
%TO.P,X1,34,IO41_34*%
%TO.N,unconnected-(X1-IO41-Pad34)*%
X186100000Y-141410000D03*
%TO.P,X1,35,IO42_35*%
%TO.N,unconnected-(X1-IO42-Pad35)*%
X186100000Y-140140000D03*
%TO.P,X1,36,RXD0_36*%
%TO.N,unconnected-(X1-RXD0-Pad36)*%
X186100000Y-138870000D03*
%TO.P,X1,37,TXD0_37*%
%TO.N,unconnected-(X1-TXD0-Pad37)*%
X186100000Y-137600000D03*
%TO.P,X1,38,IO2_38*%
%TO.N,/btn_2*%
X186100000Y-136330000D03*
%TO.P,X1,39,IO1_39*%
%TO.N,/btn_1*%
X186100000Y-135060000D03*
%TO.P,X1,40,GND_40*%
%TO.N,GND*%
X186100000Y-133790000D03*
D20*
%TO.P,X1,41,GND_41*%
X196350000Y-141510000D03*
%TO.P,X1,42,GND_42*%
X196350000Y-140110000D03*
%TO.P,X1,43,GND_43*%
X197750000Y-140110000D03*
%TO.P,X1,44,GND_44*%
X197750000Y-141510000D03*
%TO.P,X1,45,GND_45*%
X197750000Y-142910000D03*
%TO.P,X1,46,GND_46*%
X196350000Y-142910000D03*
%TO.P,X1,47,GND_47*%
X194950000Y-142910000D03*
%TO.P,X1,48,GND_48*%
X194950000Y-141510000D03*
%TO.P,X1,49,GND_49*%
X194950000Y-140110000D03*
%TD*%
D15*
%TO.P,R10,1*%
%TO.N,Net-(D1-A)*%
X137350000Y-136237500D03*
%TO.P,R10,2*%
%TO.N,+3.3V*%
X137350000Y-138062500D03*
%TD*%
D21*
%TO.P,rst,1,1_1*%
%TO.N,/rst*%
X202650000Y-101600000D03*
%TO.P,rst,2,2_2*%
%TO.N,GND*%
X196150000Y-101600000D03*
%TD*%
%TO.P,boot,1,1_1*%
%TO.N,/boot*%
X186100000Y-101700000D03*
%TO.P,boot,2,2_2*%
%TO.N,GND*%
X192600000Y-101700000D03*
%TD*%
D22*
%TO.P,U1,1,GND_1*%
%TO.N,GND*%
X182475000Y-146500000D03*
%TO.P,U1,2,VO_2*%
%TO.N,+3.3V*%
X182475000Y-148800000D03*
%TO.P,U1,3,VI_3*%
%TO.N,VBUS*%
X182475000Y-151100000D03*
D23*
%TO.P,U1,4*%
%TO.N,N/C*%
X176675000Y-148800000D03*
%TD*%
D15*
%TO.P,R12,1*%
%TO.N,Net-(D3-A)*%
X132050000Y-136387500D03*
%TO.P,R12,2*%
%TO.N,+3.3V*%
X132050000Y-138212500D03*
%TD*%
D24*
%TO.P,C7,1*%
%TO.N,GND*%
X206250000Y-108700000D03*
%TO.P,C7,2*%
%TO.N,/rst*%
X206250000Y-106800000D03*
%TD*%
D15*
%TO.P,R6,1*%
%TO.N,/rst*%
X206300000Y-102737500D03*
%TO.P,R6,2*%
%TO.N,+3.3V*%
X206300000Y-104562500D03*
%TD*%
D25*
%TO.P,J1,A1_B12,GND_A1_B12*%
%TO.N,GND*%
X161250000Y-74672500D03*
%TO.P,J1,A4_B9,VBUS_A4_B9*%
%TO.N,VBUS*%
X162050000Y-74672500D03*
D26*
%TO.P,J1,A5,CC1_A5*%
%TO.N,Net-(J1-CC1)*%
X163200000Y-74672500D03*
%TO.P,J1,A6,DP1_A6*%
%TO.N,/USB_D+*%
X164200000Y-74672500D03*
%TO.P,J1,A7,DN1_A7*%
%TO.N,/USB_D-*%
X164700000Y-74672500D03*
%TO.P,J1,A8,SBU1_A8*%
%TO.N,unconnected-(J1-SBU1-PadA8)*%
X165700000Y-74672500D03*
D25*
%TO.P,J1,B1_A12,GND_B1_A12*%
%TO.N,GND*%
X167650000Y-74672500D03*
%TO.P,J1,B4_A9,VBUS_B4_A9*%
%TO.N,VBUS*%
X166850000Y-74672500D03*
D26*
%TO.P,J1,B5,CC2_B5*%
%TO.N,Net-(J1-CC2)*%
X166200000Y-74672500D03*
%TO.P,J1,B6,DP2_B6*%
%TO.N,/USB_D+*%
X165200000Y-74672500D03*
%TO.P,J1,B7,DN2_B7*%
%TO.N,/USB_D-*%
X163700000Y-74672500D03*
%TO.P,J1,B8,SBU2_B8*%
%TO.N,unconnected-(J1-SBU2-PadB8)*%
X162700000Y-74672500D03*
D27*
%TO.P,J1,S1,SHIELD_S1*%
%TO.N,GND*%
X160130000Y-74032500D03*
%TO.P,J1,S2,SHIELD_S2*%
X168770000Y-74032500D03*
D28*
%TO.P,J1,S3,SHIELD_S3*%
X160130000Y-69852500D03*
%TO.P,J1,S4,SHIELD_S4*%
X168770000Y-69852500D03*
%TD*%
D24*
%TO.P,C1,1*%
%TO.N,VBUS*%
X174300000Y-70500000D03*
%TO.P,C1,2*%
%TO.N,GND*%
X174300000Y-68600000D03*
%TD*%
D17*
%TO.P,C2,1*%
%TO.N,+3.3V*%
X178050000Y-141800000D03*
%TO.P,C2,2*%
%TO.N,GND*%
X178050000Y-143700000D03*
%TD*%
D16*
%TO.P,R11,1*%
%TO.N,Net-(D2-A)*%
X144200000Y-133462500D03*
%TO.P,R11,2*%
%TO.N,+3.3V*%
X144200000Y-131637500D03*
%TD*%
D29*
%TO.N,/btn_3*%
X196050300Y-131286400D03*
%TO.N,/btn_2*%
X184121300Y-100613100D03*
%TO.N,Net-(D1-A)*%
X137350000Y-132604200D03*
%TO.N,/btn_1*%
X185048300Y-102824700D03*
%TO.N,Net-(D2-A)*%
X142990800Y-133914800D03*
%TO.N,/btn_5*%
X201046600Y-108558900D03*
%TO.N,/btn_7*%
X202085300Y-141699000D03*
%TO.N,Net-(D3-A)*%
X132050000Y-132446500D03*
%TO.N,/btn_8*%
X199979400Y-130057500D03*
%TO.N,/btn_4*%
X201850000Y-127110600D03*
%TO.N,+3.3V*%
X184001700Y-145214100D03*
X145408000Y-131637500D03*
X204988800Y-140364600D03*
%TO.N,/rst*%
X203140600Y-127110600D03*
X207301100Y-127110600D03*
%TO.N,/USB_D-*%
X163755700Y-73262600D03*
X194370300Y-103877200D03*
%TO.N,/USB_D+*%
X194154900Y-102418400D03*
X165099200Y-73506200D03*
%TD*%
%TO.N,/IO38*%
D30*
X176967900Y-137139600D02*
X176967900Y-123014800D01*
X175127300Y-111256700D02*
X177383400Y-109000600D01*
X186100000Y-145220000D02*
X185048300Y-145220000D01*
X179384300Y-94565700D02*
X187800000Y-86150000D01*
X185048300Y-145220000D02*
X176967900Y-137139600D01*
X177383400Y-109000600D02*
X177383400Y-102854900D01*
X177383400Y-102854900D02*
X179384300Y-100854000D01*
X179384300Y-100854000D02*
X179384300Y-94565700D01*
X176967900Y-123014800D02*
X175127300Y-121174200D01*
X175127300Y-121174200D02*
X175127300Y-111256700D01*
%TO.N,/IO39*%
X177409500Y-122853800D02*
X175551100Y-120995400D01*
X175551100Y-120995400D02*
X175551100Y-112229700D01*
X185048300Y-143950000D02*
X177409500Y-136311200D01*
X181499800Y-97450200D02*
X187800000Y-91150000D01*
X181499800Y-106281000D02*
X181499800Y-97450200D01*
X177409500Y-136311200D02*
X177409500Y-122853800D01*
X175551100Y-112229700D02*
X181499800Y-106281000D01*
X186100000Y-143950000D02*
X185048300Y-143950000D01*
%TO.N,GND*%
D31*
X170891800Y-136541800D02*
X178050000Y-143700000D01*
X151835600Y-103225600D02*
X151835600Y-121677500D01*
X170891800Y-122252400D02*
X170891800Y-136541800D01*
X189975600Y-113115600D02*
X189975600Y-131542700D01*
X196150000Y-101600000D02*
X196150000Y-102751700D01*
X174300000Y-68600000D02*
X175495600Y-69795600D01*
X203600000Y-133790000D02*
X203899100Y-133790000D01*
X165928200Y-136541800D02*
X170891800Y-136541800D01*
X160130000Y-74032500D02*
X160130000Y-72987500D01*
X203899100Y-133790000D02*
X203899100Y-108700000D01*
X180850000Y-146500000D02*
X178050000Y-143700000D01*
X168130000Y-74672500D02*
X168770000Y-74032500D01*
X189975600Y-131542700D02*
X187728300Y-133790000D01*
X194950000Y-140110000D02*
X194950000Y-141510000D01*
X203899100Y-108700000D02*
X197950800Y-102751700D01*
X192600000Y-101700000D02*
X193801700Y-101700000D01*
X187728300Y-133790000D02*
X194048300Y-140110000D01*
X161130000Y-83840000D02*
X160158700Y-83840000D01*
X160385100Y-75789300D02*
X160130000Y-75534200D01*
X161130000Y-75789300D02*
X161130000Y-83840000D01*
X173047500Y-69852500D02*
X168770000Y-69852500D01*
X161250000Y-75774200D02*
X161145100Y-75774200D01*
X186100000Y-133790000D02*
X187728300Y-133790000D01*
X168770000Y-69852500D02*
X168770000Y-74032500D01*
X160130000Y-74032500D02*
X160130000Y-75534200D01*
X196150000Y-101600000D02*
X196150000Y-101024100D01*
X203899100Y-133790000D02*
X206040000Y-133790000D01*
X192600000Y-109920000D02*
X189690000Y-112830000D01*
X194950000Y-140110000D02*
X194048300Y-140110000D01*
X151550000Y-92448700D02*
X151550000Y-102940000D01*
X206040000Y-133790000D02*
X206450000Y-134200000D01*
X189690000Y-112830000D02*
X189975600Y-113115600D01*
X161250000Y-74672500D02*
X161250000Y-75774200D01*
X196350000Y-142910000D02*
X196350000Y-141510000D01*
X194950000Y-141510000D02*
X194950000Y-142910000D01*
X160130000Y-72987500D02*
X160130000Y-69852500D01*
X182475000Y-146500000D02*
X180850000Y-146500000D01*
X160158700Y-83840000D02*
X151550000Y-92448700D01*
X161130000Y-75789300D02*
X160385100Y-75789300D01*
X175495600Y-71841900D02*
X174300000Y-73037500D01*
X197750000Y-141510000D02*
X197750000Y-140110000D01*
X202300000Y-94298300D02*
X196150000Y-100448300D01*
X174300000Y-68600000D02*
X173047500Y-69852500D01*
X202300000Y-91150000D02*
X202300000Y-94298300D01*
X196350000Y-140110000D02*
X196350000Y-141510000D01*
X151550000Y-102940000D02*
X151835600Y-103225600D01*
X167650000Y-74672500D02*
X168130000Y-74672500D01*
X194477600Y-101024100D02*
X193801700Y-101700000D01*
X151835600Y-121677500D02*
X151546000Y-121967100D01*
X197750000Y-140110000D02*
X196350000Y-140110000D01*
X197750000Y-142910000D02*
X197750000Y-141510000D01*
X170606200Y-121966800D02*
X170887900Y-121685100D01*
X170887900Y-121685100D02*
X170887900Y-103227900D01*
X156600000Y-72987500D02*
X160130000Y-72987500D01*
X194950000Y-142910000D02*
X196350000Y-142910000D01*
X196150000Y-101024100D02*
X196150000Y-100448300D01*
X196150000Y-101024100D02*
X194477600Y-101024100D01*
X170887900Y-103227900D02*
X170600000Y-102940000D01*
X206250000Y-108700000D02*
X203899100Y-108700000D01*
X161430000Y-141040000D02*
X165928200Y-136541800D01*
X197950800Y-102751700D02*
X196150000Y-102751700D01*
X161145100Y-75774200D02*
X161130000Y-75789300D01*
X192600000Y-101700000D02*
X192600000Y-109920000D01*
X175495600Y-69795600D02*
X175495600Y-71841900D01*
X170606200Y-121966800D02*
X170891800Y-122252400D01*
%TO.N,/IO40*%
D30*
X183475000Y-141106700D02*
X183475000Y-100380500D01*
X186100000Y-142680000D02*
X185048300Y-142680000D01*
X183475000Y-100380500D02*
X197705500Y-86150000D01*
X197705500Y-86150000D02*
X202300000Y-86150000D01*
X185048300Y-142680000D02*
X183475000Y-141106700D01*
%TO.N,/btn_3*%
X196050300Y-131286400D02*
X198540000Y-133776100D01*
X198540000Y-146921500D02*
X201835000Y-150216500D01*
X198540000Y-133776100D02*
X198540000Y-146921500D01*
X201835000Y-150216500D02*
X201835000Y-151550000D01*
%TO.N,/btn_2*%
X184121300Y-135403000D02*
X185048300Y-136330000D01*
X184121300Y-100613100D02*
X184121300Y-135403000D01*
X186100000Y-136330000D02*
X185048300Y-136330000D01*
%TO.N,Net-(D1-A)*%
X137350000Y-136237500D02*
X137350000Y-132604200D01*
%TO.N,/btn_1*%
X186100000Y-135060000D02*
X185048300Y-135060000D01*
X185048300Y-135060000D02*
X185048300Y-102824700D01*
%TO.N,Net-(D2-A)*%
X144200000Y-134012000D02*
X143088000Y-134012000D01*
X144200000Y-133462500D02*
X144200000Y-134012000D01*
X142990800Y-133914800D02*
X143088000Y-134012000D01*
%TO.N,/btn_6*%
X203600000Y-140140000D02*
X202548300Y-140140000D01*
X200646400Y-138238100D02*
X200646400Y-129457300D01*
X200646400Y-129457300D02*
X200446400Y-129257300D01*
X200446400Y-129257300D02*
X200446400Y-114696400D01*
X200446400Y-114696400D02*
X196040000Y-110290000D01*
X202548300Y-140140000D02*
X200646400Y-138238100D01*
%TO.N,/btn_5*%
X201046600Y-129089300D02*
X201046600Y-108558900D01*
X201448300Y-129491000D02*
X201046600Y-129089300D01*
X203600000Y-138870000D02*
X202548300Y-138870000D01*
X201448300Y-137770000D02*
X201448300Y-129491000D01*
X202548300Y-138870000D02*
X201448300Y-137770000D01*
%TO.N,/btn_7*%
X203600000Y-141410000D02*
X202374300Y-141410000D01*
X202374300Y-141410000D02*
X202085300Y-141699000D01*
%TO.N,Net-(D3-A)*%
X132050000Y-136387500D02*
X132050000Y-132446500D01*
%TO.N,/btn_8*%
X199979400Y-145191100D02*
X199979400Y-130057500D01*
X202548300Y-147760000D02*
X199979400Y-145191100D01*
X203600000Y-147760000D02*
X202548300Y-147760000D01*
%TO.N,/btn_4*%
X202548300Y-137600000D02*
X201850000Y-136901700D01*
X201850000Y-136901700D02*
X201850000Y-127110600D01*
X203600000Y-137600000D02*
X202548300Y-137600000D01*
%TO.N,Net-(J1-CC1)*%
X156600000Y-74812500D02*
X155588700Y-73801200D01*
X159360200Y-68716500D02*
X160421600Y-68716500D01*
X163200000Y-73557700D02*
X163200000Y-74672500D01*
X163098300Y-73456000D02*
X163200000Y-73557700D01*
X163098300Y-71393200D02*
X163098300Y-73456000D01*
X160421600Y-68716500D02*
X163098300Y-71393200D01*
X155588700Y-72488000D02*
X159360200Y-68716500D01*
X155588700Y-73801200D02*
X155588700Y-72488000D01*
%TO.N,Net-(J1-CC2)*%
X166200000Y-74672500D02*
X166200000Y-70981100D01*
X169391500Y-67789600D02*
X175023200Y-67789600D01*
X175023200Y-67789600D02*
X176047300Y-68813700D01*
X166200000Y-70981100D02*
X169391500Y-67789600D01*
X176047300Y-68813700D02*
X176047300Y-73115200D01*
X176047300Y-73115200D02*
X174300000Y-74862500D01*
%TO.N,+3.3V*%
D31*
X144200000Y-131637500D02*
X137775000Y-138062500D01*
X206300000Y-104562500D02*
X205140300Y-103402800D01*
X204801700Y-135060000D02*
X204801700Y-135912900D01*
X137200000Y-138212500D02*
X137350000Y-138062500D01*
X184001700Y-148800000D02*
X184001700Y-145214100D01*
X180587600Y-141800000D02*
X184001700Y-145214100D01*
X144200000Y-131637500D02*
X145408000Y-131637500D01*
X210100000Y-101912500D02*
X210100000Y-132450000D01*
X178050000Y-141800000D02*
X180587600Y-141800000D01*
X204988800Y-136100000D02*
X206450000Y-136100000D01*
X182475000Y-148800000D02*
X184001700Y-148800000D01*
X205140300Y-102151800D02*
X205541100Y-101751000D01*
X210100000Y-132450000D02*
X206450000Y-136100000D01*
X132050000Y-138212500D02*
X137200000Y-138212500D01*
X137775000Y-138062500D02*
X137350000Y-138062500D01*
X209938500Y-101751000D02*
X210100000Y-101912500D01*
X204801700Y-135912900D02*
X204988800Y-136100000D01*
X203600000Y-135060000D02*
X204801700Y-135060000D01*
X204988800Y-136100000D02*
X204988800Y-140364600D01*
X205140300Y-103402800D02*
X205140300Y-102151800D01*
X205541100Y-101751000D02*
X209938500Y-101751000D01*
%TO.N,/boot*%
D30*
X186100000Y-150300000D02*
X186100000Y-151450100D01*
X196655100Y-89823200D02*
X202853000Y-89823200D01*
X202853000Y-89823200D02*
X210100000Y-97070200D01*
X210455000Y-100087500D02*
X210100000Y-100087500D01*
X211513000Y-101145500D02*
X210455000Y-100087500D01*
X186100000Y-151450100D02*
X187251600Y-152601700D01*
X186100000Y-100378300D02*
X196655100Y-89823200D01*
X202951800Y-152601700D02*
X211513000Y-144040500D01*
X210100000Y-97070200D02*
X210100000Y-100087500D01*
X186100000Y-101700000D02*
X186100000Y-100378300D01*
X187251600Y-152601700D02*
X202951800Y-152601700D01*
X211513000Y-144040500D02*
X211513000Y-101145500D01*
%TO.N,/rst*%
X202548300Y-136330000D02*
X202548300Y-133215000D01*
X203140600Y-132622800D02*
X203140600Y-127110600D01*
X207311300Y-105738700D02*
X206250000Y-106800000D01*
X203600000Y-136330000D02*
X202548300Y-136330000D01*
X202650000Y-103200000D02*
X202650000Y-101600000D01*
X207311300Y-103748800D02*
X207311300Y-105738700D01*
X206300000Y-102737500D02*
X207311300Y-103748800D01*
X206250000Y-106800000D02*
X202650000Y-103200000D01*
X207301100Y-107851100D02*
X207301100Y-127110600D01*
X202548300Y-133215000D02*
X203140500Y-132622800D01*
X206250000Y-106800000D02*
X207301100Y-107851100D01*
X203140500Y-132622800D02*
X203140600Y-132622800D01*
%TO.N,/USB_D-*%
X196853200Y-117144800D02*
X199377700Y-119669300D01*
X194154900Y-111304300D02*
X196853200Y-114002600D01*
X194154900Y-104092600D02*
X194154900Y-111304300D01*
X194370300Y-103877200D02*
X194154900Y-104092600D01*
X199377700Y-145859400D02*
X202548300Y-149030000D01*
X163700000Y-74672500D02*
X163700000Y-75624200D01*
X199377700Y-119669300D02*
X199377700Y-145859400D01*
X203600000Y-149030000D02*
X202548300Y-149030000D01*
X163700000Y-74672500D02*
X163700000Y-73318300D01*
X163700000Y-75624200D02*
X164700000Y-75624200D01*
X163700000Y-73318300D02*
X163755700Y-73262600D01*
X164700000Y-74672500D02*
X164700000Y-75624200D01*
X196853200Y-114002600D02*
X196853200Y-117144800D01*
%TO.N,/USB_D+*%
X203600000Y-150300000D02*
X202548300Y-150300000D01*
X165099200Y-73720800D02*
X164200000Y-73720800D01*
X193753200Y-111470600D02*
X196451500Y-114168900D01*
X198976000Y-119869200D02*
X198976000Y-146727700D01*
X196451500Y-117344700D02*
X198976000Y-119869200D01*
X165200000Y-73821600D02*
X165099200Y-73720800D01*
X165099200Y-73720800D02*
X165099200Y-73506200D01*
X194154900Y-102418400D02*
X193753200Y-102820100D01*
X193753200Y-102820100D02*
X193753200Y-111470600D01*
X164200000Y-74672500D02*
X164200000Y-73720800D01*
X198976000Y-146727700D02*
X202548300Y-150300000D01*
X165200000Y-74672500D02*
X165200000Y-73821600D01*
X196451500Y-114168900D02*
X196451500Y-117344700D01*
%TO.N,VBUS*%
D31*
X162488400Y-76212600D02*
X166411600Y-76212600D01*
X162484500Y-109430800D02*
X167779800Y-104135500D01*
X166411600Y-76212600D02*
X166850000Y-75774200D01*
X167779800Y-104135500D02*
X167779800Y-83540200D01*
X162050000Y-74672500D02*
X162050000Y-75774200D01*
X166850000Y-74672500D02*
X166850000Y-75774200D01*
X167779800Y-83540200D02*
X169053400Y-82266600D01*
X182475000Y-151100000D02*
X165428700Y-151100000D01*
X169025800Y-75774200D02*
X174300000Y-70500000D01*
X169053400Y-82266600D02*
X169053400Y-75801800D01*
X158552700Y-144224000D02*
X158552700Y-139485700D01*
X158552700Y-139485700D02*
X162484500Y-135553900D01*
X162050000Y-75774200D02*
X162488400Y-76212600D01*
X162484500Y-135553900D02*
X162484500Y-109430800D01*
X165428700Y-151100000D02*
X158552700Y-144224000D01*
X166850000Y-75774200D02*
X169025800Y-75774200D01*
X169053400Y-75801800D02*
X169025800Y-75774200D01*
%TD*%
M02*
