%TF.GenerationSoftware,KiCad,Pcbnew,10.0.2*%
%TF.CreationDate,2026-06-06T16:39:37+02:00*%
%TF.ProjectId,C.A.S.E,432e412e-532e-4452-9e6b-696361645f70,rev?*%
%TF.SameCoordinates,Original*%
%TF.FileFunction,Copper,L1,Top*%
%TF.FilePolarity,Positive*%
%FSLAX46Y46*%
G04 Gerber Fmt 4.6, Leading zero omitted, Abs format (unit mm)*
G04 Created by KiCad (PCBNEW 10.0.2) date 2026-06-06 16:39:37*
%MOMM*%
%LPD*%
G01*
G04 APERTURE LIST*
G04 Aperture macros list*
%AMRoundRect*
0 Rectangle with rounded corners*
0 $1 Rounding radius*
0 $2 $3 $4 $5 $6 $7 $8 $9 X,Y pos of 4 corners*
0 Add a 4 corners polygon primitive as box body*
4,1,4,$2,$3,$4,$5,$6,$7,$8,$9,$2,$3,0*
0 Add four circle primitives for the rounded corners*
1,1,$1+$1,$2,$3*
1,1,$1+$1,$4,$5*
1,1,$1+$1,$6,$7*
1,1,$1+$1,$8,$9*
0 Add four rect primitives between the rounded corners*
20,1,$1+$1,$2,$3,$4,$5,0*
20,1,$1+$1,$4,$5,$6,$7,0*
20,1,$1+$1,$6,$7,$8,$9,0*
20,1,$1+$1,$8,$9,$2,$3,0*%
G04 Aperture macros list end*
%TA.AperFunction,Conductor*%
%ADD10C,0.500000*%
%TD*%
%TA.AperFunction,NonConductor*%
%ADD11C,0.800000*%
%TD*%
%TA.AperFunction,EtchedComponent*%
%ADD12C,0.000000*%
%TD*%
%TA.AperFunction,ComponentPad*%
%ADD13C,4.400000*%
%TD*%
%TA.AperFunction,ComponentPad*%
%ADD14R,2.000000X2.000000*%
%TD*%
%TA.AperFunction,ComponentPad*%
%ADD15C,2.000000*%
%TD*%
%TA.AperFunction,ComponentPad*%
%ADD16R,3.200000X2.000000*%
%TD*%
%TA.AperFunction,ComponentPad*%
%ADD17C,2.200000*%
%TD*%
%TA.AperFunction,SMDPad,CuDef*%
%ADD18RoundRect,0.243750X0.150260X-0.494975X0.494975X-0.150260X-0.150260X0.494975X-0.494975X0.150260X0*%
%TD*%
%TA.AperFunction,ComponentPad*%
%ADD19O,1.050000X2.100000*%
%TD*%
%TA.AperFunction,ComponentPad*%
%ADD20O,0.800000X1.600000*%
%TD*%
%TA.AperFunction,ViaPad*%
%ADD21C,0.600000*%
%TD*%
%TA.AperFunction,Conductor*%
%ADD22C,0.200000*%
%TD*%
G04 APERTURE END LIST*
%TO.N,GND*%
D10*
X118750000Y-74500000D02*
G75*
G02*
X123750000Y-69500000I5000000J0D01*
G01*
X118750000Y-153850000D02*
X118750000Y-74500000D01*
X123750000Y-69500000D02*
X207600000Y-69500000D01*
X123750000Y-158850000D02*
G75*
G02*
X118750000Y-153850000I0J5000000D01*
G01*
D11*
X147819829Y-86050000D02*
G75*
G02*
X124980171Y-86050000I-11419829J0D01*
G01*
X124980171Y-86050000D02*
G75*
G02*
X147819829Y-86050000I11419829J0D01*
G01*
D10*
X207600000Y-69500000D02*
G75*
G02*
X212600000Y-74500000I0J-5000000D01*
G01*
X207600000Y-158850000D02*
X123750000Y-158850000D01*
X212600000Y-74500000D02*
X212600000Y-153850000D01*
X212600000Y-153850000D02*
G75*
G02*
X207600000Y-158850000I-5000000J0D01*
G01*
D12*
%TA.AperFunction,EtchedComponent*%
%TD*%
%TO.C,*%
G36*
X143161369Y-140669868D02*
G01*
X143182713Y-140686811D01*
X143198245Y-140700484D01*
X143204083Y-140707149D01*
X143211672Y-140718394D01*
X143216680Y-140723902D01*
X143224503Y-140734878D01*
X143237622Y-140756488D01*
X143253933Y-140785181D01*
X143265150Y-140805759D01*
X143284813Y-140842369D01*
X143304763Y-140879401D01*
X143321801Y-140910924D01*
X143327668Y-140921734D01*
X143343508Y-140951012D01*
X143362900Y-140987075D01*
X143381894Y-141022574D01*
X143383579Y-141025734D01*
X143398897Y-141054149D01*
X143411755Y-141077409D01*
X143420009Y-141091657D01*
X143421365Y-141093734D01*
X143425709Y-141100748D01*
X143434031Y-141115528D01*
X143447052Y-141139407D01*
X143465495Y-141173719D01*
X143490084Y-141219800D01*
X143514501Y-141265727D01*
X143524932Y-141284548D01*
X143532334Y-141296451D01*
X143533369Y-141297727D01*
X143539174Y-141306916D01*
X143548545Y-141324667D01*
X143551054Y-141329734D01*
X143562355Y-141351706D01*
X143577967Y-141380663D01*
X143591923Y-141405734D01*
X143611472Y-141440383D01*
X143632933Y-141478609D01*
X143645857Y-141501734D01*
X143662963Y-141532313D01*
X143680016Y-141562613D01*
X143690855Y-141581734D01*
X143703707Y-141605017D01*
X143714011Y-141624949D01*
X143716300Y-141629797D01*
X143724306Y-141645529D01*
X143737207Y-141668834D01*
X143747011Y-141685797D01*
X143762125Y-141712097D01*
X143781187Y-141746142D01*
X143800633Y-141781548D01*
X143805066Y-141789734D01*
X143821173Y-141819162D01*
X143834972Y-141843619D01*
X143844331Y-141859359D01*
X143846505Y-141862573D01*
X143854147Y-141874514D01*
X143865745Y-141894832D01*
X143872108Y-141906573D01*
X143905522Y-141968928D01*
X143935118Y-142023035D01*
X143964261Y-142074944D01*
X143996313Y-142130706D01*
X144005148Y-142145913D01*
X144025439Y-142181048D01*
X144042473Y-142211062D01*
X144054793Y-142233349D01*
X144060942Y-142245301D01*
X144061369Y-142246529D01*
X144065193Y-142254409D01*
X144075812Y-142273825D01*
X144091946Y-142302499D01*
X144112315Y-142338155D01*
X144133369Y-142374605D01*
X144156514Y-142414855D01*
X144176570Y-142450441D01*
X144192249Y-142479022D01*
X144202263Y-142498254D01*
X144205369Y-142505624D01*
X144210310Y-142516783D01*
X144215462Y-142523162D01*
X144226680Y-142538363D01*
X144235404Y-142553734D01*
X144245636Y-142573314D01*
X144252815Y-142585734D01*
X144260095Y-142597961D01*
X144273385Y-142620871D01*
X144290827Y-142651217D01*
X144310564Y-142685748D01*
X144330742Y-142721215D01*
X144349502Y-142754369D01*
X144364989Y-142781961D01*
X144367090Y-142785734D01*
X144400186Y-142844597D01*
X144426584Y-142890108D01*
X144438433Y-142909734D01*
X144450103Y-142929577D01*
X144458282Y-142945068D01*
X144458585Y-142945734D01*
X144463862Y-142955560D01*
X144476099Y-142977337D01*
X144494220Y-143009180D01*
X144517146Y-143049203D01*
X144543802Y-143095523D01*
X144573110Y-143146253D01*
X144577441Y-143153734D01*
X144608123Y-143206757D01*
X144637309Y-143257270D01*
X144663704Y-143303026D01*
X144686012Y-143341775D01*
X144702938Y-143371272D01*
X144713187Y-143389268D01*
X144713448Y-143389734D01*
X144733872Y-143425928D01*
X144749486Y-143453279D01*
X144763252Y-143476930D01*
X144777960Y-143501734D01*
X144792075Y-143526108D01*
X144804242Y-143548287D01*
X144807047Y-143553734D01*
X144816302Y-143569895D01*
X144822705Y-143577896D01*
X144829888Y-143587727D01*
X144837069Y-143601896D01*
X144846326Y-143620830D01*
X144859808Y-143645952D01*
X144874979Y-143672829D01*
X144889305Y-143697033D01*
X144900251Y-143714130D01*
X144904121Y-143719114D01*
X144911960Y-143730547D01*
X144921709Y-143749037D01*
X144922038Y-143749734D01*
X144934772Y-143774476D01*
X144948199Y-143797734D01*
X144958689Y-143814937D01*
X144971086Y-143835971D01*
X144987249Y-143864036D01*
X145009038Y-143902335D01*
X145013369Y-143909977D01*
X145027201Y-143949613D01*
X145029471Y-143996802D01*
X145020481Y-144048362D01*
X145000532Y-144101111D01*
X144994072Y-144113734D01*
X144986119Y-144128689D01*
X144972714Y-144154122D01*
X144955806Y-144186328D01*
X144939367Y-144217734D01*
X144903197Y-144286633D01*
X144872347Y-144344792D01*
X144847350Y-144391213D01*
X144828740Y-144424903D01*
X144821369Y-144437734D01*
X144810507Y-144456827D01*
X144795344Y-144484278D01*
X144779070Y-144514305D01*
X144778304Y-144515734D01*
X144748743Y-144570822D01*
X144725023Y-144614801D01*
X144705483Y-144650693D01*
X144688463Y-144681520D01*
X144672301Y-144710306D01*
X144655336Y-144740073D01*
X144648278Y-144752367D01*
X144630811Y-144782986D01*
X144616769Y-144808054D01*
X144607795Y-144824609D01*
X144605368Y-144829734D01*
X144601634Y-144837350D01*
X144591524Y-144855851D01*
X144576679Y-144882274D01*
X144562512Y-144907100D01*
X144543263Y-144940676D01*
X144526933Y-144969330D01*
X144511211Y-144997166D01*
X144493784Y-145028288D01*
X144472342Y-145066801D01*
X144456271Y-145095734D01*
X144441045Y-145122915D01*
X144422151Y-145156309D01*
X144405369Y-145185734D01*
X144386903Y-145218123D01*
X144368157Y-145251279D01*
X144354466Y-145275734D01*
X144329133Y-145321323D01*
X144309080Y-145357286D01*
X144291850Y-145387999D01*
X144274983Y-145417841D01*
X144256020Y-145451186D01*
X144247726Y-145465734D01*
X144229296Y-145497935D01*
X144213249Y-145525768D01*
X144201578Y-145545790D01*
X144196815Y-145553734D01*
X144187530Y-145570070D01*
X144179473Y-145585734D01*
X144170584Y-145601841D01*
X144164657Y-145609734D01*
X144158870Y-145618149D01*
X144147623Y-145637307D01*
X144132893Y-145663784D01*
X144125356Y-145677734D01*
X144109479Y-145706747D01*
X144087734Y-145745589D01*
X144062363Y-145790298D01*
X144035611Y-145836910D01*
X144018905Y-145865734D01*
X143994017Y-145908673D01*
X143970547Y-145949508D01*
X143950268Y-145985129D01*
X143934952Y-146012428D01*
X143927701Y-146025734D01*
X143912433Y-146053837D01*
X143896766Y-146081490D01*
X143891911Y-146089734D01*
X143877450Y-146114428D01*
X143860957Y-146143355D01*
X143855152Y-146153734D01*
X143843757Y-146173934D01*
X143826429Y-146204254D01*
X143805293Y-146240992D01*
X143782476Y-146280445D01*
X143776267Y-146291144D01*
X143755422Y-146327550D01*
X143737818Y-146359278D01*
X143724890Y-146383666D01*
X143718068Y-146398056D01*
X143717369Y-146400477D01*
X143712254Y-146410477D01*
X143711167Y-146411067D01*
X143705065Y-146418667D01*
X143692875Y-146437499D01*
X143676301Y-146464818D01*
X143657046Y-146497881D01*
X143654848Y-146501734D01*
X143635117Y-146536281D01*
X143617766Y-146566480D01*
X143604595Y-146589213D01*
X143597399Y-146601364D01*
X143597168Y-146601734D01*
X143588310Y-146617268D01*
X143577649Y-146637734D01*
X143566821Y-146658238D01*
X143557635Y-146673734D01*
X143551249Y-146684314D01*
X143538426Y-146706379D01*
X143520578Y-146737468D01*
X143499118Y-146775124D01*
X143477239Y-146813734D01*
X143453733Y-146855269D01*
X143432591Y-146892519D01*
X143415214Y-146923027D01*
X143403001Y-146944335D01*
X143397508Y-146953734D01*
X143387593Y-146970233D01*
X143372389Y-146996004D01*
X143353568Y-147028161D01*
X143332804Y-147063821D01*
X143311768Y-147100100D01*
X143292133Y-147134114D01*
X143275569Y-147162980D01*
X143263751Y-147183813D01*
X143258349Y-147193730D01*
X143258348Y-147193734D01*
X143239402Y-147228527D01*
X143218192Y-147252704D01*
X143189557Y-147271381D01*
X143171338Y-147280038D01*
X143166559Y-147282086D01*
X143161420Y-147283961D01*
X143155215Y-147285671D01*
X143147235Y-147287228D01*
X143136774Y-147288641D01*
X143123126Y-147289920D01*
X143105582Y-147291076D01*
X143083437Y-147292118D01*
X143055984Y-147293057D01*
X143022514Y-147293903D01*
X142982322Y-147294665D01*
X142934700Y-147295354D01*
X142878941Y-147295979D01*
X142814339Y-147296552D01*
X142740187Y-147297081D01*
X142655776Y-147297578D01*
X142560402Y-147298051D01*
X142453356Y-147298512D01*
X142333931Y-147298969D01*
X142201422Y-147299435D01*
X142055120Y-147299917D01*
X141894318Y-147300427D01*
X141718310Y-147300974D01*
X141695642Y-147301044D01*
X141538387Y-147301547D01*
X141381480Y-147302082D01*
X141226030Y-147302642D01*
X141073146Y-147303223D01*
X140923938Y-147303820D01*
X140779516Y-147304427D01*
X140640988Y-147305039D01*
X140509463Y-147305651D01*
X140386051Y-147306258D01*
X140271862Y-147306855D01*
X140168004Y-147307436D01*
X140075587Y-147307997D01*
X139995720Y-147308531D01*
X139929513Y-147309034D01*
X139878074Y-147309502D01*
X139873369Y-147309551D01*
X139780388Y-147310445D01*
X139702153Y-147310989D01*
X139637416Y-147311161D01*
X139584924Y-147310943D01*
X139543430Y-147310316D01*
X139511682Y-147309260D01*
X139488431Y-147307755D01*
X139472426Y-147305783D01*
X139462418Y-147303323D01*
X139462029Y-147303178D01*
X139437428Y-147289430D01*
X139413190Y-147266294D01*
X139387951Y-147232054D01*
X139360348Y-147184997D01*
X139345369Y-147156387D01*
X139328871Y-147124278D01*
X139314913Y-147097730D01*
X139305136Y-147079826D01*
X139301369Y-147073734D01*
X139296060Y-147065085D01*
X139285802Y-147046027D01*
X139272711Y-147020504D01*
X139271321Y-147017734D01*
X139256101Y-146988154D01*
X139236094Y-146950376D01*
X139214361Y-146910144D01*
X139200945Y-146885734D01*
X139181859Y-146851067D01*
X139164544Y-146819221D01*
X139151155Y-146794179D01*
X139144724Y-146781734D01*
X139132986Y-146759114D01*
X139118512Y-146732564D01*
X139114670Y-146725734D01*
X139102095Y-146703175D01*
X139084146Y-146670462D01*
X139062975Y-146631556D01*
X139040736Y-146590421D01*
X139019579Y-146551021D01*
X139008236Y-146529740D01*
X138997576Y-146510894D01*
X138989641Y-146498996D01*
X138988447Y-146497740D01*
X138982414Y-146487670D01*
X138977923Y-146475781D01*
X138969404Y-146456990D01*
X138962844Y-146447781D01*
X138954295Y-146435507D01*
X138941856Y-146414002D01*
X138931193Y-146393734D01*
X138914855Y-146362173D01*
X138897379Y-146329697D01*
X138888464Y-146313734D01*
X138853694Y-146252741D01*
X138825653Y-146203321D01*
X138803058Y-146163199D01*
X138784626Y-146130098D01*
X138773429Y-146109734D01*
X138755027Y-146076453D01*
X138733734Y-146038503D01*
X138717379Y-146009734D01*
X138698909Y-145977346D01*
X138680160Y-145944191D01*
X138666466Y-145919734D01*
X138641418Y-145874658D01*
X138621827Y-145839525D01*
X138605407Y-145810275D01*
X138589874Y-145782849D01*
X138572945Y-145753186D01*
X138561801Y-145733734D01*
X138543920Y-145702397D01*
X138528681Y-145675415D01*
X138518084Y-145656343D01*
X138514563Y-145649734D01*
X138506945Y-145635785D01*
X138494779Y-145614795D01*
X138489382Y-145605734D01*
X138475321Y-145581293D01*
X138458154Y-145550029D01*
X138444225Y-145523734D01*
X138430558Y-145499023D01*
X138419053Y-145481151D01*
X138412072Y-145473764D01*
X138411830Y-145473734D01*
X138405612Y-145467540D01*
X138405369Y-145465229D01*
X138401510Y-145456078D01*
X138390716Y-145435271D01*
X138374160Y-145404942D01*
X138353015Y-145367230D01*
X138328454Y-145324270D01*
X138318595Y-145307229D01*
X138291572Y-145260608D01*
X138266015Y-145216398D01*
X138243469Y-145177283D01*
X138225482Y-145145946D01*
X138213599Y-145125069D01*
X138211726Y-145121734D01*
X138195352Y-145092573D01*
X138178400Y-145062636D01*
X138173321Y-145053734D01*
X138158937Y-145028282D01*
X138141631Y-144997236D01*
X138130873Y-144977734D01*
X138117520Y-144954112D01*
X138106905Y-144936636D01*
X138101889Y-144929734D01*
X138094986Y-144920270D01*
X138086814Y-144905734D01*
X138064437Y-144863264D01*
X138044444Y-144828526D01*
X138030176Y-144805734D01*
X138015304Y-144781671D01*
X138002696Y-144759643D01*
X137999613Y-144753734D01*
X137989216Y-144734161D01*
X137981839Y-144721734D01*
X137975018Y-144710427D01*
X137962114Y-144688320D01*
X137944933Y-144658531D01*
X137925281Y-144624177D01*
X137923889Y-144621734D01*
X137904445Y-144588208D01*
X137887494Y-144560126D01*
X137874741Y-144540232D01*
X137867889Y-144531267D01*
X137867570Y-144531067D01*
X137861426Y-144521930D01*
X137861368Y-144520883D01*
X137857530Y-144511038D01*
X137847262Y-144491074D01*
X137832441Y-144464551D01*
X137824859Y-144451550D01*
X137804572Y-144417199D01*
X137790149Y-144392730D01*
X137779322Y-144374243D01*
X137769824Y-144357841D01*
X137759387Y-144339623D01*
X137745746Y-144315691D01*
X137740074Y-144305734D01*
X137724124Y-144278144D01*
X137711017Y-144256231D01*
X137702848Y-144243467D01*
X137701469Y-144241734D01*
X137694935Y-144232252D01*
X137687032Y-144217734D01*
X137678570Y-144201418D01*
X137664999Y-144175873D01*
X137648879Y-144145909D01*
X137644449Y-144137734D01*
X137626816Y-144103702D01*
X137610207Y-144069013D01*
X137597846Y-144040437D01*
X137596571Y-144037134D01*
X137588180Y-144013396D01*
X137585279Y-143996504D01*
X137587848Y-143979261D01*
X137595865Y-143954471D01*
X137596329Y-143953134D01*
X137603876Y-143932470D01*
X137612318Y-143912202D01*
X137622960Y-143889788D01*
X137637105Y-143862688D01*
X137656059Y-143828360D01*
X137681125Y-143784261D01*
X137698674Y-143753734D01*
X137720404Y-143715963D01*
X137738729Y-143683922D01*
X137756021Y-143653412D01*
X137774648Y-143620237D01*
X137796981Y-143580203D01*
X137816153Y-143545734D01*
X137832932Y-143515697D01*
X137849855Y-143485638D01*
X137858885Y-143469734D01*
X137871186Y-143447644D01*
X137880477Y-143429990D01*
X137882516Y-143425734D01*
X137888952Y-143413169D01*
X137900917Y-143391256D01*
X137915943Y-143364506D01*
X137917522Y-143361734D01*
X137954390Y-143296467D01*
X137987878Y-143235704D01*
X138023006Y-143170331D01*
X138023324Y-143169734D01*
X138043470Y-143132537D01*
X138065910Y-143092122D01*
X138085870Y-143057087D01*
X138086305Y-143056338D01*
X138101050Y-143030479D01*
X138112006Y-143010288D01*
X138117196Y-142999434D01*
X138117368Y-142998690D01*
X138121110Y-142990003D01*
X138130756Y-142972089D01*
X138139966Y-142956086D01*
X138153923Y-142931777D01*
X138172356Y-142898828D01*
X138192212Y-142862720D01*
X138201428Y-142845734D01*
X138222409Y-142806992D01*
X138244850Y-142765759D01*
X138264951Y-142729011D01*
X138271152Y-142717734D01*
X138287642Y-142687516D01*
X138302600Y-142659598D01*
X138313088Y-142639469D01*
X138313959Y-142637734D01*
X138325733Y-142615112D01*
X138340228Y-142588561D01*
X138344070Y-142581734D01*
X138361062Y-142551268D01*
X138385104Y-142507339D01*
X138415813Y-142450652D01*
X138452806Y-142381914D01*
X138457196Y-142373734D01*
X138473654Y-142343354D01*
X138489112Y-142315330D01*
X138500488Y-142295237D01*
X138501369Y-142293734D01*
X138512100Y-142274870D01*
X138527255Y-142247453D01*
X138543755Y-142217060D01*
X138545541Y-142213734D01*
X138583195Y-142143725D01*
X138614607Y-142085693D01*
X138639393Y-142040341D01*
X138657171Y-142008375D01*
X138658667Y-142005734D01*
X138672967Y-141979862D01*
X138686046Y-141955133D01*
X138688778Y-141949734D01*
X138698482Y-141930999D01*
X138713030Y-141903773D01*
X138729488Y-141873544D01*
X138731585Y-141869734D01*
X138749820Y-141836516D01*
X138771857Y-141796185D01*
X138793897Y-141755701D01*
X138801477Y-141741734D01*
X138820309Y-141707146D01*
X138838464Y-141674062D01*
X138853203Y-141647461D01*
X138858670Y-141637734D01*
X138872968Y-141611862D01*
X138886047Y-141587132D01*
X138888778Y-141581734D01*
X138898482Y-141562999D01*
X138913030Y-141535773D01*
X138929488Y-141505544D01*
X138931585Y-141501734D01*
X138949820Y-141468516D01*
X138971857Y-141428185D01*
X138993897Y-141387701D01*
X139001477Y-141373734D01*
X139020309Y-141339146D01*
X139038464Y-141306062D01*
X139053203Y-141279461D01*
X139058670Y-141269734D01*
X139072968Y-141243862D01*
X139086047Y-141219132D01*
X139088778Y-141213734D01*
X139098482Y-141194999D01*
X139113030Y-141167773D01*
X139129488Y-141137544D01*
X139131585Y-141133734D01*
X139149813Y-141100494D01*
X139171817Y-141060135D01*
X139193796Y-141019633D01*
X139201309Y-141005734D01*
X139220758Y-140970063D01*
X139240261Y-140934901D01*
X139256765Y-140905725D01*
X139262771Y-140895381D01*
X139275188Y-140873595D01*
X139283396Y-140857829D01*
X139285368Y-140852728D01*
X139289124Y-140844175D01*
X139298986Y-140825806D01*
X139312850Y-140801536D01*
X139313368Y-140800651D01*
X139327487Y-140775317D01*
X139337638Y-140754731D01*
X139341634Y-140743333D01*
X139341635Y-140743305D01*
X139348994Y-140725835D01*
X139368124Y-140705707D01*
X139395861Y-140686008D01*
X139406307Y-140680159D01*
X139441369Y-140661734D01*
X140073369Y-140656754D01*
X140158795Y-140656105D01*
X140258623Y-140655391D01*
X140371255Y-140654620D01*
X140495093Y-140653802D01*
X140628539Y-140652948D01*
X140769995Y-140652066D01*
X140917862Y-140651166D01*
X141070543Y-140650259D01*
X141226440Y-140649353D01*
X141383954Y-140648459D01*
X141541489Y-140647585D01*
X141697445Y-140646742D01*
X141850225Y-140645940D01*
X141913369Y-140645616D01*
X143121369Y-140639457D01*
X143161369Y-140669868D01*
G37*
%TD.AperFunction*%
%TA.AperFunction,EtchedComponent*%
%TO.C,*%
G36*
X137134573Y-151475715D02*
G01*
X137155917Y-151492658D01*
X137171449Y-151506331D01*
X137177287Y-151512996D01*
X137184876Y-151524241D01*
X137189884Y-151529749D01*
X137197707Y-151540725D01*
X137210826Y-151562335D01*
X137227137Y-151591028D01*
X137238354Y-151611606D01*
X137258017Y-151648216D01*
X137277967Y-151685248D01*
X137295005Y-151716771D01*
X137300872Y-151727581D01*
X137316712Y-151756859D01*
X137336104Y-151792922D01*
X137355098Y-151828421D01*
X137356783Y-151831581D01*
X137372101Y-151859996D01*
X137384959Y-151883256D01*
X137393213Y-151897504D01*
X137394569Y-151899581D01*
X137398913Y-151906595D01*
X137407235Y-151921375D01*
X137420256Y-151945254D01*
X137438699Y-151979566D01*
X137463288Y-152025647D01*
X137487705Y-152071574D01*
X137498136Y-152090395D01*
X137505538Y-152102298D01*
X137506573Y-152103574D01*
X137512378Y-152112763D01*
X137521749Y-152130514D01*
X137524258Y-152135581D01*
X137535559Y-152157553D01*
X137551171Y-152186510D01*
X137565127Y-152211581D01*
X137584676Y-152246230D01*
X137606137Y-152284456D01*
X137619061Y-152307581D01*
X137636167Y-152338160D01*
X137653220Y-152368460D01*
X137664059Y-152387581D01*
X137676911Y-152410864D01*
X137687215Y-152430796D01*
X137689504Y-152435644D01*
X137697510Y-152451376D01*
X137710411Y-152474681D01*
X137720215Y-152491644D01*
X137735329Y-152517944D01*
X137754391Y-152551989D01*
X137773837Y-152587395D01*
X137778270Y-152595581D01*
X137794377Y-152625009D01*
X137808176Y-152649466D01*
X137817535Y-152665206D01*
X137819709Y-152668420D01*
X137827351Y-152680361D01*
X137838949Y-152700679D01*
X137845312Y-152712420D01*
X137878726Y-152774775D01*
X137908322Y-152828882D01*
X137937465Y-152880791D01*
X137969517Y-152936553D01*
X137978352Y-152951760D01*
X137998643Y-152986895D01*
X138015677Y-153016909D01*
X138027997Y-153039196D01*
X138034146Y-153051148D01*
X138034573Y-153052376D01*
X138038397Y-153060256D01*
X138049016Y-153079672D01*
X138065150Y-153108346D01*
X138085519Y-153144002D01*
X138106573Y-153180452D01*
X138129718Y-153220702D01*
X138149774Y-153256288D01*
X138165453Y-153284869D01*
X138175467Y-153304101D01*
X138178573Y-153311471D01*
X138183514Y-153322630D01*
X138188666Y-153329009D01*
X138199884Y-153344210D01*
X138208608Y-153359581D01*
X138218840Y-153379161D01*
X138226019Y-153391581D01*
X138233299Y-153403808D01*
X138246589Y-153426718D01*
X138264031Y-153457064D01*
X138283768Y-153491595D01*
X138303946Y-153527062D01*
X138322706Y-153560216D01*
X138338193Y-153587808D01*
X138340294Y-153591581D01*
X138373390Y-153650444D01*
X138399788Y-153695955D01*
X138411637Y-153715581D01*
X138423307Y-153735424D01*
X138431486Y-153750915D01*
X138431789Y-153751581D01*
X138437066Y-153761407D01*
X138449303Y-153783184D01*
X138467424Y-153815027D01*
X138490350Y-153855050D01*
X138517006Y-153901370D01*
X138546314Y-153952100D01*
X138550645Y-153959581D01*
X138581327Y-154012604D01*
X138610513Y-154063117D01*
X138636908Y-154108873D01*
X138659216Y-154147622D01*
X138676142Y-154177119D01*
X138686391Y-154195115D01*
X138686652Y-154195581D01*
X138707076Y-154231775D01*
X138722690Y-154259126D01*
X138736456Y-154282777D01*
X138751164Y-154307581D01*
X138765279Y-154331955D01*
X138777446Y-154354134D01*
X138780251Y-154359581D01*
X138789506Y-154375742D01*
X138795909Y-154383743D01*
X138803092Y-154393574D01*
X138810273Y-154407743D01*
X138819530Y-154426677D01*
X138833012Y-154451799D01*
X138848183Y-154478676D01*
X138862509Y-154502880D01*
X138873455Y-154519977D01*
X138877325Y-154524961D01*
X138885164Y-154536394D01*
X138894913Y-154554884D01*
X138895242Y-154555581D01*
X138907976Y-154580323D01*
X138921403Y-154603581D01*
X138931893Y-154620784D01*
X138944290Y-154641818D01*
X138960453Y-154669883D01*
X138982242Y-154708182D01*
X138986573Y-154715824D01*
X139000405Y-154755460D01*
X139002675Y-154802649D01*
X138993685Y-154854209D01*
X138973736Y-154906958D01*
X138967276Y-154919581D01*
X138959323Y-154934536D01*
X138945918Y-154959969D01*
X138929010Y-154992175D01*
X138912571Y-155023581D01*
X138876401Y-155092480D01*
X138845551Y-155150639D01*
X138820554Y-155197060D01*
X138801944Y-155230750D01*
X138794573Y-155243581D01*
X138783711Y-155262674D01*
X138768548Y-155290125D01*
X138752274Y-155320152D01*
X138751508Y-155321581D01*
X138721947Y-155376669D01*
X138698227Y-155420648D01*
X138678687Y-155456540D01*
X138661667Y-155487367D01*
X138645505Y-155516153D01*
X138628540Y-155545920D01*
X138621482Y-155558214D01*
X138604015Y-155588833D01*
X138589973Y-155613901D01*
X138580999Y-155630456D01*
X138578572Y-155635581D01*
X138574838Y-155643197D01*
X138564728Y-155661698D01*
X138549883Y-155688121D01*
X138535716Y-155712947D01*
X138516467Y-155746523D01*
X138500137Y-155775177D01*
X138484415Y-155803013D01*
X138466988Y-155834135D01*
X138445546Y-155872648D01*
X138429475Y-155901581D01*
X138414249Y-155928762D01*
X138395355Y-155962156D01*
X138378573Y-155991581D01*
X138360107Y-156023970D01*
X138341361Y-156057126D01*
X138327670Y-156081581D01*
X138302337Y-156127170D01*
X138282284Y-156163133D01*
X138265054Y-156193846D01*
X138248187Y-156223688D01*
X138229224Y-156257033D01*
X138220930Y-156271581D01*
X138202500Y-156303782D01*
X138186453Y-156331615D01*
X138174782Y-156351637D01*
X138170019Y-156359581D01*
X138160734Y-156375917D01*
X138152677Y-156391581D01*
X138143788Y-156407688D01*
X138137861Y-156415581D01*
X138132074Y-156423996D01*
X138120827Y-156443154D01*
X138106097Y-156469631D01*
X138098560Y-156483581D01*
X138082683Y-156512594D01*
X138060938Y-156551436D01*
X138035567Y-156596145D01*
X138008815Y-156642757D01*
X137992109Y-156671581D01*
X137967221Y-156714520D01*
X137943751Y-156755355D01*
X137923472Y-156790976D01*
X137908156Y-156818275D01*
X137900905Y-156831581D01*
X137885637Y-156859684D01*
X137869970Y-156887337D01*
X137865115Y-156895581D01*
X137850654Y-156920275D01*
X137834161Y-156949202D01*
X137828356Y-156959581D01*
X137816961Y-156979781D01*
X137799633Y-157010101D01*
X137778497Y-157046839D01*
X137755680Y-157086292D01*
X137749471Y-157096991D01*
X137728626Y-157133397D01*
X137711022Y-157165125D01*
X137698094Y-157189513D01*
X137691272Y-157203903D01*
X137690573Y-157206324D01*
X137685458Y-157216324D01*
X137684371Y-157216914D01*
X137678269Y-157224514D01*
X137666079Y-157243346D01*
X137649505Y-157270665D01*
X137630250Y-157303728D01*
X137628052Y-157307581D01*
X137608321Y-157342128D01*
X137590970Y-157372327D01*
X137577799Y-157395060D01*
X137570603Y-157407211D01*
X137570372Y-157407581D01*
X137561514Y-157423115D01*
X137550853Y-157443581D01*
X137540025Y-157464085D01*
X137530839Y-157479581D01*
X137524453Y-157490161D01*
X137511630Y-157512226D01*
X137493782Y-157543315D01*
X137472322Y-157580971D01*
X137450443Y-157619581D01*
X137426937Y-157661116D01*
X137405795Y-157698366D01*
X137388418Y-157728874D01*
X137376205Y-157750182D01*
X137370712Y-157759581D01*
X137360797Y-157776080D01*
X137345593Y-157801851D01*
X137326772Y-157834008D01*
X137306008Y-157869668D01*
X137284972Y-157905947D01*
X137265337Y-157939961D01*
X137248773Y-157968827D01*
X137236955Y-157989660D01*
X137231553Y-157999577D01*
X137231552Y-157999581D01*
X137212606Y-158034374D01*
X137191396Y-158058551D01*
X137162761Y-158077228D01*
X137144542Y-158085885D01*
X137139763Y-158087933D01*
X137134624Y-158089808D01*
X137128419Y-158091518D01*
X137120439Y-158093075D01*
X137109978Y-158094488D01*
X137096330Y-158095767D01*
X137078786Y-158096923D01*
X137056641Y-158097965D01*
X137029188Y-158098904D01*
X136995718Y-158099750D01*
X136955526Y-158100512D01*
X136907904Y-158101201D01*
X136852145Y-158101826D01*
X136787543Y-158102399D01*
X136713391Y-158102928D01*
X136628980Y-158103425D01*
X136533606Y-158103898D01*
X136426560Y-158104359D01*
X136307135Y-158104816D01*
X136174626Y-158105282D01*
X136028324Y-158105764D01*
X135867522Y-158106274D01*
X135691514Y-158106821D01*
X135668846Y-158106891D01*
X135511591Y-158107394D01*
X135354684Y-158107929D01*
X135199234Y-158108489D01*
X135046350Y-158109070D01*
X134897142Y-158109667D01*
X134752720Y-158110274D01*
X134614192Y-158110886D01*
X134482667Y-158111498D01*
X134359255Y-158112105D01*
X134245066Y-158112702D01*
X134141208Y-158113283D01*
X134048791Y-158113844D01*
X133968924Y-158114378D01*
X133902717Y-158114881D01*
X133851278Y-158115349D01*
X133846573Y-158115398D01*
X133753592Y-158116292D01*
X133675357Y-158116836D01*
X133610620Y-158117008D01*
X133558128Y-158116790D01*
X133516634Y-158116163D01*
X133484886Y-158115107D01*
X133461635Y-158113602D01*
X133445630Y-158111630D01*
X133435622Y-158109170D01*
X133435233Y-158109025D01*
X133410632Y-158095277D01*
X133386394Y-158072141D01*
X133361155Y-158037901D01*
X133333552Y-157990844D01*
X133318573Y-157962234D01*
X133302075Y-157930125D01*
X133288117Y-157903577D01*
X133278340Y-157885673D01*
X133274573Y-157879581D01*
X133269264Y-157870932D01*
X133259006Y-157851874D01*
X133245915Y-157826351D01*
X133244525Y-157823581D01*
X133229305Y-157794001D01*
X133209298Y-157756223D01*
X133187565Y-157715991D01*
X133174149Y-157691581D01*
X133155063Y-157656914D01*
X133137748Y-157625068D01*
X133124359Y-157600026D01*
X133117928Y-157587581D01*
X133106190Y-157564961D01*
X133091716Y-157538411D01*
X133087874Y-157531581D01*
X133075299Y-157509022D01*
X133057350Y-157476309D01*
X133036179Y-157437403D01*
X133013940Y-157396268D01*
X132992783Y-157356868D01*
X132981440Y-157335587D01*
X132970780Y-157316741D01*
X132962845Y-157304843D01*
X132961651Y-157303587D01*
X132955618Y-157293517D01*
X132951127Y-157281628D01*
X132942608Y-157262837D01*
X132936048Y-157253628D01*
X132927499Y-157241354D01*
X132915060Y-157219849D01*
X132904397Y-157199581D01*
X132888059Y-157168020D01*
X132870583Y-157135544D01*
X132861668Y-157119581D01*
X132826898Y-157058588D01*
X132798857Y-157009168D01*
X132776262Y-156969046D01*
X132757830Y-156935945D01*
X132746633Y-156915581D01*
X132728231Y-156882300D01*
X132706938Y-156844350D01*
X132690583Y-156815581D01*
X132672113Y-156783193D01*
X132653364Y-156750038D01*
X132639670Y-156725581D01*
X132614622Y-156680505D01*
X132595031Y-156645372D01*
X132578611Y-156616122D01*
X132563078Y-156588696D01*
X132546149Y-156559033D01*
X132535005Y-156539581D01*
X132517124Y-156508244D01*
X132501885Y-156481262D01*
X132491288Y-156462190D01*
X132487767Y-156455581D01*
X132480149Y-156441632D01*
X132467983Y-156420642D01*
X132462586Y-156411581D01*
X132448525Y-156387140D01*
X132431358Y-156355876D01*
X132417429Y-156329581D01*
X132403762Y-156304870D01*
X132392257Y-156286998D01*
X132385276Y-156279611D01*
X132385034Y-156279581D01*
X132378816Y-156273387D01*
X132378573Y-156271076D01*
X132374714Y-156261925D01*
X132363920Y-156241118D01*
X132347364Y-156210789D01*
X132326219Y-156173077D01*
X132301658Y-156130117D01*
X132291799Y-156113076D01*
X132264776Y-156066455D01*
X132239219Y-156022245D01*
X132216673Y-155983130D01*
X132198686Y-155951793D01*
X132186803Y-155930916D01*
X132184930Y-155927581D01*
X132168556Y-155898420D01*
X132151604Y-155868483D01*
X132146525Y-155859581D01*
X132132141Y-155834129D01*
X132114835Y-155803083D01*
X132104077Y-155783581D01*
X132090724Y-155759959D01*
X132080109Y-155742483D01*
X132075093Y-155735581D01*
X132068190Y-155726117D01*
X132060018Y-155711581D01*
X132037641Y-155669111D01*
X132017648Y-155634373D01*
X132003380Y-155611581D01*
X131988508Y-155587518D01*
X131975900Y-155565490D01*
X131972817Y-155559581D01*
X131962420Y-155540008D01*
X131955043Y-155527581D01*
X131948222Y-155516274D01*
X131935318Y-155494167D01*
X131918137Y-155464378D01*
X131898485Y-155430024D01*
X131897093Y-155427581D01*
X131877649Y-155394055D01*
X131860698Y-155365973D01*
X131847945Y-155346079D01*
X131841093Y-155337114D01*
X131840774Y-155336914D01*
X131834630Y-155327777D01*
X131834572Y-155326730D01*
X131830734Y-155316885D01*
X131820466Y-155296921D01*
X131805645Y-155270398D01*
X131798063Y-155257397D01*
X131777776Y-155223046D01*
X131763353Y-155198577D01*
X131752526Y-155180090D01*
X131743028Y-155163688D01*
X131732591Y-155145470D01*
X131718950Y-155121538D01*
X131713278Y-155111581D01*
X131697328Y-155083991D01*
X131684221Y-155062078D01*
X131676052Y-155049314D01*
X131674673Y-155047581D01*
X131668139Y-155038099D01*
X131660236Y-155023581D01*
X131651774Y-155007265D01*
X131638203Y-154981720D01*
X131622083Y-154951756D01*
X131617653Y-154943581D01*
X131600020Y-154909549D01*
X131583411Y-154874860D01*
X131571050Y-154846284D01*
X131569775Y-154842981D01*
X131561384Y-154819243D01*
X131558483Y-154802351D01*
X131561052Y-154785108D01*
X131569069Y-154760318D01*
X131569533Y-154758981D01*
X131577080Y-154738317D01*
X131585522Y-154718049D01*
X131596164Y-154695635D01*
X131610309Y-154668535D01*
X131629263Y-154634207D01*
X131654329Y-154590108D01*
X131671878Y-154559581D01*
X131693608Y-154521810D01*
X131711933Y-154489769D01*
X131729225Y-154459259D01*
X131747852Y-154426084D01*
X131770185Y-154386050D01*
X131789357Y-154351581D01*
X131806136Y-154321544D01*
X131823059Y-154291485D01*
X131832089Y-154275581D01*
X131844390Y-154253491D01*
X131853681Y-154235837D01*
X131855720Y-154231581D01*
X131862156Y-154219016D01*
X131874121Y-154197103D01*
X131889147Y-154170353D01*
X131890726Y-154167581D01*
X131927594Y-154102314D01*
X131961082Y-154041551D01*
X131996210Y-153976178D01*
X131996528Y-153975581D01*
X132016674Y-153938384D01*
X132039114Y-153897969D01*
X132059074Y-153862934D01*
X132059509Y-153862185D01*
X132074254Y-153836326D01*
X132085210Y-153816135D01*
X132090400Y-153805281D01*
X132090572Y-153804537D01*
X132094314Y-153795850D01*
X132103960Y-153777936D01*
X132113170Y-153761933D01*
X132127127Y-153737624D01*
X132145560Y-153704675D01*
X132165416Y-153668567D01*
X132174632Y-153651581D01*
X132195613Y-153612839D01*
X132218054Y-153571606D01*
X132238155Y-153534858D01*
X132244356Y-153523581D01*
X132260846Y-153493363D01*
X132275804Y-153465445D01*
X132286292Y-153445316D01*
X132287163Y-153443581D01*
X132298937Y-153420959D01*
X132313432Y-153394408D01*
X132317274Y-153387581D01*
X132334266Y-153357115D01*
X132358308Y-153313186D01*
X132389017Y-153256499D01*
X132426010Y-153187761D01*
X132430400Y-153179581D01*
X132446858Y-153149201D01*
X132462316Y-153121177D01*
X132473692Y-153101084D01*
X132474573Y-153099581D01*
X132485304Y-153080717D01*
X132500459Y-153053300D01*
X132516959Y-153022907D01*
X132518745Y-153019581D01*
X132556399Y-152949572D01*
X132587811Y-152891540D01*
X132612597Y-152846188D01*
X132630375Y-152814222D01*
X132631871Y-152811581D01*
X132646171Y-152785709D01*
X132659250Y-152760980D01*
X132661982Y-152755581D01*
X132671686Y-152736846D01*
X132686234Y-152709620D01*
X132702692Y-152679391D01*
X132704789Y-152675581D01*
X132723024Y-152642363D01*
X132745061Y-152602032D01*
X132767101Y-152561548D01*
X132774681Y-152547581D01*
X132793513Y-152512993D01*
X132811668Y-152479909D01*
X132826407Y-152453308D01*
X132831874Y-152443581D01*
X132846172Y-152417709D01*
X132859251Y-152392979D01*
X132861982Y-152387581D01*
X132871686Y-152368846D01*
X132886234Y-152341620D01*
X132902692Y-152311391D01*
X132904789Y-152307581D01*
X132923024Y-152274363D01*
X132945061Y-152234032D01*
X132967101Y-152193548D01*
X132974681Y-152179581D01*
X132993513Y-152144993D01*
X133011668Y-152111909D01*
X133026407Y-152085308D01*
X133031874Y-152075581D01*
X133046172Y-152049709D01*
X133059251Y-152024979D01*
X133061982Y-152019581D01*
X133071686Y-152000846D01*
X133086234Y-151973620D01*
X133102692Y-151943391D01*
X133104789Y-151939581D01*
X133123017Y-151906341D01*
X133145021Y-151865982D01*
X133167000Y-151825480D01*
X133174513Y-151811581D01*
X133193962Y-151775910D01*
X133213465Y-151740748D01*
X133229969Y-151711572D01*
X133235975Y-151701228D01*
X133248392Y-151679442D01*
X133256600Y-151663676D01*
X133258572Y-151658575D01*
X133262328Y-151650022D01*
X133272190Y-151631653D01*
X133286054Y-151607383D01*
X133286572Y-151606498D01*
X133300691Y-151581164D01*
X133310842Y-151560578D01*
X133314838Y-151549180D01*
X133314839Y-151549152D01*
X133322198Y-151531682D01*
X133341328Y-151511554D01*
X133369065Y-151491855D01*
X133379511Y-151486006D01*
X133414573Y-151467581D01*
X134046573Y-151462601D01*
X134131999Y-151461952D01*
X134231827Y-151461238D01*
X134344459Y-151460467D01*
X134468297Y-151459649D01*
X134601743Y-151458795D01*
X134743199Y-151457913D01*
X134891066Y-151457013D01*
X135043747Y-151456106D01*
X135199644Y-151455200D01*
X135357158Y-151454306D01*
X135514693Y-151453432D01*
X135670649Y-151452589D01*
X135823429Y-151451787D01*
X135886573Y-151451463D01*
X137094573Y-151445304D01*
X137134573Y-151475715D01*
G37*
%TD.AperFunction*%
%TA.AperFunction,EtchedComponent*%
G36*
X149230000Y-144332134D02*
G01*
X149251344Y-144349077D01*
X149266876Y-144362750D01*
X149272714Y-144369415D01*
X149280303Y-144380660D01*
X149285311Y-144386168D01*
X149293134Y-144397144D01*
X149306253Y-144418754D01*
X149322564Y-144447447D01*
X149333781Y-144468025D01*
X149353444Y-144504635D01*
X149373394Y-144541667D01*
X149390432Y-144573190D01*
X149396299Y-144584000D01*
X149412139Y-144613278D01*
X149431531Y-144649341D01*
X149450525Y-144684840D01*
X149452210Y-144688000D01*
X149467528Y-144716415D01*
X149480386Y-144739675D01*
X149488640Y-144753923D01*
X149489996Y-144756000D01*
X149494340Y-144763014D01*
X149502662Y-144777794D01*
X149515683Y-144801673D01*
X149534126Y-144835985D01*
X149558715Y-144882066D01*
X149583132Y-144927993D01*
X149593563Y-144946814D01*
X149600965Y-144958717D01*
X149602000Y-144959993D01*
X149607805Y-144969182D01*
X149617176Y-144986933D01*
X149619685Y-144992000D01*
X149630986Y-145013972D01*
X149646598Y-145042929D01*
X149660554Y-145068000D01*
X149680103Y-145102649D01*
X149701564Y-145140875D01*
X149714488Y-145164000D01*
X149731594Y-145194579D01*
X149748647Y-145224879D01*
X149759486Y-145244000D01*
X149772338Y-145267283D01*
X149782642Y-145287215D01*
X149784931Y-145292063D01*
X149792937Y-145307795D01*
X149805838Y-145331100D01*
X149815642Y-145348063D01*
X149830756Y-145374363D01*
X149849818Y-145408408D01*
X149869264Y-145443814D01*
X149873697Y-145452000D01*
X149889804Y-145481428D01*
X149903603Y-145505885D01*
X149912962Y-145521625D01*
X149915136Y-145524839D01*
X149922778Y-145536780D01*
X149934376Y-145557098D01*
X149940739Y-145568839D01*
X149974153Y-145631194D01*
X150003749Y-145685301D01*
X150032892Y-145737210D01*
X150064944Y-145792972D01*
X150073779Y-145808179D01*
X150094070Y-145843314D01*
X150111104Y-145873328D01*
X150123424Y-145895615D01*
X150129573Y-145907567D01*
X150130000Y-145908795D01*
X150133824Y-145916675D01*
X150144443Y-145936091D01*
X150160577Y-145964765D01*
X150180946Y-146000421D01*
X150202000Y-146036871D01*
X150225145Y-146077121D01*
X150245201Y-146112707D01*
X150260880Y-146141288D01*
X150270894Y-146160520D01*
X150274000Y-146167890D01*
X150278941Y-146179049D01*
X150284093Y-146185428D01*
X150295311Y-146200629D01*
X150304035Y-146216000D01*
X150314267Y-146235580D01*
X150321446Y-146248000D01*
X150328726Y-146260227D01*
X150342016Y-146283137D01*
X150359458Y-146313483D01*
X150379195Y-146348014D01*
X150399373Y-146383481D01*
X150418133Y-146416635D01*
X150433620Y-146444227D01*
X150435721Y-146448000D01*
X150468817Y-146506863D01*
X150495215Y-146552374D01*
X150507064Y-146572000D01*
X150518734Y-146591843D01*
X150526913Y-146607334D01*
X150527216Y-146608000D01*
X150532493Y-146617826D01*
X150544730Y-146639603D01*
X150562851Y-146671446D01*
X150585777Y-146711469D01*
X150612433Y-146757789D01*
X150641741Y-146808519D01*
X150646072Y-146816000D01*
X150676754Y-146869023D01*
X150705940Y-146919536D01*
X150732335Y-146965292D01*
X150754643Y-147004041D01*
X150771569Y-147033538D01*
X150781818Y-147051534D01*
X150782079Y-147052000D01*
X150802503Y-147088194D01*
X150818117Y-147115545D01*
X150831883Y-147139196D01*
X150846591Y-147164000D01*
X150860706Y-147188374D01*
X150872873Y-147210553D01*
X150875678Y-147216000D01*
X150884933Y-147232161D01*
X150891336Y-147240162D01*
X150898519Y-147249993D01*
X150905700Y-147264162D01*
X150914957Y-147283096D01*
X150928439Y-147308218D01*
X150943610Y-147335095D01*
X150957936Y-147359299D01*
X150968882Y-147376396D01*
X150972752Y-147381380D01*
X150980591Y-147392813D01*
X150990340Y-147411303D01*
X150990669Y-147412000D01*
X151003403Y-147436742D01*
X151016830Y-147460000D01*
X151027320Y-147477203D01*
X151039717Y-147498237D01*
X151055880Y-147526302D01*
X151077669Y-147564601D01*
X151082000Y-147572243D01*
X151095832Y-147611879D01*
X151098102Y-147659068D01*
X151089112Y-147710628D01*
X151069163Y-147763377D01*
X151062703Y-147776000D01*
X151054750Y-147790955D01*
X151041345Y-147816388D01*
X151024437Y-147848594D01*
X151007998Y-147880000D01*
X150971828Y-147948899D01*
X150940978Y-148007058D01*
X150915981Y-148053479D01*
X150897371Y-148087169D01*
X150890000Y-148100000D01*
X150879138Y-148119093D01*
X150863975Y-148146544D01*
X150847701Y-148176571D01*
X150846935Y-148178000D01*
X150817374Y-148233088D01*
X150793654Y-148277067D01*
X150774114Y-148312959D01*
X150757094Y-148343786D01*
X150740932Y-148372572D01*
X150723967Y-148402339D01*
X150716909Y-148414633D01*
X150699442Y-148445252D01*
X150685400Y-148470320D01*
X150676426Y-148486875D01*
X150673999Y-148492000D01*
X150670265Y-148499616D01*
X150660155Y-148518117D01*
X150645310Y-148544540D01*
X150631143Y-148569366D01*
X150611894Y-148602942D01*
X150595564Y-148631596D01*
X150579842Y-148659432D01*
X150562415Y-148690554D01*
X150540973Y-148729067D01*
X150524902Y-148758000D01*
X150509676Y-148785181D01*
X150490782Y-148818575D01*
X150474000Y-148848000D01*
X150455534Y-148880389D01*
X150436788Y-148913545D01*
X150423097Y-148938000D01*
X150397764Y-148983589D01*
X150377711Y-149019552D01*
X150360481Y-149050265D01*
X150343614Y-149080107D01*
X150324651Y-149113452D01*
X150316357Y-149128000D01*
X150297927Y-149160201D01*
X150281880Y-149188034D01*
X150270209Y-149208056D01*
X150265446Y-149216000D01*
X150256161Y-149232336D01*
X150248104Y-149248000D01*
X150239215Y-149264107D01*
X150233288Y-149272000D01*
X150227501Y-149280415D01*
X150216254Y-149299573D01*
X150201524Y-149326050D01*
X150193987Y-149340000D01*
X150178110Y-149369013D01*
X150156365Y-149407855D01*
X150130994Y-149452564D01*
X150104242Y-149499176D01*
X150087536Y-149528000D01*
X150062648Y-149570939D01*
X150039178Y-149611774D01*
X150018899Y-149647395D01*
X150003583Y-149674694D01*
X149996332Y-149688000D01*
X149981064Y-149716103D01*
X149965397Y-149743756D01*
X149960542Y-149752000D01*
X149946081Y-149776694D01*
X149929588Y-149805621D01*
X149923783Y-149816000D01*
X149912388Y-149836200D01*
X149895060Y-149866520D01*
X149873924Y-149903258D01*
X149851107Y-149942711D01*
X149844898Y-149953410D01*
X149824053Y-149989816D01*
X149806449Y-150021544D01*
X149793521Y-150045932D01*
X149786699Y-150060322D01*
X149786000Y-150062743D01*
X149780885Y-150072743D01*
X149779798Y-150073333D01*
X149773696Y-150080933D01*
X149761506Y-150099765D01*
X149744932Y-150127084D01*
X149725677Y-150160147D01*
X149723479Y-150164000D01*
X149703748Y-150198547D01*
X149686397Y-150228746D01*
X149673226Y-150251479D01*
X149666030Y-150263630D01*
X149665799Y-150264000D01*
X149656941Y-150279534D01*
X149646280Y-150300000D01*
X149635452Y-150320504D01*
X149626266Y-150336000D01*
X149619880Y-150346580D01*
X149607057Y-150368645D01*
X149589209Y-150399734D01*
X149567749Y-150437390D01*
X149545870Y-150476000D01*
X149522364Y-150517535D01*
X149501222Y-150554785D01*
X149483845Y-150585293D01*
X149471632Y-150606601D01*
X149466139Y-150616000D01*
X149456224Y-150632499D01*
X149441020Y-150658270D01*
X149422199Y-150690427D01*
X149401435Y-150726087D01*
X149380399Y-150762366D01*
X149360764Y-150796380D01*
X149344200Y-150825246D01*
X149332382Y-150846079D01*
X149326980Y-150855996D01*
X149326979Y-150856000D01*
X149308033Y-150890793D01*
X149286823Y-150914970D01*
X149258188Y-150933647D01*
X149239969Y-150942304D01*
X149235190Y-150944352D01*
X149230051Y-150946227D01*
X149223846Y-150947937D01*
X149215866Y-150949494D01*
X149205405Y-150950907D01*
X149191757Y-150952186D01*
X149174213Y-150953342D01*
X149152068Y-150954384D01*
X149124615Y-150955323D01*
X149091145Y-150956169D01*
X149050953Y-150956931D01*
X149003331Y-150957620D01*
X148947572Y-150958245D01*
X148882970Y-150958818D01*
X148808818Y-150959347D01*
X148724407Y-150959844D01*
X148629033Y-150960317D01*
X148521987Y-150960778D01*
X148402562Y-150961235D01*
X148270053Y-150961701D01*
X148123751Y-150962183D01*
X147962949Y-150962693D01*
X147786941Y-150963240D01*
X147764273Y-150963310D01*
X147607018Y-150963813D01*
X147450111Y-150964348D01*
X147294661Y-150964908D01*
X147141777Y-150965489D01*
X146992569Y-150966086D01*
X146848147Y-150966693D01*
X146709619Y-150967305D01*
X146578094Y-150967917D01*
X146454682Y-150968524D01*
X146340493Y-150969121D01*
X146236635Y-150969702D01*
X146144218Y-150970263D01*
X146064351Y-150970797D01*
X145998144Y-150971300D01*
X145946705Y-150971768D01*
X145942000Y-150971817D01*
X145849019Y-150972711D01*
X145770784Y-150973255D01*
X145706047Y-150973427D01*
X145653555Y-150973209D01*
X145612061Y-150972582D01*
X145580313Y-150971526D01*
X145557062Y-150970021D01*
X145541057Y-150968049D01*
X145531049Y-150965589D01*
X145530660Y-150965444D01*
X145506059Y-150951696D01*
X145481821Y-150928560D01*
X145456582Y-150894320D01*
X145428979Y-150847263D01*
X145414000Y-150818653D01*
X145397502Y-150786544D01*
X145383544Y-150759996D01*
X145373767Y-150742092D01*
X145370000Y-150736000D01*
X145364691Y-150727351D01*
X145354433Y-150708293D01*
X145341342Y-150682770D01*
X145339952Y-150680000D01*
X145324732Y-150650420D01*
X145304725Y-150612642D01*
X145282992Y-150572410D01*
X145269576Y-150548000D01*
X145250490Y-150513333D01*
X145233175Y-150481487D01*
X145219786Y-150456445D01*
X145213355Y-150444000D01*
X145201617Y-150421380D01*
X145187143Y-150394830D01*
X145183301Y-150388000D01*
X145170726Y-150365441D01*
X145152777Y-150332728D01*
X145131606Y-150293822D01*
X145109367Y-150252687D01*
X145088210Y-150213287D01*
X145076867Y-150192006D01*
X145066207Y-150173160D01*
X145058272Y-150161262D01*
X145057078Y-150160006D01*
X145051045Y-150149936D01*
X145046554Y-150138047D01*
X145038035Y-150119256D01*
X145031475Y-150110047D01*
X145022926Y-150097773D01*
X145010487Y-150076268D01*
X144999824Y-150056000D01*
X144983486Y-150024439D01*
X144966010Y-149991963D01*
X144957095Y-149976000D01*
X144922325Y-149915007D01*
X144894284Y-149865587D01*
X144871689Y-149825465D01*
X144853257Y-149792364D01*
X144842060Y-149772000D01*
X144823658Y-149738719D01*
X144802365Y-149700769D01*
X144786010Y-149672000D01*
X144767540Y-149639612D01*
X144748791Y-149606457D01*
X144735097Y-149582000D01*
X144710049Y-149536924D01*
X144690458Y-149501791D01*
X144674038Y-149472541D01*
X144658505Y-149445115D01*
X144641576Y-149415452D01*
X144630432Y-149396000D01*
X144612551Y-149364663D01*
X144597312Y-149337681D01*
X144586715Y-149318609D01*
X144583194Y-149312000D01*
X144575576Y-149298051D01*
X144563410Y-149277061D01*
X144558013Y-149268000D01*
X144543952Y-149243559D01*
X144526785Y-149212295D01*
X144512856Y-149186000D01*
X144499189Y-149161289D01*
X144487684Y-149143417D01*
X144480703Y-149136030D01*
X144480461Y-149136000D01*
X144474243Y-149129806D01*
X144474000Y-149127495D01*
X144470141Y-149118344D01*
X144459347Y-149097537D01*
X144442791Y-149067208D01*
X144421646Y-149029496D01*
X144397085Y-148986536D01*
X144387226Y-148969495D01*
X144360203Y-148922874D01*
X144334646Y-148878664D01*
X144312100Y-148839549D01*
X144294113Y-148808212D01*
X144282230Y-148787335D01*
X144280357Y-148784000D01*
X144263983Y-148754839D01*
X144247031Y-148724902D01*
X144241952Y-148716000D01*
X144227568Y-148690548D01*
X144210262Y-148659502D01*
X144199504Y-148640000D01*
X144186151Y-148616378D01*
X144175536Y-148598902D01*
X144170520Y-148592000D01*
X144163617Y-148582536D01*
X144155445Y-148568000D01*
X144133068Y-148525530D01*
X144113075Y-148490792D01*
X144098807Y-148468000D01*
X144083935Y-148443937D01*
X144071327Y-148421909D01*
X144068244Y-148416000D01*
X144057847Y-148396427D01*
X144050470Y-148384000D01*
X144043649Y-148372693D01*
X144030745Y-148350586D01*
X144013564Y-148320797D01*
X143993912Y-148286443D01*
X143992520Y-148284000D01*
X143973076Y-148250474D01*
X143956125Y-148222392D01*
X143943372Y-148202498D01*
X143936520Y-148193533D01*
X143936201Y-148193333D01*
X143930057Y-148184196D01*
X143929999Y-148183149D01*
X143926161Y-148173304D01*
X143915893Y-148153340D01*
X143901072Y-148126817D01*
X143893490Y-148113816D01*
X143873203Y-148079465D01*
X143858780Y-148054996D01*
X143847953Y-148036509D01*
X143838455Y-148020107D01*
X143828018Y-148001889D01*
X143814377Y-147977957D01*
X143808705Y-147968000D01*
X143792755Y-147940410D01*
X143779648Y-147918497D01*
X143771479Y-147905733D01*
X143770100Y-147904000D01*
X143763566Y-147894518D01*
X143755663Y-147880000D01*
X143747201Y-147863684D01*
X143733630Y-147838139D01*
X143717510Y-147808175D01*
X143713080Y-147800000D01*
X143695447Y-147765968D01*
X143678838Y-147731279D01*
X143666477Y-147702703D01*
X143665202Y-147699400D01*
X143656811Y-147675662D01*
X143653910Y-147658770D01*
X143656479Y-147641527D01*
X143664496Y-147616737D01*
X143664960Y-147615400D01*
X143672507Y-147594736D01*
X143680949Y-147574468D01*
X143691591Y-147552054D01*
X143705736Y-147524954D01*
X143724690Y-147490626D01*
X143749756Y-147446527D01*
X143767305Y-147416000D01*
X143789035Y-147378229D01*
X143807360Y-147346188D01*
X143824652Y-147315678D01*
X143843279Y-147282503D01*
X143865612Y-147242469D01*
X143884784Y-147208000D01*
X143901563Y-147177963D01*
X143918486Y-147147904D01*
X143927516Y-147132000D01*
X143939817Y-147109910D01*
X143949108Y-147092256D01*
X143951147Y-147088000D01*
X143957583Y-147075435D01*
X143969548Y-147053522D01*
X143984574Y-147026772D01*
X143986153Y-147024000D01*
X144023021Y-146958733D01*
X144056509Y-146897970D01*
X144091637Y-146832597D01*
X144091955Y-146832000D01*
X144112101Y-146794803D01*
X144134541Y-146754388D01*
X144154501Y-146719353D01*
X144154936Y-146718604D01*
X144169681Y-146692745D01*
X144180637Y-146672554D01*
X144185827Y-146661700D01*
X144185999Y-146660956D01*
X144189741Y-146652269D01*
X144199387Y-146634355D01*
X144208597Y-146618352D01*
X144222554Y-146594043D01*
X144240987Y-146561094D01*
X144260843Y-146524986D01*
X144270059Y-146508000D01*
X144291040Y-146469258D01*
X144313481Y-146428025D01*
X144333582Y-146391277D01*
X144339783Y-146380000D01*
X144356273Y-146349782D01*
X144371231Y-146321864D01*
X144381719Y-146301735D01*
X144382590Y-146300000D01*
X144394364Y-146277378D01*
X144408859Y-146250827D01*
X144412701Y-146244000D01*
X144429693Y-146213534D01*
X144453735Y-146169605D01*
X144484444Y-146112918D01*
X144521437Y-146044180D01*
X144525827Y-146036000D01*
X144542285Y-146005620D01*
X144557743Y-145977596D01*
X144569119Y-145957503D01*
X144570000Y-145956000D01*
X144580731Y-145937136D01*
X144595886Y-145909719D01*
X144612386Y-145879326D01*
X144614172Y-145876000D01*
X144651826Y-145805991D01*
X144683238Y-145747959D01*
X144708024Y-145702607D01*
X144725802Y-145670641D01*
X144727298Y-145668000D01*
X144741598Y-145642128D01*
X144754677Y-145617399D01*
X144757409Y-145612000D01*
X144767113Y-145593265D01*
X144781661Y-145566039D01*
X144798119Y-145535810D01*
X144800216Y-145532000D01*
X144818451Y-145498782D01*
X144840488Y-145458451D01*
X144862528Y-145417967D01*
X144870108Y-145404000D01*
X144888940Y-145369412D01*
X144907095Y-145336328D01*
X144921834Y-145309727D01*
X144927301Y-145300000D01*
X144941599Y-145274128D01*
X144954678Y-145249398D01*
X144957409Y-145244000D01*
X144967113Y-145225265D01*
X144981661Y-145198039D01*
X144998119Y-145167810D01*
X145000216Y-145164000D01*
X145018451Y-145130782D01*
X145040488Y-145090451D01*
X145062528Y-145049967D01*
X145070108Y-145036000D01*
X145088940Y-145001412D01*
X145107095Y-144968328D01*
X145121834Y-144941727D01*
X145127301Y-144932000D01*
X145141599Y-144906128D01*
X145154678Y-144881398D01*
X145157409Y-144876000D01*
X145167113Y-144857265D01*
X145181661Y-144830039D01*
X145198119Y-144799810D01*
X145200216Y-144796000D01*
X145218444Y-144762760D01*
X145240448Y-144722401D01*
X145262427Y-144681899D01*
X145269940Y-144668000D01*
X145289389Y-144632329D01*
X145308892Y-144597167D01*
X145325396Y-144567991D01*
X145331402Y-144557647D01*
X145343819Y-144535861D01*
X145352027Y-144520095D01*
X145353999Y-144514994D01*
X145357755Y-144506441D01*
X145367617Y-144488072D01*
X145381481Y-144463802D01*
X145381999Y-144462917D01*
X145396118Y-144437583D01*
X145406269Y-144416997D01*
X145410265Y-144405599D01*
X145410266Y-144405571D01*
X145417625Y-144388101D01*
X145436755Y-144367973D01*
X145464492Y-144348274D01*
X145474938Y-144342425D01*
X145510000Y-144324000D01*
X146142000Y-144319020D01*
X146227426Y-144318371D01*
X146327254Y-144317657D01*
X146439886Y-144316886D01*
X146563724Y-144316068D01*
X146697170Y-144315214D01*
X146838626Y-144314332D01*
X146986493Y-144313432D01*
X147139174Y-144312525D01*
X147295071Y-144311619D01*
X147452585Y-144310725D01*
X147610120Y-144309851D01*
X147766076Y-144309008D01*
X147918856Y-144308206D01*
X147982000Y-144307882D01*
X149190000Y-144301723D01*
X149230000Y-144332134D01*
G37*
%TD.AperFunction*%
%TA.AperFunction,EtchedComponent*%
G36*
X124776769Y-144494908D02*
G01*
X124798113Y-144511851D01*
X124813645Y-144525524D01*
X124819483Y-144532189D01*
X124827072Y-144543434D01*
X124832080Y-144548942D01*
X124839903Y-144559918D01*
X124853022Y-144581528D01*
X124869333Y-144610221D01*
X124880550Y-144630799D01*
X124900213Y-144667409D01*
X124920163Y-144704441D01*
X124937201Y-144735964D01*
X124943068Y-144746774D01*
X124958908Y-144776052D01*
X124978300Y-144812115D01*
X124997294Y-144847614D01*
X124998979Y-144850774D01*
X125014297Y-144879189D01*
X125027155Y-144902449D01*
X125035409Y-144916697D01*
X125036765Y-144918774D01*
X125041109Y-144925788D01*
X125049431Y-144940568D01*
X125062452Y-144964447D01*
X125080895Y-144998759D01*
X125105484Y-145044840D01*
X125129901Y-145090767D01*
X125140332Y-145109588D01*
X125147734Y-145121491D01*
X125148769Y-145122767D01*
X125154574Y-145131956D01*
X125163945Y-145149707D01*
X125166454Y-145154774D01*
X125177755Y-145176746D01*
X125193367Y-145205703D01*
X125207323Y-145230774D01*
X125226872Y-145265423D01*
X125248333Y-145303649D01*
X125261257Y-145326774D01*
X125278363Y-145357353D01*
X125295416Y-145387653D01*
X125306255Y-145406774D01*
X125319107Y-145430057D01*
X125329411Y-145449989D01*
X125331700Y-145454837D01*
X125339706Y-145470569D01*
X125352607Y-145493874D01*
X125362411Y-145510837D01*
X125377525Y-145537137D01*
X125396587Y-145571182D01*
X125416033Y-145606588D01*
X125420466Y-145614774D01*
X125436573Y-145644202D01*
X125450372Y-145668659D01*
X125459731Y-145684399D01*
X125461905Y-145687613D01*
X125469547Y-145699554D01*
X125481145Y-145719872D01*
X125487508Y-145731613D01*
X125520922Y-145793968D01*
X125550518Y-145848075D01*
X125579661Y-145899984D01*
X125611713Y-145955746D01*
X125620548Y-145970953D01*
X125640839Y-146006088D01*
X125657873Y-146036102D01*
X125670193Y-146058389D01*
X125676342Y-146070341D01*
X125676769Y-146071569D01*
X125680593Y-146079449D01*
X125691212Y-146098865D01*
X125707346Y-146127539D01*
X125727715Y-146163195D01*
X125748769Y-146199645D01*
X125771914Y-146239895D01*
X125791970Y-146275481D01*
X125807649Y-146304062D01*
X125817663Y-146323294D01*
X125820769Y-146330664D01*
X125825710Y-146341823D01*
X125830862Y-146348202D01*
X125842080Y-146363403D01*
X125850804Y-146378774D01*
X125861036Y-146398354D01*
X125868215Y-146410774D01*
X125875495Y-146423001D01*
X125888785Y-146445911D01*
X125906227Y-146476257D01*
X125925964Y-146510788D01*
X125946142Y-146546255D01*
X125964902Y-146579409D01*
X125980389Y-146607001D01*
X125982490Y-146610774D01*
X126015586Y-146669637D01*
X126041984Y-146715148D01*
X126053833Y-146734774D01*
X126065503Y-146754617D01*
X126073682Y-146770108D01*
X126073985Y-146770774D01*
X126079262Y-146780600D01*
X126091499Y-146802377D01*
X126109620Y-146834220D01*
X126132546Y-146874243D01*
X126159202Y-146920563D01*
X126188510Y-146971293D01*
X126192841Y-146978774D01*
X126223523Y-147031797D01*
X126252709Y-147082310D01*
X126279104Y-147128066D01*
X126301412Y-147166815D01*
X126318338Y-147196312D01*
X126328587Y-147214308D01*
X126328848Y-147214774D01*
X126349272Y-147250968D01*
X126364886Y-147278319D01*
X126378652Y-147301970D01*
X126393360Y-147326774D01*
X126407475Y-147351148D01*
X126419642Y-147373327D01*
X126422447Y-147378774D01*
X126431702Y-147394935D01*
X126438105Y-147402936D01*
X126445288Y-147412767D01*
X126452469Y-147426936D01*
X126461726Y-147445870D01*
X126475208Y-147470992D01*
X126490379Y-147497869D01*
X126504705Y-147522073D01*
X126515651Y-147539170D01*
X126519521Y-147544154D01*
X126527360Y-147555587D01*
X126537109Y-147574077D01*
X126537438Y-147574774D01*
X126550172Y-147599516D01*
X126563599Y-147622774D01*
X126574089Y-147639977D01*
X126586486Y-147661011D01*
X126602649Y-147689076D01*
X126624438Y-147727375D01*
X126628769Y-147735017D01*
X126642601Y-147774653D01*
X126644871Y-147821842D01*
X126635881Y-147873402D01*
X126615932Y-147926151D01*
X126609472Y-147938774D01*
X126601519Y-147953729D01*
X126588114Y-147979162D01*
X126571206Y-148011368D01*
X126554767Y-148042774D01*
X126518597Y-148111673D01*
X126487747Y-148169832D01*
X126462750Y-148216253D01*
X126444140Y-148249943D01*
X126436769Y-148262774D01*
X126425907Y-148281867D01*
X126410744Y-148309318D01*
X126394470Y-148339345D01*
X126393704Y-148340774D01*
X126364143Y-148395862D01*
X126340423Y-148439841D01*
X126320883Y-148475733D01*
X126303863Y-148506560D01*
X126287701Y-148535346D01*
X126270736Y-148565113D01*
X126263678Y-148577407D01*
X126246211Y-148608026D01*
X126232169Y-148633094D01*
X126223195Y-148649649D01*
X126220768Y-148654774D01*
X126217034Y-148662390D01*
X126206924Y-148680891D01*
X126192079Y-148707314D01*
X126177912Y-148732140D01*
X126158663Y-148765716D01*
X126142333Y-148794370D01*
X126126611Y-148822206D01*
X126109184Y-148853328D01*
X126087742Y-148891841D01*
X126071671Y-148920774D01*
X126056445Y-148947955D01*
X126037551Y-148981349D01*
X126020769Y-149010774D01*
X126002303Y-149043163D01*
X125983557Y-149076319D01*
X125969866Y-149100774D01*
X125944533Y-149146363D01*
X125924480Y-149182326D01*
X125907250Y-149213039D01*
X125890383Y-149242881D01*
X125871420Y-149276226D01*
X125863126Y-149290774D01*
X125844696Y-149322975D01*
X125828649Y-149350808D01*
X125816978Y-149370830D01*
X125812215Y-149378774D01*
X125802930Y-149395110D01*
X125794873Y-149410774D01*
X125785984Y-149426881D01*
X125780057Y-149434774D01*
X125774270Y-149443189D01*
X125763023Y-149462347D01*
X125748293Y-149488824D01*
X125740756Y-149502774D01*
X125724879Y-149531787D01*
X125703134Y-149570629D01*
X125677763Y-149615338D01*
X125651011Y-149661950D01*
X125634305Y-149690774D01*
X125609417Y-149733713D01*
X125585947Y-149774548D01*
X125565668Y-149810169D01*
X125550352Y-149837468D01*
X125543101Y-149850774D01*
X125527833Y-149878877D01*
X125512166Y-149906530D01*
X125507311Y-149914774D01*
X125492850Y-149939468D01*
X125476357Y-149968395D01*
X125470552Y-149978774D01*
X125459157Y-149998974D01*
X125441829Y-150029294D01*
X125420693Y-150066032D01*
X125397876Y-150105485D01*
X125391667Y-150116184D01*
X125370822Y-150152590D01*
X125353218Y-150184318D01*
X125340290Y-150208706D01*
X125333468Y-150223096D01*
X125332769Y-150225517D01*
X125327654Y-150235517D01*
X125326567Y-150236107D01*
X125320465Y-150243707D01*
X125308275Y-150262539D01*
X125291701Y-150289858D01*
X125272446Y-150322921D01*
X125270248Y-150326774D01*
X125250517Y-150361321D01*
X125233166Y-150391520D01*
X125219995Y-150414253D01*
X125212799Y-150426404D01*
X125212568Y-150426774D01*
X125203710Y-150442308D01*
X125193049Y-150462774D01*
X125182221Y-150483278D01*
X125173035Y-150498774D01*
X125166649Y-150509354D01*
X125153826Y-150531419D01*
X125135978Y-150562508D01*
X125114518Y-150600164D01*
X125092639Y-150638774D01*
X125069133Y-150680309D01*
X125047991Y-150717559D01*
X125030614Y-150748067D01*
X125018401Y-150769375D01*
X125012908Y-150778774D01*
X125002993Y-150795273D01*
X124987789Y-150821044D01*
X124968968Y-150853201D01*
X124948204Y-150888861D01*
X124927168Y-150925140D01*
X124907533Y-150959154D01*
X124890969Y-150988020D01*
X124879151Y-151008853D01*
X124873749Y-151018770D01*
X124873748Y-151018774D01*
X124854802Y-151053567D01*
X124833592Y-151077744D01*
X124804957Y-151096421D01*
X124786738Y-151105078D01*
X124781959Y-151107126D01*
X124776820Y-151109001D01*
X124770615Y-151110711D01*
X124762635Y-151112268D01*
X124752174Y-151113681D01*
X124738526Y-151114960D01*
X124720982Y-151116116D01*
X124698837Y-151117158D01*
X124671384Y-151118097D01*
X124637914Y-151118943D01*
X124597722Y-151119705D01*
X124550100Y-151120394D01*
X124494341Y-151121019D01*
X124429739Y-151121592D01*
X124355587Y-151122121D01*
X124271176Y-151122618D01*
X124175802Y-151123091D01*
X124068756Y-151123552D01*
X123949331Y-151124009D01*
X123816822Y-151124475D01*
X123670520Y-151124957D01*
X123509718Y-151125467D01*
X123333710Y-151126014D01*
X123311042Y-151126084D01*
X123153787Y-151126587D01*
X122996880Y-151127122D01*
X122841430Y-151127682D01*
X122688546Y-151128263D01*
X122539338Y-151128860D01*
X122394916Y-151129467D01*
X122256388Y-151130079D01*
X122124863Y-151130691D01*
X122001451Y-151131298D01*
X121887262Y-151131895D01*
X121783404Y-151132476D01*
X121690987Y-151133037D01*
X121611120Y-151133571D01*
X121544913Y-151134074D01*
X121493474Y-151134542D01*
X121488769Y-151134591D01*
X121395788Y-151135485D01*
X121317553Y-151136029D01*
X121252816Y-151136201D01*
X121200324Y-151135983D01*
X121158830Y-151135356D01*
X121127082Y-151134300D01*
X121103831Y-151132795D01*
X121087826Y-151130823D01*
X121077818Y-151128363D01*
X121077429Y-151128218D01*
X121052828Y-151114470D01*
X121028590Y-151091334D01*
X121003351Y-151057094D01*
X120975748Y-151010037D01*
X120960769Y-150981427D01*
X120944271Y-150949318D01*
X120930313Y-150922770D01*
X120920536Y-150904866D01*
X120916769Y-150898774D01*
X120911460Y-150890125D01*
X120901202Y-150871067D01*
X120888111Y-150845544D01*
X120886721Y-150842774D01*
X120871501Y-150813194D01*
X120851494Y-150775416D01*
X120829761Y-150735184D01*
X120816345Y-150710774D01*
X120797259Y-150676107D01*
X120779944Y-150644261D01*
X120766555Y-150619219D01*
X120760124Y-150606774D01*
X120748386Y-150584154D01*
X120733912Y-150557604D01*
X120730070Y-150550774D01*
X120717495Y-150528215D01*
X120699546Y-150495502D01*
X120678375Y-150456596D01*
X120656136Y-150415461D01*
X120634979Y-150376061D01*
X120623636Y-150354780D01*
X120612976Y-150335934D01*
X120605041Y-150324036D01*
X120603847Y-150322780D01*
X120597814Y-150312710D01*
X120593323Y-150300821D01*
X120584804Y-150282030D01*
X120578244Y-150272821D01*
X120569695Y-150260547D01*
X120557256Y-150239042D01*
X120546593Y-150218774D01*
X120530255Y-150187213D01*
X120512779Y-150154737D01*
X120503864Y-150138774D01*
X120469094Y-150077781D01*
X120441053Y-150028361D01*
X120418458Y-149988239D01*
X120400026Y-149955138D01*
X120388829Y-149934774D01*
X120370427Y-149901493D01*
X120349134Y-149863543D01*
X120332779Y-149834774D01*
X120314309Y-149802386D01*
X120295560Y-149769231D01*
X120281866Y-149744774D01*
X120256818Y-149699698D01*
X120237227Y-149664565D01*
X120220807Y-149635315D01*
X120205274Y-149607889D01*
X120188345Y-149578226D01*
X120177201Y-149558774D01*
X120159320Y-149527437D01*
X120144081Y-149500455D01*
X120133484Y-149481383D01*
X120129963Y-149474774D01*
X120122345Y-149460825D01*
X120110179Y-149439835D01*
X120104782Y-149430774D01*
X120090721Y-149406333D01*
X120073554Y-149375069D01*
X120059625Y-149348774D01*
X120045958Y-149324063D01*
X120034453Y-149306191D01*
X120027472Y-149298804D01*
X120027230Y-149298774D01*
X120021012Y-149292580D01*
X120020769Y-149290269D01*
X120016910Y-149281118D01*
X120006116Y-149260311D01*
X119989560Y-149229982D01*
X119968415Y-149192270D01*
X119943854Y-149149310D01*
X119933995Y-149132269D01*
X119906972Y-149085648D01*
X119881415Y-149041438D01*
X119858869Y-149002323D01*
X119840882Y-148970986D01*
X119828999Y-148950109D01*
X119827126Y-148946774D01*
X119810752Y-148917613D01*
X119793800Y-148887676D01*
X119788721Y-148878774D01*
X119774337Y-148853322D01*
X119757031Y-148822276D01*
X119746273Y-148802774D01*
X119732920Y-148779152D01*
X119722305Y-148761676D01*
X119717289Y-148754774D01*
X119710386Y-148745310D01*
X119702214Y-148730774D01*
X119679837Y-148688304D01*
X119659844Y-148653566D01*
X119645576Y-148630774D01*
X119630704Y-148606711D01*
X119618096Y-148584683D01*
X119615013Y-148578774D01*
X119604616Y-148559201D01*
X119597239Y-148546774D01*
X119590418Y-148535467D01*
X119577514Y-148513360D01*
X119560333Y-148483571D01*
X119540681Y-148449217D01*
X119539289Y-148446774D01*
X119519845Y-148413248D01*
X119502894Y-148385166D01*
X119490141Y-148365272D01*
X119483289Y-148356307D01*
X119482970Y-148356107D01*
X119476826Y-148346970D01*
X119476768Y-148345923D01*
X119472930Y-148336078D01*
X119462662Y-148316114D01*
X119447841Y-148289591D01*
X119440259Y-148276590D01*
X119419972Y-148242239D01*
X119405549Y-148217770D01*
X119394722Y-148199283D01*
X119385224Y-148182881D01*
X119374787Y-148164663D01*
X119361146Y-148140731D01*
X119355474Y-148130774D01*
X119339524Y-148103184D01*
X119326417Y-148081271D01*
X119318248Y-148068507D01*
X119316869Y-148066774D01*
X119310335Y-148057292D01*
X119302432Y-148042774D01*
X119293970Y-148026458D01*
X119280399Y-148000913D01*
X119264279Y-147970949D01*
X119259849Y-147962774D01*
X119242216Y-147928742D01*
X119225607Y-147894053D01*
X119213246Y-147865477D01*
X119211971Y-147862174D01*
X119203580Y-147838436D01*
X119200679Y-147821544D01*
X119203248Y-147804301D01*
X119211265Y-147779511D01*
X119211729Y-147778174D01*
X119219276Y-147757510D01*
X119227718Y-147737242D01*
X119238360Y-147714828D01*
X119252505Y-147687728D01*
X119271459Y-147653400D01*
X119296525Y-147609301D01*
X119314074Y-147578774D01*
X119335804Y-147541003D01*
X119354129Y-147508962D01*
X119371421Y-147478452D01*
X119390048Y-147445277D01*
X119412381Y-147405243D01*
X119431553Y-147370774D01*
X119448332Y-147340737D01*
X119465255Y-147310678D01*
X119474285Y-147294774D01*
X119486586Y-147272684D01*
X119495877Y-147255030D01*
X119497916Y-147250774D01*
X119504352Y-147238209D01*
X119516317Y-147216296D01*
X119531343Y-147189546D01*
X119532922Y-147186774D01*
X119569790Y-147121507D01*
X119603278Y-147060744D01*
X119638406Y-146995371D01*
X119638724Y-146994774D01*
X119658870Y-146957577D01*
X119681310Y-146917162D01*
X119701270Y-146882127D01*
X119701705Y-146881378D01*
X119716450Y-146855519D01*
X119727406Y-146835328D01*
X119732596Y-146824474D01*
X119732768Y-146823730D01*
X119736510Y-146815043D01*
X119746156Y-146797129D01*
X119755366Y-146781126D01*
X119769323Y-146756817D01*
X119787756Y-146723868D01*
X119807612Y-146687760D01*
X119816828Y-146670774D01*
X119837809Y-146632032D01*
X119860250Y-146590799D01*
X119880351Y-146554051D01*
X119886552Y-146542774D01*
X119903042Y-146512556D01*
X119918000Y-146484638D01*
X119928488Y-146464509D01*
X119929359Y-146462774D01*
X119941133Y-146440152D01*
X119955628Y-146413601D01*
X119959470Y-146406774D01*
X119976462Y-146376308D01*
X120000504Y-146332379D01*
X120031213Y-146275692D01*
X120068206Y-146206954D01*
X120072596Y-146198774D01*
X120089054Y-146168394D01*
X120104512Y-146140370D01*
X120115888Y-146120277D01*
X120116769Y-146118774D01*
X120127500Y-146099910D01*
X120142655Y-146072493D01*
X120159155Y-146042100D01*
X120160941Y-146038774D01*
X120198595Y-145968765D01*
X120230007Y-145910733D01*
X120254793Y-145865381D01*
X120272571Y-145833415D01*
X120274067Y-145830774D01*
X120288367Y-145804902D01*
X120301446Y-145780173D01*
X120304178Y-145774774D01*
X120313882Y-145756039D01*
X120328430Y-145728813D01*
X120344888Y-145698584D01*
X120346985Y-145694774D01*
X120365220Y-145661556D01*
X120387257Y-145621225D01*
X120409297Y-145580741D01*
X120416877Y-145566774D01*
X120435709Y-145532186D01*
X120453864Y-145499102D01*
X120468603Y-145472501D01*
X120474070Y-145462774D01*
X120488368Y-145436902D01*
X120501447Y-145412172D01*
X120504178Y-145406774D01*
X120513882Y-145388039D01*
X120528430Y-145360813D01*
X120544888Y-145330584D01*
X120546985Y-145326774D01*
X120565220Y-145293556D01*
X120587257Y-145253225D01*
X120609297Y-145212741D01*
X120616877Y-145198774D01*
X120635709Y-145164186D01*
X120653864Y-145131102D01*
X120668603Y-145104501D01*
X120674070Y-145094774D01*
X120688368Y-145068902D01*
X120701447Y-145044172D01*
X120704178Y-145038774D01*
X120713882Y-145020039D01*
X120728430Y-144992813D01*
X120744888Y-144962584D01*
X120746985Y-144958774D01*
X120765213Y-144925534D01*
X120787217Y-144885175D01*
X120809196Y-144844673D01*
X120816709Y-144830774D01*
X120836158Y-144795103D01*
X120855661Y-144759941D01*
X120872165Y-144730765D01*
X120878171Y-144720421D01*
X120890588Y-144698635D01*
X120898796Y-144682869D01*
X120900768Y-144677768D01*
X120904524Y-144669215D01*
X120914386Y-144650846D01*
X120928250Y-144626576D01*
X120928768Y-144625691D01*
X120942887Y-144600357D01*
X120953038Y-144579771D01*
X120957034Y-144568373D01*
X120957035Y-144568345D01*
X120964394Y-144550875D01*
X120983524Y-144530747D01*
X121011261Y-144511048D01*
X121021707Y-144505199D01*
X121056769Y-144486774D01*
X121688769Y-144481794D01*
X121774195Y-144481145D01*
X121874023Y-144480431D01*
X121986655Y-144479660D01*
X122110493Y-144478842D01*
X122243939Y-144477988D01*
X122385395Y-144477106D01*
X122533262Y-144476206D01*
X122685943Y-144475299D01*
X122841840Y-144474393D01*
X122999354Y-144473499D01*
X123156889Y-144472625D01*
X123312845Y-144471782D01*
X123465625Y-144470980D01*
X123528769Y-144470656D01*
X124736769Y-144464497D01*
X124776769Y-144494908D01*
G37*
%TD.AperFunction*%
%TA.AperFunction,EtchedComponent*%
G36*
X130900000Y-140772134D02*
G01*
X130921344Y-140789077D01*
X130936876Y-140802750D01*
X130942714Y-140809415D01*
X130950303Y-140820660D01*
X130955311Y-140826168D01*
X130963134Y-140837144D01*
X130976253Y-140858754D01*
X130992564Y-140887447D01*
X131003781Y-140908025D01*
X131023444Y-140944635D01*
X131043394Y-140981667D01*
X131060432Y-141013190D01*
X131066299Y-141024000D01*
X131082139Y-141053278D01*
X131101531Y-141089341D01*
X131120525Y-141124840D01*
X131122210Y-141128000D01*
X131137528Y-141156415D01*
X131150386Y-141179675D01*
X131158640Y-141193923D01*
X131159996Y-141196000D01*
X131164340Y-141203014D01*
X131172662Y-141217794D01*
X131185683Y-141241673D01*
X131204126Y-141275985D01*
X131228715Y-141322066D01*
X131253132Y-141367993D01*
X131263563Y-141386814D01*
X131270965Y-141398717D01*
X131272000Y-141399993D01*
X131277805Y-141409182D01*
X131287176Y-141426933D01*
X131289685Y-141432000D01*
X131300986Y-141453972D01*
X131316598Y-141482929D01*
X131330554Y-141508000D01*
X131350103Y-141542649D01*
X131371564Y-141580875D01*
X131384488Y-141604000D01*
X131401594Y-141634579D01*
X131418647Y-141664879D01*
X131429486Y-141684000D01*
X131442338Y-141707283D01*
X131452642Y-141727215D01*
X131454931Y-141732063D01*
X131462937Y-141747795D01*
X131475838Y-141771100D01*
X131485642Y-141788063D01*
X131500756Y-141814363D01*
X131519818Y-141848408D01*
X131539264Y-141883814D01*
X131543697Y-141892000D01*
X131559804Y-141921428D01*
X131573603Y-141945885D01*
X131582962Y-141961625D01*
X131585136Y-141964839D01*
X131592778Y-141976780D01*
X131604376Y-141997098D01*
X131610739Y-142008839D01*
X131644153Y-142071194D01*
X131673749Y-142125301D01*
X131702892Y-142177210D01*
X131734944Y-142232972D01*
X131743779Y-142248179D01*
X131764070Y-142283314D01*
X131781104Y-142313328D01*
X131793424Y-142335615D01*
X131799573Y-142347567D01*
X131800000Y-142348795D01*
X131803824Y-142356675D01*
X131814443Y-142376091D01*
X131830577Y-142404765D01*
X131850946Y-142440421D01*
X131872000Y-142476871D01*
X131895145Y-142517121D01*
X131915201Y-142552707D01*
X131930880Y-142581288D01*
X131940894Y-142600520D01*
X131944000Y-142607890D01*
X131948941Y-142619049D01*
X131954093Y-142625428D01*
X131965311Y-142640629D01*
X131974035Y-142656000D01*
X131984267Y-142675580D01*
X131991446Y-142688000D01*
X131998726Y-142700227D01*
X132012016Y-142723137D01*
X132029458Y-142753483D01*
X132049195Y-142788014D01*
X132069373Y-142823481D01*
X132088133Y-142856635D01*
X132103620Y-142884227D01*
X132105721Y-142888000D01*
X132138817Y-142946863D01*
X132165215Y-142992374D01*
X132177064Y-143012000D01*
X132188734Y-143031843D01*
X132196913Y-143047334D01*
X132197216Y-143048000D01*
X132202493Y-143057826D01*
X132214730Y-143079603D01*
X132232851Y-143111446D01*
X132255777Y-143151469D01*
X132282433Y-143197789D01*
X132311741Y-143248519D01*
X132316072Y-143256000D01*
X132346754Y-143309023D01*
X132375940Y-143359536D01*
X132402335Y-143405292D01*
X132424643Y-143444041D01*
X132441569Y-143473538D01*
X132451818Y-143491534D01*
X132452079Y-143492000D01*
X132472503Y-143528194D01*
X132488117Y-143555545D01*
X132501883Y-143579196D01*
X132516591Y-143604000D01*
X132530706Y-143628374D01*
X132542873Y-143650553D01*
X132545678Y-143656000D01*
X132554933Y-143672161D01*
X132561336Y-143680162D01*
X132568519Y-143689993D01*
X132575700Y-143704162D01*
X132584957Y-143723096D01*
X132598439Y-143748218D01*
X132613610Y-143775095D01*
X132627936Y-143799299D01*
X132638882Y-143816396D01*
X132642752Y-143821380D01*
X132650591Y-143832813D01*
X132660340Y-143851303D01*
X132660669Y-143852000D01*
X132673403Y-143876742D01*
X132686830Y-143900000D01*
X132697320Y-143917203D01*
X132709717Y-143938237D01*
X132725880Y-143966302D01*
X132747669Y-144004601D01*
X132752000Y-144012243D01*
X132765832Y-144051879D01*
X132768102Y-144099068D01*
X132759112Y-144150628D01*
X132739163Y-144203377D01*
X132732703Y-144216000D01*
X132724750Y-144230955D01*
X132711345Y-144256388D01*
X132694437Y-144288594D01*
X132677998Y-144320000D01*
X132641828Y-144388899D01*
X132610978Y-144447058D01*
X132585981Y-144493479D01*
X132567371Y-144527169D01*
X132560000Y-144540000D01*
X132549138Y-144559093D01*
X132533975Y-144586544D01*
X132517701Y-144616571D01*
X132516935Y-144618000D01*
X132487374Y-144673088D01*
X132463654Y-144717067D01*
X132444114Y-144752959D01*
X132427094Y-144783786D01*
X132410932Y-144812572D01*
X132393967Y-144842339D01*
X132386909Y-144854633D01*
X132369442Y-144885252D01*
X132355400Y-144910320D01*
X132346426Y-144926875D01*
X132343999Y-144932000D01*
X132340265Y-144939616D01*
X132330155Y-144958117D01*
X132315310Y-144984540D01*
X132301143Y-145009366D01*
X132281894Y-145042942D01*
X132265564Y-145071596D01*
X132249842Y-145099432D01*
X132232415Y-145130554D01*
X132210973Y-145169067D01*
X132194902Y-145198000D01*
X132179676Y-145225181D01*
X132160782Y-145258575D01*
X132144000Y-145288000D01*
X132125534Y-145320389D01*
X132106788Y-145353545D01*
X132093097Y-145378000D01*
X132067764Y-145423589D01*
X132047711Y-145459552D01*
X132030481Y-145490265D01*
X132013614Y-145520107D01*
X131994651Y-145553452D01*
X131986357Y-145568000D01*
X131967927Y-145600201D01*
X131951880Y-145628034D01*
X131940209Y-145648056D01*
X131935446Y-145656000D01*
X131926161Y-145672336D01*
X131918104Y-145688000D01*
X131909215Y-145704107D01*
X131903288Y-145712000D01*
X131897501Y-145720415D01*
X131886254Y-145739573D01*
X131871524Y-145766050D01*
X131863987Y-145780000D01*
X131848110Y-145809013D01*
X131826365Y-145847855D01*
X131800994Y-145892564D01*
X131774242Y-145939176D01*
X131757536Y-145968000D01*
X131732648Y-146010939D01*
X131709178Y-146051774D01*
X131688899Y-146087395D01*
X131673583Y-146114694D01*
X131666332Y-146128000D01*
X131651064Y-146156103D01*
X131635397Y-146183756D01*
X131630542Y-146192000D01*
X131616081Y-146216694D01*
X131599588Y-146245621D01*
X131593783Y-146256000D01*
X131582388Y-146276200D01*
X131565060Y-146306520D01*
X131543924Y-146343258D01*
X131521107Y-146382711D01*
X131514898Y-146393410D01*
X131494053Y-146429816D01*
X131476449Y-146461544D01*
X131463521Y-146485932D01*
X131456699Y-146500322D01*
X131456000Y-146502743D01*
X131450885Y-146512743D01*
X131449798Y-146513333D01*
X131443696Y-146520933D01*
X131431506Y-146539765D01*
X131414932Y-146567084D01*
X131395677Y-146600147D01*
X131393479Y-146604000D01*
X131373748Y-146638547D01*
X131356397Y-146668746D01*
X131343226Y-146691479D01*
X131336030Y-146703630D01*
X131335799Y-146704000D01*
X131326941Y-146719534D01*
X131316280Y-146740000D01*
X131305452Y-146760504D01*
X131296266Y-146776000D01*
X131289880Y-146786580D01*
X131277057Y-146808645D01*
X131259209Y-146839734D01*
X131237749Y-146877390D01*
X131215870Y-146916000D01*
X131192364Y-146957535D01*
X131171222Y-146994785D01*
X131153845Y-147025293D01*
X131141632Y-147046601D01*
X131136139Y-147056000D01*
X131126224Y-147072499D01*
X131111020Y-147098270D01*
X131092199Y-147130427D01*
X131071435Y-147166087D01*
X131050399Y-147202366D01*
X131030764Y-147236380D01*
X131014200Y-147265246D01*
X131002382Y-147286079D01*
X130996980Y-147295996D01*
X130996979Y-147296000D01*
X130978033Y-147330793D01*
X130956823Y-147354970D01*
X130928188Y-147373647D01*
X130909969Y-147382304D01*
X130905190Y-147384352D01*
X130900051Y-147386227D01*
X130893846Y-147387937D01*
X130885866Y-147389494D01*
X130875405Y-147390907D01*
X130861757Y-147392186D01*
X130844213Y-147393342D01*
X130822068Y-147394384D01*
X130794615Y-147395323D01*
X130761145Y-147396169D01*
X130720953Y-147396931D01*
X130673331Y-147397620D01*
X130617572Y-147398245D01*
X130552970Y-147398818D01*
X130478818Y-147399347D01*
X130394407Y-147399844D01*
X130299033Y-147400317D01*
X130191987Y-147400778D01*
X130072562Y-147401235D01*
X129940053Y-147401701D01*
X129793751Y-147402183D01*
X129632949Y-147402693D01*
X129456941Y-147403240D01*
X129434273Y-147403310D01*
X129277018Y-147403813D01*
X129120111Y-147404348D01*
X128964661Y-147404908D01*
X128811777Y-147405489D01*
X128662569Y-147406086D01*
X128518147Y-147406693D01*
X128379619Y-147407305D01*
X128248094Y-147407917D01*
X128124682Y-147408524D01*
X128010493Y-147409121D01*
X127906635Y-147409702D01*
X127814218Y-147410263D01*
X127734351Y-147410797D01*
X127668144Y-147411300D01*
X127616705Y-147411768D01*
X127612000Y-147411817D01*
X127519019Y-147412711D01*
X127440784Y-147413255D01*
X127376047Y-147413427D01*
X127323555Y-147413209D01*
X127282061Y-147412582D01*
X127250313Y-147411526D01*
X127227062Y-147410021D01*
X127211057Y-147408049D01*
X127201049Y-147405589D01*
X127200660Y-147405444D01*
X127176059Y-147391696D01*
X127151821Y-147368560D01*
X127126582Y-147334320D01*
X127098979Y-147287263D01*
X127084000Y-147258653D01*
X127067502Y-147226544D01*
X127053544Y-147199996D01*
X127043767Y-147182092D01*
X127040000Y-147176000D01*
X127034691Y-147167351D01*
X127024433Y-147148293D01*
X127011342Y-147122770D01*
X127009952Y-147120000D01*
X126994732Y-147090420D01*
X126974725Y-147052642D01*
X126952992Y-147012410D01*
X126939576Y-146988000D01*
X126920490Y-146953333D01*
X126903175Y-146921487D01*
X126889786Y-146896445D01*
X126883355Y-146884000D01*
X126871617Y-146861380D01*
X126857143Y-146834830D01*
X126853301Y-146828000D01*
X126840726Y-146805441D01*
X126822777Y-146772728D01*
X126801606Y-146733822D01*
X126779367Y-146692687D01*
X126758210Y-146653287D01*
X126746867Y-146632006D01*
X126736207Y-146613160D01*
X126728272Y-146601262D01*
X126727078Y-146600006D01*
X126721045Y-146589936D01*
X126716554Y-146578047D01*
X126708035Y-146559256D01*
X126701475Y-146550047D01*
X126692926Y-146537773D01*
X126680487Y-146516268D01*
X126669824Y-146496000D01*
X126653486Y-146464439D01*
X126636010Y-146431963D01*
X126627095Y-146416000D01*
X126592325Y-146355007D01*
X126564284Y-146305587D01*
X126541689Y-146265465D01*
X126523257Y-146232364D01*
X126512060Y-146212000D01*
X126493658Y-146178719D01*
X126472365Y-146140769D01*
X126456010Y-146112000D01*
X126437540Y-146079612D01*
X126418791Y-146046457D01*
X126405097Y-146022000D01*
X126380049Y-145976924D01*
X126360458Y-145941791D01*
X126344038Y-145912541D01*
X126328505Y-145885115D01*
X126311576Y-145855452D01*
X126300432Y-145836000D01*
X126282551Y-145804663D01*
X126267312Y-145777681D01*
X126256715Y-145758609D01*
X126253194Y-145752000D01*
X126245576Y-145738051D01*
X126233410Y-145717061D01*
X126228013Y-145708000D01*
X126213952Y-145683559D01*
X126196785Y-145652295D01*
X126182856Y-145626000D01*
X126169189Y-145601289D01*
X126157684Y-145583417D01*
X126150703Y-145576030D01*
X126150461Y-145576000D01*
X126144243Y-145569806D01*
X126144000Y-145567495D01*
X126140141Y-145558344D01*
X126129347Y-145537537D01*
X126112791Y-145507208D01*
X126091646Y-145469496D01*
X126067085Y-145426536D01*
X126057226Y-145409495D01*
X126030203Y-145362874D01*
X126004646Y-145318664D01*
X125982100Y-145279549D01*
X125964113Y-145248212D01*
X125952230Y-145227335D01*
X125950357Y-145224000D01*
X125933983Y-145194839D01*
X125917031Y-145164902D01*
X125911952Y-145156000D01*
X125897568Y-145130548D01*
X125880262Y-145099502D01*
X125869504Y-145080000D01*
X125856151Y-145056378D01*
X125845536Y-145038902D01*
X125840520Y-145032000D01*
X125833617Y-145022536D01*
X125825445Y-145008000D01*
X125803068Y-144965530D01*
X125783075Y-144930792D01*
X125768807Y-144908000D01*
X125753935Y-144883937D01*
X125741327Y-144861909D01*
X125738244Y-144856000D01*
X125727847Y-144836427D01*
X125720470Y-144824000D01*
X125713649Y-144812693D01*
X125700745Y-144790586D01*
X125683564Y-144760797D01*
X125663912Y-144726443D01*
X125662520Y-144724000D01*
X125643076Y-144690474D01*
X125626125Y-144662392D01*
X125613372Y-144642498D01*
X125606520Y-144633533D01*
X125606201Y-144633333D01*
X125600057Y-144624196D01*
X125599999Y-144623149D01*
X125596161Y-144613304D01*
X125585893Y-144593340D01*
X125571072Y-144566817D01*
X125563490Y-144553816D01*
X125543203Y-144519465D01*
X125528780Y-144494996D01*
X125517953Y-144476509D01*
X125508455Y-144460107D01*
X125498018Y-144441889D01*
X125484377Y-144417957D01*
X125478705Y-144408000D01*
X125462755Y-144380410D01*
X125449648Y-144358497D01*
X125441479Y-144345733D01*
X125440100Y-144344000D01*
X125433566Y-144334518D01*
X125425663Y-144320000D01*
X125417201Y-144303684D01*
X125403630Y-144278139D01*
X125387510Y-144248175D01*
X125383080Y-144240000D01*
X125365447Y-144205968D01*
X125348838Y-144171279D01*
X125336477Y-144142703D01*
X125335202Y-144139400D01*
X125326811Y-144115662D01*
X125323910Y-144098770D01*
X125326479Y-144081527D01*
X125334496Y-144056737D01*
X125334960Y-144055400D01*
X125342507Y-144034736D01*
X125350949Y-144014468D01*
X125361591Y-143992054D01*
X125375736Y-143964954D01*
X125394690Y-143930626D01*
X125419756Y-143886527D01*
X125437305Y-143856000D01*
X125459035Y-143818229D01*
X125477360Y-143786188D01*
X125494652Y-143755678D01*
X125513279Y-143722503D01*
X125535612Y-143682469D01*
X125554784Y-143648000D01*
X125571563Y-143617963D01*
X125588486Y-143587904D01*
X125597516Y-143572000D01*
X125609817Y-143549910D01*
X125619108Y-143532256D01*
X125621147Y-143528000D01*
X125627583Y-143515435D01*
X125639548Y-143493522D01*
X125654574Y-143466772D01*
X125656153Y-143464000D01*
X125693021Y-143398733D01*
X125726509Y-143337970D01*
X125761637Y-143272597D01*
X125761955Y-143272000D01*
X125782101Y-143234803D01*
X125804541Y-143194388D01*
X125824501Y-143159353D01*
X125824936Y-143158604D01*
X125839681Y-143132745D01*
X125850637Y-143112554D01*
X125855827Y-143101700D01*
X125855999Y-143100956D01*
X125859741Y-143092269D01*
X125869387Y-143074355D01*
X125878597Y-143058352D01*
X125892554Y-143034043D01*
X125910987Y-143001094D01*
X125930843Y-142964986D01*
X125940059Y-142948000D01*
X125961040Y-142909258D01*
X125983481Y-142868025D01*
X126003582Y-142831277D01*
X126009783Y-142820000D01*
X126026273Y-142789782D01*
X126041231Y-142761864D01*
X126051719Y-142741735D01*
X126052590Y-142740000D01*
X126064364Y-142717378D01*
X126078859Y-142690827D01*
X126082701Y-142684000D01*
X126099693Y-142653534D01*
X126123735Y-142609605D01*
X126154444Y-142552918D01*
X126191437Y-142484180D01*
X126195827Y-142476000D01*
X126212285Y-142445620D01*
X126227743Y-142417596D01*
X126239119Y-142397503D01*
X126240000Y-142396000D01*
X126250731Y-142377136D01*
X126265886Y-142349719D01*
X126282386Y-142319326D01*
X126284172Y-142316000D01*
X126321826Y-142245991D01*
X126353238Y-142187959D01*
X126378024Y-142142607D01*
X126395802Y-142110641D01*
X126397298Y-142108000D01*
X126411598Y-142082128D01*
X126424677Y-142057399D01*
X126427409Y-142052000D01*
X126437113Y-142033265D01*
X126451661Y-142006039D01*
X126468119Y-141975810D01*
X126470216Y-141972000D01*
X126488451Y-141938782D01*
X126510488Y-141898451D01*
X126532528Y-141857967D01*
X126540108Y-141844000D01*
X126558940Y-141809412D01*
X126577095Y-141776328D01*
X126591834Y-141749727D01*
X126597301Y-141740000D01*
X126611599Y-141714128D01*
X126624678Y-141689398D01*
X126627409Y-141684000D01*
X126637113Y-141665265D01*
X126651661Y-141638039D01*
X126668119Y-141607810D01*
X126670216Y-141604000D01*
X126688451Y-141570782D01*
X126710488Y-141530451D01*
X126732528Y-141489967D01*
X126740108Y-141476000D01*
X126758940Y-141441412D01*
X126777095Y-141408328D01*
X126791834Y-141381727D01*
X126797301Y-141372000D01*
X126811599Y-141346128D01*
X126824678Y-141321398D01*
X126827409Y-141316000D01*
X126837113Y-141297265D01*
X126851661Y-141270039D01*
X126868119Y-141239810D01*
X126870216Y-141236000D01*
X126888444Y-141202760D01*
X126910448Y-141162401D01*
X126932427Y-141121899D01*
X126939940Y-141108000D01*
X126959389Y-141072329D01*
X126978892Y-141037167D01*
X126995396Y-141007991D01*
X127001402Y-140997647D01*
X127013819Y-140975861D01*
X127022027Y-140960095D01*
X127023999Y-140954994D01*
X127027755Y-140946441D01*
X127037617Y-140928072D01*
X127051481Y-140903802D01*
X127051999Y-140902917D01*
X127066118Y-140877583D01*
X127076269Y-140856997D01*
X127080265Y-140845599D01*
X127080266Y-140845571D01*
X127087625Y-140828101D01*
X127106755Y-140807973D01*
X127134492Y-140788274D01*
X127144938Y-140782425D01*
X127180000Y-140764000D01*
X127812000Y-140759020D01*
X127897426Y-140758371D01*
X127997254Y-140757657D01*
X128109886Y-140756886D01*
X128233724Y-140756068D01*
X128367170Y-140755214D01*
X128508626Y-140754332D01*
X128656493Y-140753432D01*
X128809174Y-140752525D01*
X128965071Y-140751619D01*
X129122585Y-140750725D01*
X129280120Y-140749851D01*
X129436076Y-140749008D01*
X129588856Y-140748206D01*
X129652000Y-140747882D01*
X130860000Y-140741723D01*
X130900000Y-140772134D01*
G37*
%TD.AperFunction*%
%TA.AperFunction,EtchedComponent*%
G36*
X149240000Y-137322134D02*
G01*
X149261344Y-137339077D01*
X149276876Y-137352750D01*
X149282714Y-137359415D01*
X149290303Y-137370660D01*
X149295311Y-137376168D01*
X149303134Y-137387144D01*
X149316253Y-137408754D01*
X149332564Y-137437447D01*
X149343781Y-137458025D01*
X149363444Y-137494635D01*
X149383394Y-137531667D01*
X149400432Y-137563190D01*
X149406299Y-137574000D01*
X149422139Y-137603278D01*
X149441531Y-137639341D01*
X149460525Y-137674840D01*
X149462210Y-137678000D01*
X149477528Y-137706415D01*
X149490386Y-137729675D01*
X149498640Y-137743923D01*
X149499996Y-137746000D01*
X149504340Y-137753014D01*
X149512662Y-137767794D01*
X149525683Y-137791673D01*
X149544126Y-137825985D01*
X149568715Y-137872066D01*
X149593132Y-137917993D01*
X149603563Y-137936814D01*
X149610965Y-137948717D01*
X149612000Y-137949993D01*
X149617805Y-137959182D01*
X149627176Y-137976933D01*
X149629685Y-137982000D01*
X149640986Y-138003972D01*
X149656598Y-138032929D01*
X149670554Y-138058000D01*
X149690103Y-138092649D01*
X149711564Y-138130875D01*
X149724488Y-138154000D01*
X149741594Y-138184579D01*
X149758647Y-138214879D01*
X149769486Y-138234000D01*
X149782338Y-138257283D01*
X149792642Y-138277215D01*
X149794931Y-138282063D01*
X149802937Y-138297795D01*
X149815838Y-138321100D01*
X149825642Y-138338063D01*
X149840756Y-138364363D01*
X149859818Y-138398408D01*
X149879264Y-138433814D01*
X149883697Y-138442000D01*
X149899804Y-138471428D01*
X149913603Y-138495885D01*
X149922962Y-138511625D01*
X149925136Y-138514839D01*
X149932778Y-138526780D01*
X149944376Y-138547098D01*
X149950739Y-138558839D01*
X149984153Y-138621194D01*
X150013749Y-138675301D01*
X150042892Y-138727210D01*
X150074944Y-138782972D01*
X150083779Y-138798179D01*
X150104070Y-138833314D01*
X150121104Y-138863328D01*
X150133424Y-138885615D01*
X150139573Y-138897567D01*
X150140000Y-138898795D01*
X150143824Y-138906675D01*
X150154443Y-138926091D01*
X150170577Y-138954765D01*
X150190946Y-138990421D01*
X150212000Y-139026871D01*
X150235145Y-139067121D01*
X150255201Y-139102707D01*
X150270880Y-139131288D01*
X150280894Y-139150520D01*
X150284000Y-139157890D01*
X150288941Y-139169049D01*
X150294093Y-139175428D01*
X150305311Y-139190629D01*
X150314035Y-139206000D01*
X150324267Y-139225580D01*
X150331446Y-139238000D01*
X150338726Y-139250227D01*
X150352016Y-139273137D01*
X150369458Y-139303483D01*
X150389195Y-139338014D01*
X150409373Y-139373481D01*
X150428133Y-139406635D01*
X150443620Y-139434227D01*
X150445721Y-139438000D01*
X150478817Y-139496863D01*
X150505215Y-139542374D01*
X150517064Y-139562000D01*
X150528734Y-139581843D01*
X150536913Y-139597334D01*
X150537216Y-139598000D01*
X150542493Y-139607826D01*
X150554730Y-139629603D01*
X150572851Y-139661446D01*
X150595777Y-139701469D01*
X150622433Y-139747789D01*
X150651741Y-139798519D01*
X150656072Y-139806000D01*
X150686754Y-139859023D01*
X150715940Y-139909536D01*
X150742335Y-139955292D01*
X150764643Y-139994041D01*
X150781569Y-140023538D01*
X150791818Y-140041534D01*
X150792079Y-140042000D01*
X150812503Y-140078194D01*
X150828117Y-140105545D01*
X150841883Y-140129196D01*
X150856591Y-140154000D01*
X150870706Y-140178374D01*
X150882873Y-140200553D01*
X150885678Y-140206000D01*
X150894933Y-140222161D01*
X150901336Y-140230162D01*
X150908519Y-140239993D01*
X150915700Y-140254162D01*
X150924957Y-140273096D01*
X150938439Y-140298218D01*
X150953610Y-140325095D01*
X150967936Y-140349299D01*
X150978882Y-140366396D01*
X150982752Y-140371380D01*
X150990591Y-140382813D01*
X151000340Y-140401303D01*
X151000669Y-140402000D01*
X151013403Y-140426742D01*
X151026830Y-140450000D01*
X151037320Y-140467203D01*
X151049717Y-140488237D01*
X151065880Y-140516302D01*
X151087669Y-140554601D01*
X151092000Y-140562243D01*
X151105832Y-140601879D01*
X151108102Y-140649068D01*
X151099112Y-140700628D01*
X151079163Y-140753377D01*
X151072703Y-140766000D01*
X151064750Y-140780955D01*
X151051345Y-140806388D01*
X151034437Y-140838594D01*
X151017998Y-140870000D01*
X150981828Y-140938899D01*
X150950978Y-140997058D01*
X150925981Y-141043479D01*
X150907371Y-141077169D01*
X150900000Y-141090000D01*
X150889138Y-141109093D01*
X150873975Y-141136544D01*
X150857701Y-141166571D01*
X150856935Y-141168000D01*
X150827374Y-141223088D01*
X150803654Y-141267067D01*
X150784114Y-141302959D01*
X150767094Y-141333786D01*
X150750932Y-141362572D01*
X150733967Y-141392339D01*
X150726909Y-141404633D01*
X150709442Y-141435252D01*
X150695400Y-141460320D01*
X150686426Y-141476875D01*
X150683999Y-141482000D01*
X150680265Y-141489616D01*
X150670155Y-141508117D01*
X150655310Y-141534540D01*
X150641143Y-141559366D01*
X150621894Y-141592942D01*
X150605564Y-141621596D01*
X150589842Y-141649432D01*
X150572415Y-141680554D01*
X150550973Y-141719067D01*
X150534902Y-141748000D01*
X150519676Y-141775181D01*
X150500782Y-141808575D01*
X150484000Y-141838000D01*
X150465534Y-141870389D01*
X150446788Y-141903545D01*
X150433097Y-141928000D01*
X150407764Y-141973589D01*
X150387711Y-142009552D01*
X150370481Y-142040265D01*
X150353614Y-142070107D01*
X150334651Y-142103452D01*
X150326357Y-142118000D01*
X150307927Y-142150201D01*
X150291880Y-142178034D01*
X150280209Y-142198056D01*
X150275446Y-142206000D01*
X150266161Y-142222336D01*
X150258104Y-142238000D01*
X150249215Y-142254107D01*
X150243288Y-142262000D01*
X150237501Y-142270415D01*
X150226254Y-142289573D01*
X150211524Y-142316050D01*
X150203987Y-142330000D01*
X150188110Y-142359013D01*
X150166365Y-142397855D01*
X150140994Y-142442564D01*
X150114242Y-142489176D01*
X150097536Y-142518000D01*
X150072648Y-142560939D01*
X150049178Y-142601774D01*
X150028899Y-142637395D01*
X150013583Y-142664694D01*
X150006332Y-142678000D01*
X149991064Y-142706103D01*
X149975397Y-142733756D01*
X149970542Y-142742000D01*
X149956081Y-142766694D01*
X149939588Y-142795621D01*
X149933783Y-142806000D01*
X149922388Y-142826200D01*
X149905060Y-142856520D01*
X149883924Y-142893258D01*
X149861107Y-142932711D01*
X149854898Y-142943410D01*
X149834053Y-142979816D01*
X149816449Y-143011544D01*
X149803521Y-143035932D01*
X149796699Y-143050322D01*
X149796000Y-143052743D01*
X149790885Y-143062743D01*
X149789798Y-143063333D01*
X149783696Y-143070933D01*
X149771506Y-143089765D01*
X149754932Y-143117084D01*
X149735677Y-143150147D01*
X149733479Y-143154000D01*
X149713748Y-143188547D01*
X149696397Y-143218746D01*
X149683226Y-143241479D01*
X149676030Y-143253630D01*
X149675799Y-143254000D01*
X149666941Y-143269534D01*
X149656280Y-143290000D01*
X149645452Y-143310504D01*
X149636266Y-143326000D01*
X149629880Y-143336580D01*
X149617057Y-143358645D01*
X149599209Y-143389734D01*
X149577749Y-143427390D01*
X149555870Y-143466000D01*
X149532364Y-143507535D01*
X149511222Y-143544785D01*
X149493845Y-143575293D01*
X149481632Y-143596601D01*
X149476139Y-143606000D01*
X149466224Y-143622499D01*
X149451020Y-143648270D01*
X149432199Y-143680427D01*
X149411435Y-143716087D01*
X149390399Y-143752366D01*
X149370764Y-143786380D01*
X149354200Y-143815246D01*
X149342382Y-143836079D01*
X149336980Y-143845996D01*
X149336979Y-143846000D01*
X149318033Y-143880793D01*
X149296823Y-143904970D01*
X149268188Y-143923647D01*
X149249969Y-143932304D01*
X149245190Y-143934352D01*
X149240051Y-143936227D01*
X149233846Y-143937937D01*
X149225866Y-143939494D01*
X149215405Y-143940907D01*
X149201757Y-143942186D01*
X149184213Y-143943342D01*
X149162068Y-143944384D01*
X149134615Y-143945323D01*
X149101145Y-143946169D01*
X149060953Y-143946931D01*
X149013331Y-143947620D01*
X148957572Y-143948245D01*
X148892970Y-143948818D01*
X148818818Y-143949347D01*
X148734407Y-143949844D01*
X148639033Y-143950317D01*
X148531987Y-143950778D01*
X148412562Y-143951235D01*
X148280053Y-143951701D01*
X148133751Y-143952183D01*
X147972949Y-143952693D01*
X147796941Y-143953240D01*
X147774273Y-143953310D01*
X147617018Y-143953813D01*
X147460111Y-143954348D01*
X147304661Y-143954908D01*
X147151777Y-143955489D01*
X147002569Y-143956086D01*
X146858147Y-143956693D01*
X146719619Y-143957305D01*
X146588094Y-143957917D01*
X146464682Y-143958524D01*
X146350493Y-143959121D01*
X146246635Y-143959702D01*
X146154218Y-143960263D01*
X146074351Y-143960797D01*
X146008144Y-143961300D01*
X145956705Y-143961768D01*
X145952000Y-143961817D01*
X145859019Y-143962711D01*
X145780784Y-143963255D01*
X145716047Y-143963427D01*
X145663555Y-143963209D01*
X145622061Y-143962582D01*
X145590313Y-143961526D01*
X145567062Y-143960021D01*
X145551057Y-143958049D01*
X145541049Y-143955589D01*
X145540660Y-143955444D01*
X145516059Y-143941696D01*
X145491821Y-143918560D01*
X145466582Y-143884320D01*
X145438979Y-143837263D01*
X145424000Y-143808653D01*
X145407502Y-143776544D01*
X145393544Y-143749996D01*
X145383767Y-143732092D01*
X145380000Y-143726000D01*
X145374691Y-143717351D01*
X145364433Y-143698293D01*
X145351342Y-143672770D01*
X145349952Y-143670000D01*
X145334732Y-143640420D01*
X145314725Y-143602642D01*
X145292992Y-143562410D01*
X145279576Y-143538000D01*
X145260490Y-143503333D01*
X145243175Y-143471487D01*
X145229786Y-143446445D01*
X145223355Y-143434000D01*
X145211617Y-143411380D01*
X145197143Y-143384830D01*
X145193301Y-143378000D01*
X145180726Y-143355441D01*
X145162777Y-143322728D01*
X145141606Y-143283822D01*
X145119367Y-143242687D01*
X145098210Y-143203287D01*
X145086867Y-143182006D01*
X145076207Y-143163160D01*
X145068272Y-143151262D01*
X145067078Y-143150006D01*
X145061045Y-143139936D01*
X145056554Y-143128047D01*
X145048035Y-143109256D01*
X145041475Y-143100047D01*
X145032926Y-143087773D01*
X145020487Y-143066268D01*
X145009824Y-143046000D01*
X144993486Y-143014439D01*
X144976010Y-142981963D01*
X144967095Y-142966000D01*
X144932325Y-142905007D01*
X144904284Y-142855587D01*
X144881689Y-142815465D01*
X144863257Y-142782364D01*
X144852060Y-142762000D01*
X144833658Y-142728719D01*
X144812365Y-142690769D01*
X144796010Y-142662000D01*
X144777540Y-142629612D01*
X144758791Y-142596457D01*
X144745097Y-142572000D01*
X144720049Y-142526924D01*
X144700458Y-142491791D01*
X144684038Y-142462541D01*
X144668505Y-142435115D01*
X144651576Y-142405452D01*
X144640432Y-142386000D01*
X144622551Y-142354663D01*
X144607312Y-142327681D01*
X144596715Y-142308609D01*
X144593194Y-142302000D01*
X144585576Y-142288051D01*
X144573410Y-142267061D01*
X144568013Y-142258000D01*
X144553952Y-142233559D01*
X144536785Y-142202295D01*
X144522856Y-142176000D01*
X144509189Y-142151289D01*
X144497684Y-142133417D01*
X144490703Y-142126030D01*
X144490461Y-142126000D01*
X144484243Y-142119806D01*
X144484000Y-142117495D01*
X144480141Y-142108344D01*
X144469347Y-142087537D01*
X144452791Y-142057208D01*
X144431646Y-142019496D01*
X144407085Y-141976536D01*
X144397226Y-141959495D01*
X144370203Y-141912874D01*
X144344646Y-141868664D01*
X144322100Y-141829549D01*
X144304113Y-141798212D01*
X144292230Y-141777335D01*
X144290357Y-141774000D01*
X144273983Y-141744839D01*
X144257031Y-141714902D01*
X144251952Y-141706000D01*
X144237568Y-141680548D01*
X144220262Y-141649502D01*
X144209504Y-141630000D01*
X144196151Y-141606378D01*
X144185536Y-141588902D01*
X144180520Y-141582000D01*
X144173617Y-141572536D01*
X144165445Y-141558000D01*
X144143068Y-141515530D01*
X144123075Y-141480792D01*
X144108807Y-141458000D01*
X144093935Y-141433937D01*
X144081327Y-141411909D01*
X144078244Y-141406000D01*
X144067847Y-141386427D01*
X144060470Y-141374000D01*
X144053649Y-141362693D01*
X144040745Y-141340586D01*
X144023564Y-141310797D01*
X144003912Y-141276443D01*
X144002520Y-141274000D01*
X143983076Y-141240474D01*
X143966125Y-141212392D01*
X143953372Y-141192498D01*
X143946520Y-141183533D01*
X143946201Y-141183333D01*
X143940057Y-141174196D01*
X143939999Y-141173149D01*
X143936161Y-141163304D01*
X143925893Y-141143340D01*
X143911072Y-141116817D01*
X143903490Y-141103816D01*
X143883203Y-141069465D01*
X143868780Y-141044996D01*
X143857953Y-141026509D01*
X143848455Y-141010107D01*
X143838018Y-140991889D01*
X143824377Y-140967957D01*
X143818705Y-140958000D01*
X143802755Y-140930410D01*
X143789648Y-140908497D01*
X143781479Y-140895733D01*
X143780100Y-140894000D01*
X143773566Y-140884518D01*
X143765663Y-140870000D01*
X143757201Y-140853684D01*
X143743630Y-140828139D01*
X143727510Y-140798175D01*
X143723080Y-140790000D01*
X143705447Y-140755968D01*
X143688838Y-140721279D01*
X143676477Y-140692703D01*
X143675202Y-140689400D01*
X143666811Y-140665662D01*
X143663910Y-140648770D01*
X143666479Y-140631527D01*
X143674496Y-140606737D01*
X143674960Y-140605400D01*
X143682507Y-140584736D01*
X143690949Y-140564468D01*
X143701591Y-140542054D01*
X143715736Y-140514954D01*
X143734690Y-140480626D01*
X143759756Y-140436527D01*
X143777305Y-140406000D01*
X143799035Y-140368229D01*
X143817360Y-140336188D01*
X143834652Y-140305678D01*
X143853279Y-140272503D01*
X143875612Y-140232469D01*
X143894784Y-140198000D01*
X143911563Y-140167963D01*
X143928486Y-140137904D01*
X143937516Y-140122000D01*
X143949817Y-140099910D01*
X143959108Y-140082256D01*
X143961147Y-140078000D01*
X143967583Y-140065435D01*
X143979548Y-140043522D01*
X143994574Y-140016772D01*
X143996153Y-140014000D01*
X144033021Y-139948733D01*
X144066509Y-139887970D01*
X144101637Y-139822597D01*
X144101955Y-139822000D01*
X144122101Y-139784803D01*
X144144541Y-139744388D01*
X144164501Y-139709353D01*
X144164936Y-139708604D01*
X144179681Y-139682745D01*
X144190637Y-139662554D01*
X144195827Y-139651700D01*
X144195999Y-139650956D01*
X144199741Y-139642269D01*
X144209387Y-139624355D01*
X144218597Y-139608352D01*
X144232554Y-139584043D01*
X144250987Y-139551094D01*
X144270843Y-139514986D01*
X144280059Y-139498000D01*
X144301040Y-139459258D01*
X144323481Y-139418025D01*
X144343582Y-139381277D01*
X144349783Y-139370000D01*
X144366273Y-139339782D01*
X144381231Y-139311864D01*
X144391719Y-139291735D01*
X144392590Y-139290000D01*
X144404364Y-139267378D01*
X144418859Y-139240827D01*
X144422701Y-139234000D01*
X144439693Y-139203534D01*
X144463735Y-139159605D01*
X144494444Y-139102918D01*
X144531437Y-139034180D01*
X144535827Y-139026000D01*
X144552285Y-138995620D01*
X144567743Y-138967596D01*
X144579119Y-138947503D01*
X144580000Y-138946000D01*
X144590731Y-138927136D01*
X144605886Y-138899719D01*
X144622386Y-138869326D01*
X144624172Y-138866000D01*
X144661826Y-138795991D01*
X144693238Y-138737959D01*
X144718024Y-138692607D01*
X144735802Y-138660641D01*
X144737298Y-138658000D01*
X144751598Y-138632128D01*
X144764677Y-138607399D01*
X144767409Y-138602000D01*
X144777113Y-138583265D01*
X144791661Y-138556039D01*
X144808119Y-138525810D01*
X144810216Y-138522000D01*
X144828451Y-138488782D01*
X144850488Y-138448451D01*
X144872528Y-138407967D01*
X144880108Y-138394000D01*
X144898940Y-138359412D01*
X144917095Y-138326328D01*
X144931834Y-138299727D01*
X144937301Y-138290000D01*
X144951599Y-138264128D01*
X144964678Y-138239398D01*
X144967409Y-138234000D01*
X144977113Y-138215265D01*
X144991661Y-138188039D01*
X145008119Y-138157810D01*
X145010216Y-138154000D01*
X145028451Y-138120782D01*
X145050488Y-138080451D01*
X145072528Y-138039967D01*
X145080108Y-138026000D01*
X145098940Y-137991412D01*
X145117095Y-137958328D01*
X145131834Y-137931727D01*
X145137301Y-137922000D01*
X145151599Y-137896128D01*
X145164678Y-137871398D01*
X145167409Y-137866000D01*
X145177113Y-137847265D01*
X145191661Y-137820039D01*
X145208119Y-137789810D01*
X145210216Y-137786000D01*
X145228444Y-137752760D01*
X145250448Y-137712401D01*
X145272427Y-137671899D01*
X145279940Y-137658000D01*
X145299389Y-137622329D01*
X145318892Y-137587167D01*
X145335396Y-137557991D01*
X145341402Y-137547647D01*
X145353819Y-137525861D01*
X145362027Y-137510095D01*
X145363999Y-137504994D01*
X145367755Y-137496441D01*
X145377617Y-137478072D01*
X145391481Y-137453802D01*
X145391999Y-137452917D01*
X145406118Y-137427583D01*
X145416269Y-137406997D01*
X145420265Y-137395599D01*
X145420266Y-137395571D01*
X145427625Y-137378101D01*
X145446755Y-137357973D01*
X145474492Y-137338274D01*
X145484938Y-137332425D01*
X145520000Y-137314000D01*
X146152000Y-137309020D01*
X146237426Y-137308371D01*
X146337254Y-137307657D01*
X146449886Y-137306886D01*
X146573724Y-137306068D01*
X146707170Y-137305214D01*
X146848626Y-137304332D01*
X146996493Y-137303432D01*
X147149174Y-137302525D01*
X147305071Y-137301619D01*
X147462585Y-137300725D01*
X147620120Y-137299851D01*
X147776076Y-137299008D01*
X147928856Y-137298206D01*
X147992000Y-137297882D01*
X149200000Y-137291723D01*
X149240000Y-137322134D01*
G37*
%TD.AperFunction*%
%TA.AperFunction,EtchedComponent*%
G36*
X143238138Y-147892642D02*
G01*
X143259482Y-147909585D01*
X143275014Y-147923258D01*
X143280852Y-147929923D01*
X143288441Y-147941168D01*
X143293449Y-147946676D01*
X143301272Y-147957652D01*
X143314391Y-147979262D01*
X143330702Y-148007955D01*
X143341919Y-148028533D01*
X143361582Y-148065143D01*
X143381532Y-148102175D01*
X143398570Y-148133698D01*
X143404437Y-148144508D01*
X143420277Y-148173786D01*
X143439669Y-148209849D01*
X143458663Y-148245348D01*
X143460348Y-148248508D01*
X143475666Y-148276923D01*
X143488524Y-148300183D01*
X143496778Y-148314431D01*
X143498134Y-148316508D01*
X143502478Y-148323522D01*
X143510800Y-148338302D01*
X143523821Y-148362181D01*
X143542264Y-148396493D01*
X143566853Y-148442574D01*
X143591270Y-148488501D01*
X143601701Y-148507322D01*
X143609103Y-148519225D01*
X143610138Y-148520501D01*
X143615943Y-148529690D01*
X143625314Y-148547441D01*
X143627823Y-148552508D01*
X143639124Y-148574480D01*
X143654736Y-148603437D01*
X143668692Y-148628508D01*
X143688241Y-148663157D01*
X143709702Y-148701383D01*
X143722626Y-148724508D01*
X143739732Y-148755087D01*
X143756785Y-148785387D01*
X143767624Y-148804508D01*
X143780476Y-148827791D01*
X143790780Y-148847723D01*
X143793069Y-148852571D01*
X143801075Y-148868303D01*
X143813976Y-148891608D01*
X143823780Y-148908571D01*
X143838894Y-148934871D01*
X143857956Y-148968916D01*
X143877402Y-149004322D01*
X143881835Y-149012508D01*
X143897942Y-149041936D01*
X143911741Y-149066393D01*
X143921100Y-149082133D01*
X143923274Y-149085347D01*
X143930916Y-149097288D01*
X143942514Y-149117606D01*
X143948877Y-149129347D01*
X143982291Y-149191702D01*
X144011887Y-149245809D01*
X144041030Y-149297718D01*
X144073082Y-149353480D01*
X144081917Y-149368687D01*
X144102208Y-149403822D01*
X144119242Y-149433836D01*
X144131562Y-149456123D01*
X144137711Y-149468075D01*
X144138138Y-149469303D01*
X144141962Y-149477183D01*
X144152581Y-149496599D01*
X144168715Y-149525273D01*
X144189084Y-149560929D01*
X144210138Y-149597379D01*
X144233283Y-149637629D01*
X144253339Y-149673215D01*
X144269018Y-149701796D01*
X144279032Y-149721028D01*
X144282138Y-149728398D01*
X144287079Y-149739557D01*
X144292231Y-149745936D01*
X144303449Y-149761137D01*
X144312173Y-149776508D01*
X144322405Y-149796088D01*
X144329584Y-149808508D01*
X144336864Y-149820735D01*
X144350154Y-149843645D01*
X144367596Y-149873991D01*
X144387333Y-149908522D01*
X144407511Y-149943989D01*
X144426271Y-149977143D01*
X144441758Y-150004735D01*
X144443859Y-150008508D01*
X144476955Y-150067371D01*
X144503353Y-150112882D01*
X144515202Y-150132508D01*
X144526872Y-150152351D01*
X144535051Y-150167842D01*
X144535354Y-150168508D01*
X144540631Y-150178334D01*
X144552868Y-150200111D01*
X144570989Y-150231954D01*
X144593915Y-150271977D01*
X144620571Y-150318297D01*
X144649879Y-150369027D01*
X144654210Y-150376508D01*
X144684892Y-150429531D01*
X144714078Y-150480044D01*
X144740473Y-150525800D01*
X144762781Y-150564549D01*
X144779707Y-150594046D01*
X144789956Y-150612042D01*
X144790217Y-150612508D01*
X144810641Y-150648702D01*
X144826255Y-150676053D01*
X144840021Y-150699704D01*
X144854729Y-150724508D01*
X144868844Y-150748882D01*
X144881011Y-150771061D01*
X144883816Y-150776508D01*
X144893071Y-150792669D01*
X144899474Y-150800670D01*
X144906657Y-150810501D01*
X144913838Y-150824670D01*
X144923095Y-150843604D01*
X144936577Y-150868726D01*
X144951748Y-150895603D01*
X144966074Y-150919807D01*
X144977020Y-150936904D01*
X144980890Y-150941888D01*
X144988729Y-150953321D01*
X144998478Y-150971811D01*
X144998807Y-150972508D01*
X145011541Y-150997250D01*
X145024968Y-151020508D01*
X145035458Y-151037711D01*
X145047855Y-151058745D01*
X145064018Y-151086810D01*
X145085807Y-151125109D01*
X145090138Y-151132751D01*
X145103970Y-151172387D01*
X145106240Y-151219576D01*
X145097250Y-151271136D01*
X145077301Y-151323885D01*
X145070841Y-151336508D01*
X145062888Y-151351463D01*
X145049483Y-151376896D01*
X145032575Y-151409102D01*
X145016136Y-151440508D01*
X144979966Y-151509407D01*
X144949116Y-151567566D01*
X144924119Y-151613987D01*
X144905509Y-151647677D01*
X144898138Y-151660508D01*
X144887276Y-151679601D01*
X144872113Y-151707052D01*
X144855839Y-151737079D01*
X144855073Y-151738508D01*
X144825512Y-151793596D01*
X144801792Y-151837575D01*
X144782252Y-151873467D01*
X144765232Y-151904294D01*
X144749070Y-151933080D01*
X144732105Y-151962847D01*
X144725047Y-151975141D01*
X144707580Y-152005760D01*
X144693538Y-152030828D01*
X144684564Y-152047383D01*
X144682137Y-152052508D01*
X144678403Y-152060124D01*
X144668293Y-152078625D01*
X144653448Y-152105048D01*
X144639281Y-152129874D01*
X144620032Y-152163450D01*
X144603702Y-152192104D01*
X144587980Y-152219940D01*
X144570553Y-152251062D01*
X144549111Y-152289575D01*
X144533040Y-152318508D01*
X144517814Y-152345689D01*
X144498920Y-152379083D01*
X144482138Y-152408508D01*
X144463672Y-152440897D01*
X144444926Y-152474053D01*
X144431235Y-152498508D01*
X144405902Y-152544097D01*
X144385849Y-152580060D01*
X144368619Y-152610773D01*
X144351752Y-152640615D01*
X144332789Y-152673960D01*
X144324495Y-152688508D01*
X144306065Y-152720709D01*
X144290018Y-152748542D01*
X144278347Y-152768564D01*
X144273584Y-152776508D01*
X144264299Y-152792844D01*
X144256242Y-152808508D01*
X144247353Y-152824615D01*
X144241426Y-152832508D01*
X144235639Y-152840923D01*
X144224392Y-152860081D01*
X144209662Y-152886558D01*
X144202125Y-152900508D01*
X144186248Y-152929521D01*
X144164503Y-152968363D01*
X144139132Y-153013072D01*
X144112380Y-153059684D01*
X144095674Y-153088508D01*
X144070786Y-153131447D01*
X144047316Y-153172282D01*
X144027037Y-153207903D01*
X144011721Y-153235202D01*
X144004470Y-153248508D01*
X143989202Y-153276611D01*
X143973535Y-153304264D01*
X143968680Y-153312508D01*
X143954219Y-153337202D01*
X143937726Y-153366129D01*
X143931921Y-153376508D01*
X143920526Y-153396708D01*
X143903198Y-153427028D01*
X143882062Y-153463766D01*
X143859245Y-153503219D01*
X143853036Y-153513918D01*
X143832191Y-153550324D01*
X143814587Y-153582052D01*
X143801659Y-153606440D01*
X143794837Y-153620830D01*
X143794138Y-153623251D01*
X143789023Y-153633251D01*
X143787936Y-153633841D01*
X143781834Y-153641441D01*
X143769644Y-153660273D01*
X143753070Y-153687592D01*
X143733815Y-153720655D01*
X143731617Y-153724508D01*
X143711886Y-153759055D01*
X143694535Y-153789254D01*
X143681364Y-153811987D01*
X143674168Y-153824138D01*
X143673937Y-153824508D01*
X143665079Y-153840042D01*
X143654418Y-153860508D01*
X143643590Y-153881012D01*
X143634404Y-153896508D01*
X143628018Y-153907088D01*
X143615195Y-153929153D01*
X143597347Y-153960242D01*
X143575887Y-153997898D01*
X143554008Y-154036508D01*
X143530502Y-154078043D01*
X143509360Y-154115293D01*
X143491983Y-154145801D01*
X143479770Y-154167109D01*
X143474277Y-154176508D01*
X143464362Y-154193007D01*
X143449158Y-154218778D01*
X143430337Y-154250935D01*
X143409573Y-154286595D01*
X143388537Y-154322874D01*
X143368902Y-154356888D01*
X143352338Y-154385754D01*
X143340520Y-154406587D01*
X143335118Y-154416504D01*
X143335117Y-154416508D01*
X143316171Y-154451301D01*
X143294961Y-154475478D01*
X143266326Y-154494155D01*
X143248107Y-154502812D01*
X143243328Y-154504860D01*
X143238189Y-154506735D01*
X143231984Y-154508445D01*
X143224004Y-154510002D01*
X143213543Y-154511415D01*
X143199895Y-154512694D01*
X143182351Y-154513850D01*
X143160206Y-154514892D01*
X143132753Y-154515831D01*
X143099283Y-154516677D01*
X143059091Y-154517439D01*
X143011469Y-154518128D01*
X142955710Y-154518753D01*
X142891108Y-154519326D01*
X142816956Y-154519855D01*
X142732545Y-154520352D01*
X142637171Y-154520825D01*
X142530125Y-154521286D01*
X142410700Y-154521743D01*
X142278191Y-154522209D01*
X142131889Y-154522691D01*
X141971087Y-154523201D01*
X141795079Y-154523748D01*
X141772411Y-154523818D01*
X141615156Y-154524321D01*
X141458249Y-154524856D01*
X141302799Y-154525416D01*
X141149915Y-154525997D01*
X141000707Y-154526594D01*
X140856285Y-154527201D01*
X140717757Y-154527813D01*
X140586232Y-154528425D01*
X140462820Y-154529032D01*
X140348631Y-154529629D01*
X140244773Y-154530210D01*
X140152356Y-154530771D01*
X140072489Y-154531305D01*
X140006282Y-154531808D01*
X139954843Y-154532276D01*
X139950138Y-154532325D01*
X139857157Y-154533219D01*
X139778922Y-154533763D01*
X139714185Y-154533935D01*
X139661693Y-154533717D01*
X139620199Y-154533090D01*
X139588451Y-154532034D01*
X139565200Y-154530529D01*
X139549195Y-154528557D01*
X139539187Y-154526097D01*
X139538798Y-154525952D01*
X139514197Y-154512204D01*
X139489959Y-154489068D01*
X139464720Y-154454828D01*
X139437117Y-154407771D01*
X139422138Y-154379161D01*
X139405640Y-154347052D01*
X139391682Y-154320504D01*
X139381905Y-154302600D01*
X139378138Y-154296508D01*
X139372829Y-154287859D01*
X139362571Y-154268801D01*
X139349480Y-154243278D01*
X139348090Y-154240508D01*
X139332870Y-154210928D01*
X139312863Y-154173150D01*
X139291130Y-154132918D01*
X139277714Y-154108508D01*
X139258628Y-154073841D01*
X139241313Y-154041995D01*
X139227924Y-154016953D01*
X139221493Y-154004508D01*
X139209755Y-153981888D01*
X139195281Y-153955338D01*
X139191439Y-153948508D01*
X139178864Y-153925949D01*
X139160915Y-153893236D01*
X139139744Y-153854330D01*
X139117505Y-153813195D01*
X139096348Y-153773795D01*
X139085005Y-153752514D01*
X139074345Y-153733668D01*
X139066410Y-153721770D01*
X139065216Y-153720514D01*
X139059183Y-153710444D01*
X139054692Y-153698555D01*
X139046173Y-153679764D01*
X139039613Y-153670555D01*
X139031064Y-153658281D01*
X139018625Y-153636776D01*
X139007962Y-153616508D01*
X138991624Y-153584947D01*
X138974148Y-153552471D01*
X138965233Y-153536508D01*
X138930463Y-153475515D01*
X138902422Y-153426095D01*
X138879827Y-153385973D01*
X138861395Y-153352872D01*
X138850198Y-153332508D01*
X138831796Y-153299227D01*
X138810503Y-153261277D01*
X138794148Y-153232508D01*
X138775678Y-153200120D01*
X138756929Y-153166965D01*
X138743235Y-153142508D01*
X138718187Y-153097432D01*
X138698596Y-153062299D01*
X138682176Y-153033049D01*
X138666643Y-153005623D01*
X138649714Y-152975960D01*
X138638570Y-152956508D01*
X138620689Y-152925171D01*
X138605450Y-152898189D01*
X138594853Y-152879117D01*
X138591332Y-152872508D01*
X138583714Y-152858559D01*
X138571548Y-152837569D01*
X138566151Y-152828508D01*
X138552090Y-152804067D01*
X138534923Y-152772803D01*
X138520994Y-152746508D01*
X138507327Y-152721797D01*
X138495822Y-152703925D01*
X138488841Y-152696538D01*
X138488599Y-152696508D01*
X138482381Y-152690314D01*
X138482138Y-152688003D01*
X138478279Y-152678852D01*
X138467485Y-152658045D01*
X138450929Y-152627716D01*
X138429784Y-152590004D01*
X138405223Y-152547044D01*
X138395364Y-152530003D01*
X138368341Y-152483382D01*
X138342784Y-152439172D01*
X138320238Y-152400057D01*
X138302251Y-152368720D01*
X138290368Y-152347843D01*
X138288495Y-152344508D01*
X138272121Y-152315347D01*
X138255169Y-152285410D01*
X138250090Y-152276508D01*
X138235706Y-152251056D01*
X138218400Y-152220010D01*
X138207642Y-152200508D01*
X138194289Y-152176886D01*
X138183674Y-152159410D01*
X138178658Y-152152508D01*
X138171755Y-152143044D01*
X138163583Y-152128508D01*
X138141206Y-152086038D01*
X138121213Y-152051300D01*
X138106945Y-152028508D01*
X138092073Y-152004445D01*
X138079465Y-151982417D01*
X138076382Y-151976508D01*
X138065985Y-151956935D01*
X138058608Y-151944508D01*
X138051787Y-151933201D01*
X138038883Y-151911094D01*
X138021702Y-151881305D01*
X138002050Y-151846951D01*
X138000658Y-151844508D01*
X137981214Y-151810982D01*
X137964263Y-151782900D01*
X137951510Y-151763006D01*
X137944658Y-151754041D01*
X137944339Y-151753841D01*
X137938195Y-151744704D01*
X137938137Y-151743657D01*
X137934299Y-151733812D01*
X137924031Y-151713848D01*
X137909210Y-151687325D01*
X137901628Y-151674324D01*
X137881341Y-151639973D01*
X137866918Y-151615504D01*
X137856091Y-151597017D01*
X137846593Y-151580615D01*
X137836156Y-151562397D01*
X137822515Y-151538465D01*
X137816843Y-151528508D01*
X137800893Y-151500918D01*
X137787786Y-151479005D01*
X137779617Y-151466241D01*
X137778238Y-151464508D01*
X137771704Y-151455026D01*
X137763801Y-151440508D01*
X137755339Y-151424192D01*
X137741768Y-151398647D01*
X137725648Y-151368683D01*
X137721218Y-151360508D01*
X137703585Y-151326476D01*
X137686976Y-151291787D01*
X137674615Y-151263211D01*
X137673340Y-151259908D01*
X137664949Y-151236170D01*
X137662048Y-151219278D01*
X137664617Y-151202035D01*
X137672634Y-151177245D01*
X137673098Y-151175908D01*
X137680645Y-151155244D01*
X137689087Y-151134976D01*
X137699729Y-151112562D01*
X137713874Y-151085462D01*
X137732828Y-151051134D01*
X137757894Y-151007035D01*
X137775443Y-150976508D01*
X137797173Y-150938737D01*
X137815498Y-150906696D01*
X137832790Y-150876186D01*
X137851417Y-150843011D01*
X137873750Y-150802977D01*
X137892922Y-150768508D01*
X137909701Y-150738471D01*
X137926624Y-150708412D01*
X137935654Y-150692508D01*
X137947955Y-150670418D01*
X137957246Y-150652764D01*
X137959285Y-150648508D01*
X137965721Y-150635943D01*
X137977686Y-150614030D01*
X137992712Y-150587280D01*
X137994291Y-150584508D01*
X138031159Y-150519241D01*
X138064647Y-150458478D01*
X138099775Y-150393105D01*
X138100093Y-150392508D01*
X138120239Y-150355311D01*
X138142679Y-150314896D01*
X138162639Y-150279861D01*
X138163074Y-150279112D01*
X138177819Y-150253253D01*
X138188775Y-150233062D01*
X138193965Y-150222208D01*
X138194137Y-150221464D01*
X138197879Y-150212777D01*
X138207525Y-150194863D01*
X138216735Y-150178860D01*
X138230692Y-150154551D01*
X138249125Y-150121602D01*
X138268981Y-150085494D01*
X138278197Y-150068508D01*
X138299178Y-150029766D01*
X138321619Y-149988533D01*
X138341720Y-149951785D01*
X138347921Y-149940508D01*
X138364411Y-149910290D01*
X138379369Y-149882372D01*
X138389857Y-149862243D01*
X138390728Y-149860508D01*
X138402502Y-149837886D01*
X138416997Y-149811335D01*
X138420839Y-149804508D01*
X138437831Y-149774042D01*
X138461873Y-149730113D01*
X138492582Y-149673426D01*
X138529575Y-149604688D01*
X138533965Y-149596508D01*
X138550423Y-149566128D01*
X138565881Y-149538104D01*
X138577257Y-149518011D01*
X138578138Y-149516508D01*
X138588869Y-149497644D01*
X138604024Y-149470227D01*
X138620524Y-149439834D01*
X138622310Y-149436508D01*
X138659964Y-149366499D01*
X138691376Y-149308467D01*
X138716162Y-149263115D01*
X138733940Y-149231149D01*
X138735436Y-149228508D01*
X138749736Y-149202636D01*
X138762815Y-149177907D01*
X138765547Y-149172508D01*
X138775251Y-149153773D01*
X138789799Y-149126547D01*
X138806257Y-149096318D01*
X138808354Y-149092508D01*
X138826589Y-149059290D01*
X138848626Y-149018959D01*
X138870666Y-148978475D01*
X138878246Y-148964508D01*
X138897078Y-148929920D01*
X138915233Y-148896836D01*
X138929972Y-148870235D01*
X138935439Y-148860508D01*
X138949737Y-148834636D01*
X138962816Y-148809906D01*
X138965547Y-148804508D01*
X138975251Y-148785773D01*
X138989799Y-148758547D01*
X139006257Y-148728318D01*
X139008354Y-148724508D01*
X139026589Y-148691290D01*
X139048626Y-148650959D01*
X139070666Y-148610475D01*
X139078246Y-148596508D01*
X139097078Y-148561920D01*
X139115233Y-148528836D01*
X139129972Y-148502235D01*
X139135439Y-148492508D01*
X139149737Y-148466636D01*
X139162816Y-148441906D01*
X139165547Y-148436508D01*
X139175251Y-148417773D01*
X139189799Y-148390547D01*
X139206257Y-148360318D01*
X139208354Y-148356508D01*
X139226582Y-148323268D01*
X139248586Y-148282909D01*
X139270565Y-148242407D01*
X139278078Y-148228508D01*
X139297527Y-148192837D01*
X139317030Y-148157675D01*
X139333534Y-148128499D01*
X139339540Y-148118155D01*
X139351957Y-148096369D01*
X139360165Y-148080603D01*
X139362137Y-148075502D01*
X139365893Y-148066949D01*
X139375755Y-148048580D01*
X139389619Y-148024310D01*
X139390137Y-148023425D01*
X139404256Y-147998091D01*
X139414407Y-147977505D01*
X139418403Y-147966107D01*
X139418404Y-147966079D01*
X139425763Y-147948609D01*
X139444893Y-147928481D01*
X139472630Y-147908782D01*
X139483076Y-147902933D01*
X139518138Y-147884508D01*
X140150138Y-147879528D01*
X140235564Y-147878879D01*
X140335392Y-147878165D01*
X140448024Y-147877394D01*
X140571862Y-147876576D01*
X140705308Y-147875722D01*
X140846764Y-147874840D01*
X140994631Y-147873940D01*
X141147312Y-147873033D01*
X141303209Y-147872127D01*
X141460723Y-147871233D01*
X141618258Y-147870359D01*
X141774214Y-147869516D01*
X141926994Y-147868714D01*
X141990138Y-147868390D01*
X143198138Y-147862231D01*
X143238138Y-147892642D01*
G37*
%TD.AperFunction*%
%TA.AperFunction,EtchedComponent*%
G36*
X130976769Y-147994908D02*
G01*
X130998113Y-148011851D01*
X131013645Y-148025524D01*
X131019483Y-148032189D01*
X131027072Y-148043434D01*
X131032080Y-148048942D01*
X131039903Y-148059918D01*
X131053022Y-148081528D01*
X131069333Y-148110221D01*
X131080550Y-148130799D01*
X131100213Y-148167409D01*
X131120163Y-148204441D01*
X131137201Y-148235964D01*
X131143068Y-148246774D01*
X131158908Y-148276052D01*
X131178300Y-148312115D01*
X131197294Y-148347614D01*
X131198979Y-148350774D01*
X131214297Y-148379189D01*
X131227155Y-148402449D01*
X131235409Y-148416697D01*
X131236765Y-148418774D01*
X131241109Y-148425788D01*
X131249431Y-148440568D01*
X131262452Y-148464447D01*
X131280895Y-148498759D01*
X131305484Y-148544840D01*
X131329901Y-148590767D01*
X131340332Y-148609588D01*
X131347734Y-148621491D01*
X131348769Y-148622767D01*
X131354574Y-148631956D01*
X131363945Y-148649707D01*
X131366454Y-148654774D01*
X131377755Y-148676746D01*
X131393367Y-148705703D01*
X131407323Y-148730774D01*
X131426872Y-148765423D01*
X131448333Y-148803649D01*
X131461257Y-148826774D01*
X131478363Y-148857353D01*
X131495416Y-148887653D01*
X131506255Y-148906774D01*
X131519107Y-148930057D01*
X131529411Y-148949989D01*
X131531700Y-148954837D01*
X131539706Y-148970569D01*
X131552607Y-148993874D01*
X131562411Y-149010837D01*
X131577525Y-149037137D01*
X131596587Y-149071182D01*
X131616033Y-149106588D01*
X131620466Y-149114774D01*
X131636573Y-149144202D01*
X131650372Y-149168659D01*
X131659731Y-149184399D01*
X131661905Y-149187613D01*
X131669547Y-149199554D01*
X131681145Y-149219872D01*
X131687508Y-149231613D01*
X131720922Y-149293968D01*
X131750518Y-149348075D01*
X131779661Y-149399984D01*
X131811713Y-149455746D01*
X131820548Y-149470953D01*
X131840839Y-149506088D01*
X131857873Y-149536102D01*
X131870193Y-149558389D01*
X131876342Y-149570341D01*
X131876769Y-149571569D01*
X131880593Y-149579449D01*
X131891212Y-149598865D01*
X131907346Y-149627539D01*
X131927715Y-149663195D01*
X131948769Y-149699645D01*
X131971914Y-149739895D01*
X131991970Y-149775481D01*
X132007649Y-149804062D01*
X132017663Y-149823294D01*
X132020769Y-149830664D01*
X132025710Y-149841823D01*
X132030862Y-149848202D01*
X132042080Y-149863403D01*
X132050804Y-149878774D01*
X132061036Y-149898354D01*
X132068215Y-149910774D01*
X132075495Y-149923001D01*
X132088785Y-149945911D01*
X132106227Y-149976257D01*
X132125964Y-150010788D01*
X132146142Y-150046255D01*
X132164902Y-150079409D01*
X132180389Y-150107001D01*
X132182490Y-150110774D01*
X132215586Y-150169637D01*
X132241984Y-150215148D01*
X132253833Y-150234774D01*
X132265503Y-150254617D01*
X132273682Y-150270108D01*
X132273985Y-150270774D01*
X132279262Y-150280600D01*
X132291499Y-150302377D01*
X132309620Y-150334220D01*
X132332546Y-150374243D01*
X132359202Y-150420563D01*
X132388510Y-150471293D01*
X132392841Y-150478774D01*
X132423523Y-150531797D01*
X132452709Y-150582310D01*
X132479104Y-150628066D01*
X132501412Y-150666815D01*
X132518338Y-150696312D01*
X132528587Y-150714308D01*
X132528848Y-150714774D01*
X132549272Y-150750968D01*
X132564886Y-150778319D01*
X132578652Y-150801970D01*
X132593360Y-150826774D01*
X132607475Y-150851148D01*
X132619642Y-150873327D01*
X132622447Y-150878774D01*
X132631702Y-150894935D01*
X132638105Y-150902936D01*
X132645288Y-150912767D01*
X132652469Y-150926936D01*
X132661726Y-150945870D01*
X132675208Y-150970992D01*
X132690379Y-150997869D01*
X132704705Y-151022073D01*
X132715651Y-151039170D01*
X132719521Y-151044154D01*
X132727360Y-151055587D01*
X132737109Y-151074077D01*
X132737438Y-151074774D01*
X132750172Y-151099516D01*
X132763599Y-151122774D01*
X132774089Y-151139977D01*
X132786486Y-151161011D01*
X132802649Y-151189076D01*
X132824438Y-151227375D01*
X132828769Y-151235017D01*
X132842601Y-151274653D01*
X132844871Y-151321842D01*
X132835881Y-151373402D01*
X132815932Y-151426151D01*
X132809472Y-151438774D01*
X132801519Y-151453729D01*
X132788114Y-151479162D01*
X132771206Y-151511368D01*
X132754767Y-151542774D01*
X132718597Y-151611673D01*
X132687747Y-151669832D01*
X132662750Y-151716253D01*
X132644140Y-151749943D01*
X132636769Y-151762774D01*
X132625907Y-151781867D01*
X132610744Y-151809318D01*
X132594470Y-151839345D01*
X132593704Y-151840774D01*
X132564143Y-151895862D01*
X132540423Y-151939841D01*
X132520883Y-151975733D01*
X132503863Y-152006560D01*
X132487701Y-152035346D01*
X132470736Y-152065113D01*
X132463678Y-152077407D01*
X132446211Y-152108026D01*
X132432169Y-152133094D01*
X132423195Y-152149649D01*
X132420768Y-152154774D01*
X132417034Y-152162390D01*
X132406924Y-152180891D01*
X132392079Y-152207314D01*
X132377912Y-152232140D01*
X132358663Y-152265716D01*
X132342333Y-152294370D01*
X132326611Y-152322206D01*
X132309184Y-152353328D01*
X132287742Y-152391841D01*
X132271671Y-152420774D01*
X132256445Y-152447955D01*
X132237551Y-152481349D01*
X132220769Y-152510774D01*
X132202303Y-152543163D01*
X132183557Y-152576319D01*
X132169866Y-152600774D01*
X132144533Y-152646363D01*
X132124480Y-152682326D01*
X132107250Y-152713039D01*
X132090383Y-152742881D01*
X132071420Y-152776226D01*
X132063126Y-152790774D01*
X132044696Y-152822975D01*
X132028649Y-152850808D01*
X132016978Y-152870830D01*
X132012215Y-152878774D01*
X132002930Y-152895110D01*
X131994873Y-152910774D01*
X131985984Y-152926881D01*
X131980057Y-152934774D01*
X131974270Y-152943189D01*
X131963023Y-152962347D01*
X131948293Y-152988824D01*
X131940756Y-153002774D01*
X131924879Y-153031787D01*
X131903134Y-153070629D01*
X131877763Y-153115338D01*
X131851011Y-153161950D01*
X131834305Y-153190774D01*
X131809417Y-153233713D01*
X131785947Y-153274548D01*
X131765668Y-153310169D01*
X131750352Y-153337468D01*
X131743101Y-153350774D01*
X131727833Y-153378877D01*
X131712166Y-153406530D01*
X131707311Y-153414774D01*
X131692850Y-153439468D01*
X131676357Y-153468395D01*
X131670552Y-153478774D01*
X131659157Y-153498974D01*
X131641829Y-153529294D01*
X131620693Y-153566032D01*
X131597876Y-153605485D01*
X131591667Y-153616184D01*
X131570822Y-153652590D01*
X131553218Y-153684318D01*
X131540290Y-153708706D01*
X131533468Y-153723096D01*
X131532769Y-153725517D01*
X131527654Y-153735517D01*
X131526567Y-153736107D01*
X131520465Y-153743707D01*
X131508275Y-153762539D01*
X131491701Y-153789858D01*
X131472446Y-153822921D01*
X131470248Y-153826774D01*
X131450517Y-153861321D01*
X131433166Y-153891520D01*
X131419995Y-153914253D01*
X131412799Y-153926404D01*
X131412568Y-153926774D01*
X131403710Y-153942308D01*
X131393049Y-153962774D01*
X131382221Y-153983278D01*
X131373035Y-153998774D01*
X131366649Y-154009354D01*
X131353826Y-154031419D01*
X131335978Y-154062508D01*
X131314518Y-154100164D01*
X131292639Y-154138774D01*
X131269133Y-154180309D01*
X131247991Y-154217559D01*
X131230614Y-154248067D01*
X131218401Y-154269375D01*
X131212908Y-154278774D01*
X131202993Y-154295273D01*
X131187789Y-154321044D01*
X131168968Y-154353201D01*
X131148204Y-154388861D01*
X131127168Y-154425140D01*
X131107533Y-154459154D01*
X131090969Y-154488020D01*
X131079151Y-154508853D01*
X131073749Y-154518770D01*
X131073748Y-154518774D01*
X131054802Y-154553567D01*
X131033592Y-154577744D01*
X131004957Y-154596421D01*
X130986738Y-154605078D01*
X130981959Y-154607126D01*
X130976820Y-154609001D01*
X130970615Y-154610711D01*
X130962635Y-154612268D01*
X130952174Y-154613681D01*
X130938526Y-154614960D01*
X130920982Y-154616116D01*
X130898837Y-154617158D01*
X130871384Y-154618097D01*
X130837914Y-154618943D01*
X130797722Y-154619705D01*
X130750100Y-154620394D01*
X130694341Y-154621019D01*
X130629739Y-154621592D01*
X130555587Y-154622121D01*
X130471176Y-154622618D01*
X130375802Y-154623091D01*
X130268756Y-154623552D01*
X130149331Y-154624009D01*
X130016822Y-154624475D01*
X129870520Y-154624957D01*
X129709718Y-154625467D01*
X129533710Y-154626014D01*
X129511042Y-154626084D01*
X129353787Y-154626587D01*
X129196880Y-154627122D01*
X129041430Y-154627682D01*
X128888546Y-154628263D01*
X128739338Y-154628860D01*
X128594916Y-154629467D01*
X128456388Y-154630079D01*
X128324863Y-154630691D01*
X128201451Y-154631298D01*
X128087262Y-154631895D01*
X127983404Y-154632476D01*
X127890987Y-154633037D01*
X127811120Y-154633571D01*
X127744913Y-154634074D01*
X127693474Y-154634542D01*
X127688769Y-154634591D01*
X127595788Y-154635485D01*
X127517553Y-154636029D01*
X127452816Y-154636201D01*
X127400324Y-154635983D01*
X127358830Y-154635356D01*
X127327082Y-154634300D01*
X127303831Y-154632795D01*
X127287826Y-154630823D01*
X127277818Y-154628363D01*
X127277429Y-154628218D01*
X127252828Y-154614470D01*
X127228590Y-154591334D01*
X127203351Y-154557094D01*
X127175748Y-154510037D01*
X127160769Y-154481427D01*
X127144271Y-154449318D01*
X127130313Y-154422770D01*
X127120536Y-154404866D01*
X127116769Y-154398774D01*
X127111460Y-154390125D01*
X127101202Y-154371067D01*
X127088111Y-154345544D01*
X127086721Y-154342774D01*
X127071501Y-154313194D01*
X127051494Y-154275416D01*
X127029761Y-154235184D01*
X127016345Y-154210774D01*
X126997259Y-154176107D01*
X126979944Y-154144261D01*
X126966555Y-154119219D01*
X126960124Y-154106774D01*
X126948386Y-154084154D01*
X126933912Y-154057604D01*
X126930070Y-154050774D01*
X126917495Y-154028215D01*
X126899546Y-153995502D01*
X126878375Y-153956596D01*
X126856136Y-153915461D01*
X126834979Y-153876061D01*
X126823636Y-153854780D01*
X126812976Y-153835934D01*
X126805041Y-153824036D01*
X126803847Y-153822780D01*
X126797814Y-153812710D01*
X126793323Y-153800821D01*
X126784804Y-153782030D01*
X126778244Y-153772821D01*
X126769695Y-153760547D01*
X126757256Y-153739042D01*
X126746593Y-153718774D01*
X126730255Y-153687213D01*
X126712779Y-153654737D01*
X126703864Y-153638774D01*
X126669094Y-153577781D01*
X126641053Y-153528361D01*
X126618458Y-153488239D01*
X126600026Y-153455138D01*
X126588829Y-153434774D01*
X126570427Y-153401493D01*
X126549134Y-153363543D01*
X126532779Y-153334774D01*
X126514309Y-153302386D01*
X126495560Y-153269231D01*
X126481866Y-153244774D01*
X126456818Y-153199698D01*
X126437227Y-153164565D01*
X126420807Y-153135315D01*
X126405274Y-153107889D01*
X126388345Y-153078226D01*
X126377201Y-153058774D01*
X126359320Y-153027437D01*
X126344081Y-153000455D01*
X126333484Y-152981383D01*
X126329963Y-152974774D01*
X126322345Y-152960825D01*
X126310179Y-152939835D01*
X126304782Y-152930774D01*
X126290721Y-152906333D01*
X126273554Y-152875069D01*
X126259625Y-152848774D01*
X126245958Y-152824063D01*
X126234453Y-152806191D01*
X126227472Y-152798804D01*
X126227230Y-152798774D01*
X126221012Y-152792580D01*
X126220769Y-152790269D01*
X126216910Y-152781118D01*
X126206116Y-152760311D01*
X126189560Y-152729982D01*
X126168415Y-152692270D01*
X126143854Y-152649310D01*
X126133995Y-152632269D01*
X126106972Y-152585648D01*
X126081415Y-152541438D01*
X126058869Y-152502323D01*
X126040882Y-152470986D01*
X126028999Y-152450109D01*
X126027126Y-152446774D01*
X126010752Y-152417613D01*
X125993800Y-152387676D01*
X125988721Y-152378774D01*
X125974337Y-152353322D01*
X125957031Y-152322276D01*
X125946273Y-152302774D01*
X125932920Y-152279152D01*
X125922305Y-152261676D01*
X125917289Y-152254774D01*
X125910386Y-152245310D01*
X125902214Y-152230774D01*
X125879837Y-152188304D01*
X125859844Y-152153566D01*
X125845576Y-152130774D01*
X125830704Y-152106711D01*
X125818096Y-152084683D01*
X125815013Y-152078774D01*
X125804616Y-152059201D01*
X125797239Y-152046774D01*
X125790418Y-152035467D01*
X125777514Y-152013360D01*
X125760333Y-151983571D01*
X125740681Y-151949217D01*
X125739289Y-151946774D01*
X125719845Y-151913248D01*
X125702894Y-151885166D01*
X125690141Y-151865272D01*
X125683289Y-151856307D01*
X125682970Y-151856107D01*
X125676826Y-151846970D01*
X125676768Y-151845923D01*
X125672930Y-151836078D01*
X125662662Y-151816114D01*
X125647841Y-151789591D01*
X125640259Y-151776590D01*
X125619972Y-151742239D01*
X125605549Y-151717770D01*
X125594722Y-151699283D01*
X125585224Y-151682881D01*
X125574787Y-151664663D01*
X125561146Y-151640731D01*
X125555474Y-151630774D01*
X125539524Y-151603184D01*
X125526417Y-151581271D01*
X125518248Y-151568507D01*
X125516869Y-151566774D01*
X125510335Y-151557292D01*
X125502432Y-151542774D01*
X125493970Y-151526458D01*
X125480399Y-151500913D01*
X125464279Y-151470949D01*
X125459849Y-151462774D01*
X125442216Y-151428742D01*
X125425607Y-151394053D01*
X125413246Y-151365477D01*
X125411971Y-151362174D01*
X125403580Y-151338436D01*
X125400679Y-151321544D01*
X125403248Y-151304301D01*
X125411265Y-151279511D01*
X125411729Y-151278174D01*
X125419276Y-151257510D01*
X125427718Y-151237242D01*
X125438360Y-151214828D01*
X125452505Y-151187728D01*
X125471459Y-151153400D01*
X125496525Y-151109301D01*
X125514074Y-151078774D01*
X125535804Y-151041003D01*
X125554129Y-151008962D01*
X125571421Y-150978452D01*
X125590048Y-150945277D01*
X125612381Y-150905243D01*
X125631553Y-150870774D01*
X125648332Y-150840737D01*
X125665255Y-150810678D01*
X125674285Y-150794774D01*
X125686586Y-150772684D01*
X125695877Y-150755030D01*
X125697916Y-150750774D01*
X125704352Y-150738209D01*
X125716317Y-150716296D01*
X125731343Y-150689546D01*
X125732922Y-150686774D01*
X125769790Y-150621507D01*
X125803278Y-150560744D01*
X125838406Y-150495371D01*
X125838724Y-150494774D01*
X125858870Y-150457577D01*
X125881310Y-150417162D01*
X125901270Y-150382127D01*
X125901705Y-150381378D01*
X125916450Y-150355519D01*
X125927406Y-150335328D01*
X125932596Y-150324474D01*
X125932768Y-150323730D01*
X125936510Y-150315043D01*
X125946156Y-150297129D01*
X125955366Y-150281126D01*
X125969323Y-150256817D01*
X125987756Y-150223868D01*
X126007612Y-150187760D01*
X126016828Y-150170774D01*
X126037809Y-150132032D01*
X126060250Y-150090799D01*
X126080351Y-150054051D01*
X126086552Y-150042774D01*
X126103042Y-150012556D01*
X126118000Y-149984638D01*
X126128488Y-149964509D01*
X126129359Y-149962774D01*
X126141133Y-149940152D01*
X126155628Y-149913601D01*
X126159470Y-149906774D01*
X126176462Y-149876308D01*
X126200504Y-149832379D01*
X126231213Y-149775692D01*
X126268206Y-149706954D01*
X126272596Y-149698774D01*
X126289054Y-149668394D01*
X126304512Y-149640370D01*
X126315888Y-149620277D01*
X126316769Y-149618774D01*
X126327500Y-149599910D01*
X126342655Y-149572493D01*
X126359155Y-149542100D01*
X126360941Y-149538774D01*
X126398595Y-149468765D01*
X126430007Y-149410733D01*
X126454793Y-149365381D01*
X126472571Y-149333415D01*
X126474067Y-149330774D01*
X126488367Y-149304902D01*
X126501446Y-149280173D01*
X126504178Y-149274774D01*
X126513882Y-149256039D01*
X126528430Y-149228813D01*
X126544888Y-149198584D01*
X126546985Y-149194774D01*
X126565220Y-149161556D01*
X126587257Y-149121225D01*
X126609297Y-149080741D01*
X126616877Y-149066774D01*
X126635709Y-149032186D01*
X126653864Y-148999102D01*
X126668603Y-148972501D01*
X126674070Y-148962774D01*
X126688368Y-148936902D01*
X126701447Y-148912172D01*
X126704178Y-148906774D01*
X126713882Y-148888039D01*
X126728430Y-148860813D01*
X126744888Y-148830584D01*
X126746985Y-148826774D01*
X126765220Y-148793556D01*
X126787257Y-148753225D01*
X126809297Y-148712741D01*
X126816877Y-148698774D01*
X126835709Y-148664186D01*
X126853864Y-148631102D01*
X126868603Y-148604501D01*
X126874070Y-148594774D01*
X126888368Y-148568902D01*
X126901447Y-148544172D01*
X126904178Y-148538774D01*
X126913882Y-148520039D01*
X126928430Y-148492813D01*
X126944888Y-148462584D01*
X126946985Y-148458774D01*
X126965213Y-148425534D01*
X126987217Y-148385175D01*
X127009196Y-148344673D01*
X127016709Y-148330774D01*
X127036158Y-148295103D01*
X127055661Y-148259941D01*
X127072165Y-148230765D01*
X127078171Y-148220421D01*
X127090588Y-148198635D01*
X127098796Y-148182869D01*
X127100768Y-148177768D01*
X127104524Y-148169215D01*
X127114386Y-148150846D01*
X127128250Y-148126576D01*
X127128768Y-148125691D01*
X127142887Y-148100357D01*
X127153038Y-148079771D01*
X127157034Y-148068373D01*
X127157035Y-148068345D01*
X127164394Y-148050875D01*
X127183524Y-148030747D01*
X127211261Y-148011048D01*
X127221707Y-148005199D01*
X127256769Y-147986774D01*
X127888769Y-147981794D01*
X127974195Y-147981145D01*
X128074023Y-147980431D01*
X128186655Y-147979660D01*
X128310493Y-147978842D01*
X128443939Y-147977988D01*
X128585395Y-147977106D01*
X128733262Y-147976206D01*
X128885943Y-147975299D01*
X129041840Y-147974393D01*
X129199354Y-147973499D01*
X129356889Y-147972625D01*
X129512845Y-147971782D01*
X129665625Y-147970980D01*
X129728769Y-147970656D01*
X130936769Y-147964497D01*
X130976769Y-147994908D01*
G37*
%TD.AperFunction*%
%TA.AperFunction,EtchedComponent*%
G36*
X149353994Y-151544559D02*
G01*
X149375338Y-151561502D01*
X149390870Y-151575175D01*
X149396708Y-151581840D01*
X149404297Y-151593085D01*
X149409305Y-151598593D01*
X149417128Y-151609569D01*
X149430247Y-151631179D01*
X149446558Y-151659872D01*
X149457775Y-151680450D01*
X149477438Y-151717060D01*
X149497388Y-151754092D01*
X149514426Y-151785615D01*
X149520293Y-151796425D01*
X149536133Y-151825703D01*
X149555525Y-151861766D01*
X149574519Y-151897265D01*
X149576204Y-151900425D01*
X149591522Y-151928840D01*
X149604380Y-151952100D01*
X149612634Y-151966348D01*
X149613990Y-151968425D01*
X149618334Y-151975439D01*
X149626656Y-151990219D01*
X149639677Y-152014098D01*
X149658120Y-152048410D01*
X149682709Y-152094491D01*
X149707126Y-152140418D01*
X149717557Y-152159239D01*
X149724959Y-152171142D01*
X149725994Y-152172418D01*
X149731799Y-152181607D01*
X149741170Y-152199358D01*
X149743679Y-152204425D01*
X149754980Y-152226397D01*
X149770592Y-152255354D01*
X149784548Y-152280425D01*
X149804097Y-152315074D01*
X149825558Y-152353300D01*
X149838482Y-152376425D01*
X149855588Y-152407004D01*
X149872641Y-152437304D01*
X149883480Y-152456425D01*
X149896332Y-152479708D01*
X149906636Y-152499640D01*
X149908925Y-152504488D01*
X149916931Y-152520220D01*
X149929832Y-152543525D01*
X149939636Y-152560488D01*
X149954750Y-152586788D01*
X149973812Y-152620833D01*
X149993258Y-152656239D01*
X149997691Y-152664425D01*
X150013798Y-152693853D01*
X150027597Y-152718310D01*
X150036956Y-152734050D01*
X150039130Y-152737264D01*
X150046772Y-152749205D01*
X150058370Y-152769523D01*
X150064733Y-152781264D01*
X150098147Y-152843619D01*
X150127743Y-152897726D01*
X150156886Y-152949635D01*
X150188938Y-153005397D01*
X150197773Y-153020604D01*
X150218064Y-153055739D01*
X150235098Y-153085753D01*
X150247418Y-153108040D01*
X150253567Y-153119992D01*
X150253994Y-153121220D01*
X150257818Y-153129100D01*
X150268437Y-153148516D01*
X150284571Y-153177190D01*
X150304940Y-153212846D01*
X150325994Y-153249296D01*
X150349139Y-153289546D01*
X150369195Y-153325132D01*
X150384874Y-153353713D01*
X150394888Y-153372945D01*
X150397994Y-153380315D01*
X150402935Y-153391474D01*
X150408087Y-153397853D01*
X150419305Y-153413054D01*
X150428029Y-153428425D01*
X150438261Y-153448005D01*
X150445440Y-153460425D01*
X150452720Y-153472652D01*
X150466010Y-153495562D01*
X150483452Y-153525908D01*
X150503189Y-153560439D01*
X150523367Y-153595906D01*
X150542127Y-153629060D01*
X150557614Y-153656652D01*
X150559715Y-153660425D01*
X150592811Y-153719288D01*
X150619209Y-153764799D01*
X150631058Y-153784425D01*
X150642728Y-153804268D01*
X150650907Y-153819759D01*
X150651210Y-153820425D01*
X150656487Y-153830251D01*
X150668724Y-153852028D01*
X150686845Y-153883871D01*
X150709771Y-153923894D01*
X150736427Y-153970214D01*
X150765735Y-154020944D01*
X150770066Y-154028425D01*
X150800748Y-154081448D01*
X150829934Y-154131961D01*
X150856329Y-154177717D01*
X150878637Y-154216466D01*
X150895563Y-154245963D01*
X150905812Y-154263959D01*
X150906073Y-154264425D01*
X150926497Y-154300619D01*
X150942111Y-154327970D01*
X150955877Y-154351621D01*
X150970585Y-154376425D01*
X150984700Y-154400799D01*
X150996867Y-154422978D01*
X150999672Y-154428425D01*
X151008927Y-154444586D01*
X151015330Y-154452587D01*
X151022513Y-154462418D01*
X151029694Y-154476587D01*
X151038951Y-154495521D01*
X151052433Y-154520643D01*
X151067604Y-154547520D01*
X151081930Y-154571724D01*
X151092876Y-154588821D01*
X151096746Y-154593805D01*
X151104585Y-154605238D01*
X151114334Y-154623728D01*
X151114663Y-154624425D01*
X151127397Y-154649167D01*
X151140824Y-154672425D01*
X151151314Y-154689628D01*
X151163711Y-154710662D01*
X151179874Y-154738727D01*
X151201663Y-154777026D01*
X151205994Y-154784668D01*
X151219826Y-154824304D01*
X151222096Y-154871493D01*
X151213106Y-154923053D01*
X151193157Y-154975802D01*
X151186697Y-154988425D01*
X151178744Y-155003380D01*
X151165339Y-155028813D01*
X151148431Y-155061019D01*
X151131992Y-155092425D01*
X151095822Y-155161324D01*
X151064972Y-155219483D01*
X151039975Y-155265904D01*
X151021365Y-155299594D01*
X151013994Y-155312425D01*
X151003132Y-155331518D01*
X150987969Y-155358969D01*
X150971695Y-155388996D01*
X150970929Y-155390425D01*
X150941368Y-155445513D01*
X150917648Y-155489492D01*
X150898108Y-155525384D01*
X150881088Y-155556211D01*
X150864926Y-155584997D01*
X150847961Y-155614764D01*
X150840903Y-155627058D01*
X150823436Y-155657677D01*
X150809394Y-155682745D01*
X150800420Y-155699300D01*
X150797993Y-155704425D01*
X150794259Y-155712041D01*
X150784149Y-155730542D01*
X150769304Y-155756965D01*
X150755137Y-155781791D01*
X150735888Y-155815367D01*
X150719558Y-155844021D01*
X150703836Y-155871857D01*
X150686409Y-155902979D01*
X150664967Y-155941492D01*
X150648896Y-155970425D01*
X150633670Y-155997606D01*
X150614776Y-156031000D01*
X150597994Y-156060425D01*
X150579528Y-156092814D01*
X150560782Y-156125970D01*
X150547091Y-156150425D01*
X150521758Y-156196014D01*
X150501705Y-156231977D01*
X150484475Y-156262690D01*
X150467608Y-156292532D01*
X150448645Y-156325877D01*
X150440351Y-156340425D01*
X150421921Y-156372626D01*
X150405874Y-156400459D01*
X150394203Y-156420481D01*
X150389440Y-156428425D01*
X150380155Y-156444761D01*
X150372098Y-156460425D01*
X150363209Y-156476532D01*
X150357282Y-156484425D01*
X150351495Y-156492840D01*
X150340248Y-156511998D01*
X150325518Y-156538475D01*
X150317981Y-156552425D01*
X150302104Y-156581438D01*
X150280359Y-156620280D01*
X150254988Y-156664989D01*
X150228236Y-156711601D01*
X150211530Y-156740425D01*
X150186642Y-156783364D01*
X150163172Y-156824199D01*
X150142893Y-156859820D01*
X150127577Y-156887119D01*
X150120326Y-156900425D01*
X150105058Y-156928528D01*
X150089391Y-156956181D01*
X150084536Y-156964425D01*
X150070075Y-156989119D01*
X150053582Y-157018046D01*
X150047777Y-157028425D01*
X150036382Y-157048625D01*
X150019054Y-157078945D01*
X149997918Y-157115683D01*
X149975101Y-157155136D01*
X149968892Y-157165835D01*
X149948047Y-157202241D01*
X149930443Y-157233969D01*
X149917515Y-157258357D01*
X149910693Y-157272747D01*
X149909994Y-157275168D01*
X149904879Y-157285168D01*
X149903792Y-157285758D01*
X149897690Y-157293358D01*
X149885500Y-157312190D01*
X149868926Y-157339509D01*
X149849671Y-157372572D01*
X149847473Y-157376425D01*
X149827742Y-157410972D01*
X149810391Y-157441171D01*
X149797220Y-157463904D01*
X149790024Y-157476055D01*
X149789793Y-157476425D01*
X149780935Y-157491959D01*
X149770274Y-157512425D01*
X149759446Y-157532929D01*
X149750260Y-157548425D01*
X149743874Y-157559005D01*
X149731051Y-157581070D01*
X149713203Y-157612159D01*
X149691743Y-157649815D01*
X149669864Y-157688425D01*
X149646358Y-157729960D01*
X149625216Y-157767210D01*
X149607839Y-157797718D01*
X149595626Y-157819026D01*
X149590133Y-157828425D01*
X149580218Y-157844924D01*
X149565014Y-157870695D01*
X149546193Y-157902852D01*
X149525429Y-157938512D01*
X149504393Y-157974791D01*
X149484758Y-158008805D01*
X149468194Y-158037671D01*
X149456376Y-158058504D01*
X149450974Y-158068421D01*
X149450973Y-158068425D01*
X149432027Y-158103218D01*
X149410817Y-158127395D01*
X149382182Y-158146072D01*
X149363963Y-158154729D01*
X149359184Y-158156777D01*
X149354045Y-158158652D01*
X149347840Y-158160362D01*
X149339860Y-158161919D01*
X149329399Y-158163332D01*
X149315751Y-158164611D01*
X149298207Y-158165767D01*
X149276062Y-158166809D01*
X149248609Y-158167748D01*
X149215139Y-158168594D01*
X149174947Y-158169356D01*
X149127325Y-158170045D01*
X149071566Y-158170670D01*
X149006964Y-158171243D01*
X148932812Y-158171772D01*
X148848401Y-158172269D01*
X148753027Y-158172742D01*
X148645981Y-158173203D01*
X148526556Y-158173660D01*
X148394047Y-158174126D01*
X148247745Y-158174608D01*
X148086943Y-158175118D01*
X147910935Y-158175665D01*
X147888267Y-158175735D01*
X147731012Y-158176238D01*
X147574105Y-158176773D01*
X147418655Y-158177333D01*
X147265771Y-158177914D01*
X147116563Y-158178511D01*
X146972141Y-158179118D01*
X146833613Y-158179730D01*
X146702088Y-158180342D01*
X146578676Y-158180949D01*
X146464487Y-158181546D01*
X146360629Y-158182127D01*
X146268212Y-158182688D01*
X146188345Y-158183222D01*
X146122138Y-158183725D01*
X146070699Y-158184193D01*
X146065994Y-158184242D01*
X145973013Y-158185136D01*
X145894778Y-158185680D01*
X145830041Y-158185852D01*
X145777549Y-158185634D01*
X145736055Y-158185007D01*
X145704307Y-158183951D01*
X145681056Y-158182446D01*
X145665051Y-158180474D01*
X145655043Y-158178014D01*
X145654654Y-158177869D01*
X145630053Y-158164121D01*
X145605815Y-158140985D01*
X145580576Y-158106745D01*
X145552973Y-158059688D01*
X145537994Y-158031078D01*
X145521496Y-157998969D01*
X145507538Y-157972421D01*
X145497761Y-157954517D01*
X145493994Y-157948425D01*
X145488685Y-157939776D01*
X145478427Y-157920718D01*
X145465336Y-157895195D01*
X145463946Y-157892425D01*
X145448726Y-157862845D01*
X145428719Y-157825067D01*
X145406986Y-157784835D01*
X145393570Y-157760425D01*
X145374484Y-157725758D01*
X145357169Y-157693912D01*
X145343780Y-157668870D01*
X145337349Y-157656425D01*
X145325611Y-157633805D01*
X145311137Y-157607255D01*
X145307295Y-157600425D01*
X145294720Y-157577866D01*
X145276771Y-157545153D01*
X145255600Y-157506247D01*
X145233361Y-157465112D01*
X145212204Y-157425712D01*
X145200861Y-157404431D01*
X145190201Y-157385585D01*
X145182266Y-157373687D01*
X145181072Y-157372431D01*
X145175039Y-157362361D01*
X145170548Y-157350472D01*
X145162029Y-157331681D01*
X145155469Y-157322472D01*
X145146920Y-157310198D01*
X145134481Y-157288693D01*
X145123818Y-157268425D01*
X145107480Y-157236864D01*
X145090004Y-157204388D01*
X145081089Y-157188425D01*
X145046319Y-157127432D01*
X145018278Y-157078012D01*
X144995683Y-157037890D01*
X144977251Y-157004789D01*
X144966054Y-156984425D01*
X144947652Y-156951144D01*
X144926359Y-156913194D01*
X144910004Y-156884425D01*
X144891534Y-156852037D01*
X144872785Y-156818882D01*
X144859091Y-156794425D01*
X144834043Y-156749349D01*
X144814452Y-156714216D01*
X144798032Y-156684966D01*
X144782499Y-156657540D01*
X144765570Y-156627877D01*
X144754426Y-156608425D01*
X144736545Y-156577088D01*
X144721306Y-156550106D01*
X144710709Y-156531034D01*
X144707188Y-156524425D01*
X144699570Y-156510476D01*
X144687404Y-156489486D01*
X144682007Y-156480425D01*
X144667946Y-156455984D01*
X144650779Y-156424720D01*
X144636850Y-156398425D01*
X144623183Y-156373714D01*
X144611678Y-156355842D01*
X144604697Y-156348455D01*
X144604455Y-156348425D01*
X144598237Y-156342231D01*
X144597994Y-156339920D01*
X144594135Y-156330769D01*
X144583341Y-156309962D01*
X144566785Y-156279633D01*
X144545640Y-156241921D01*
X144521079Y-156198961D01*
X144511220Y-156181920D01*
X144484197Y-156135299D01*
X144458640Y-156091089D01*
X144436094Y-156051974D01*
X144418107Y-156020637D01*
X144406224Y-155999760D01*
X144404351Y-155996425D01*
X144387977Y-155967264D01*
X144371025Y-155937327D01*
X144365946Y-155928425D01*
X144351562Y-155902973D01*
X144334256Y-155871927D01*
X144323498Y-155852425D01*
X144310145Y-155828803D01*
X144299530Y-155811327D01*
X144294514Y-155804425D01*
X144287611Y-155794961D01*
X144279439Y-155780425D01*
X144257062Y-155737955D01*
X144237069Y-155703217D01*
X144222801Y-155680425D01*
X144207929Y-155656362D01*
X144195321Y-155634334D01*
X144192238Y-155628425D01*
X144181841Y-155608852D01*
X144174464Y-155596425D01*
X144167643Y-155585118D01*
X144154739Y-155563011D01*
X144137558Y-155533222D01*
X144117906Y-155498868D01*
X144116514Y-155496425D01*
X144097070Y-155462899D01*
X144080119Y-155434817D01*
X144067366Y-155414923D01*
X144060514Y-155405958D01*
X144060195Y-155405758D01*
X144054051Y-155396621D01*
X144053993Y-155395574D01*
X144050155Y-155385729D01*
X144039887Y-155365765D01*
X144025066Y-155339242D01*
X144017484Y-155326241D01*
X143997197Y-155291890D01*
X143982774Y-155267421D01*
X143971947Y-155248934D01*
X143962449Y-155232532D01*
X143952012Y-155214314D01*
X143938371Y-155190382D01*
X143932699Y-155180425D01*
X143916749Y-155152835D01*
X143903642Y-155130922D01*
X143895473Y-155118158D01*
X143894094Y-155116425D01*
X143887560Y-155106943D01*
X143879657Y-155092425D01*
X143871195Y-155076109D01*
X143857624Y-155050564D01*
X143841504Y-155020600D01*
X143837074Y-155012425D01*
X143819441Y-154978393D01*
X143802832Y-154943704D01*
X143790471Y-154915128D01*
X143789196Y-154911825D01*
X143780805Y-154888087D01*
X143777904Y-154871195D01*
X143780473Y-154853952D01*
X143788490Y-154829162D01*
X143788954Y-154827825D01*
X143796501Y-154807161D01*
X143804943Y-154786893D01*
X143815585Y-154764479D01*
X143829730Y-154737379D01*
X143848684Y-154703051D01*
X143873750Y-154658952D01*
X143891299Y-154628425D01*
X143913029Y-154590654D01*
X143931354Y-154558613D01*
X143948646Y-154528103D01*
X143967273Y-154494928D01*
X143989606Y-154454894D01*
X144008778Y-154420425D01*
X144025557Y-154390388D01*
X144042480Y-154360329D01*
X144051510Y-154344425D01*
X144063811Y-154322335D01*
X144073102Y-154304681D01*
X144075141Y-154300425D01*
X144081577Y-154287860D01*
X144093542Y-154265947D01*
X144108568Y-154239197D01*
X144110147Y-154236425D01*
X144147015Y-154171158D01*
X144180503Y-154110395D01*
X144215631Y-154045022D01*
X144215949Y-154044425D01*
X144236095Y-154007228D01*
X144258535Y-153966813D01*
X144278495Y-153931778D01*
X144278930Y-153931029D01*
X144293675Y-153905170D01*
X144304631Y-153884979D01*
X144309821Y-153874125D01*
X144309993Y-153873381D01*
X144313735Y-153864694D01*
X144323381Y-153846780D01*
X144332591Y-153830777D01*
X144346548Y-153806468D01*
X144364981Y-153773519D01*
X144384837Y-153737411D01*
X144394053Y-153720425D01*
X144415034Y-153681683D01*
X144437475Y-153640450D01*
X144457576Y-153603702D01*
X144463777Y-153592425D01*
X144480267Y-153562207D01*
X144495225Y-153534289D01*
X144505713Y-153514160D01*
X144506584Y-153512425D01*
X144518358Y-153489803D01*
X144532853Y-153463252D01*
X144536695Y-153456425D01*
X144553687Y-153425959D01*
X144577729Y-153382030D01*
X144608438Y-153325343D01*
X144645431Y-153256605D01*
X144649821Y-153248425D01*
X144666279Y-153218045D01*
X144681737Y-153190021D01*
X144693113Y-153169928D01*
X144693994Y-153168425D01*
X144704725Y-153149561D01*
X144719880Y-153122144D01*
X144736380Y-153091751D01*
X144738166Y-153088425D01*
X144775820Y-153018416D01*
X144807232Y-152960384D01*
X144832018Y-152915032D01*
X144849796Y-152883066D01*
X144851292Y-152880425D01*
X144865592Y-152854553D01*
X144878671Y-152829824D01*
X144881403Y-152824425D01*
X144891107Y-152805690D01*
X144905655Y-152778464D01*
X144922113Y-152748235D01*
X144924210Y-152744425D01*
X144942445Y-152711207D01*
X144964482Y-152670876D01*
X144986522Y-152630392D01*
X144994102Y-152616425D01*
X145012934Y-152581837D01*
X145031089Y-152548753D01*
X145045828Y-152522152D01*
X145051295Y-152512425D01*
X145065593Y-152486553D01*
X145078672Y-152461823D01*
X145081403Y-152456425D01*
X145091107Y-152437690D01*
X145105655Y-152410464D01*
X145122113Y-152380235D01*
X145124210Y-152376425D01*
X145142445Y-152343207D01*
X145164482Y-152302876D01*
X145186522Y-152262392D01*
X145194102Y-152248425D01*
X145212934Y-152213837D01*
X145231089Y-152180753D01*
X145245828Y-152154152D01*
X145251295Y-152144425D01*
X145265593Y-152118553D01*
X145278672Y-152093823D01*
X145281403Y-152088425D01*
X145291107Y-152069690D01*
X145305655Y-152042464D01*
X145322113Y-152012235D01*
X145324210Y-152008425D01*
X145342438Y-151975185D01*
X145364442Y-151934826D01*
X145386421Y-151894324D01*
X145393934Y-151880425D01*
X145413383Y-151844754D01*
X145432886Y-151809592D01*
X145449390Y-151780416D01*
X145455396Y-151770072D01*
X145467813Y-151748286D01*
X145476021Y-151732520D01*
X145477993Y-151727419D01*
X145481749Y-151718866D01*
X145491611Y-151700497D01*
X145505475Y-151676227D01*
X145505993Y-151675342D01*
X145520112Y-151650008D01*
X145530263Y-151629422D01*
X145534259Y-151618024D01*
X145534260Y-151617996D01*
X145541619Y-151600526D01*
X145560749Y-151580398D01*
X145588486Y-151560699D01*
X145598932Y-151554850D01*
X145633994Y-151536425D01*
X146265994Y-151531445D01*
X146351420Y-151530796D01*
X146451248Y-151530082D01*
X146563880Y-151529311D01*
X146687718Y-151528493D01*
X146821164Y-151527639D01*
X146962620Y-151526757D01*
X147110487Y-151525857D01*
X147263168Y-151524950D01*
X147419065Y-151524044D01*
X147576579Y-151523150D01*
X147734114Y-151522276D01*
X147890070Y-151521433D01*
X148042850Y-151520631D01*
X148105994Y-151520307D01*
X149313994Y-151514148D01*
X149353994Y-151544559D01*
G37*
%TD.AperFunction*%
%TA.AperFunction,EtchedComponent*%
G36*
X137038138Y-144392642D02*
G01*
X137059482Y-144409585D01*
X137075014Y-144423258D01*
X137080852Y-144429923D01*
X137088441Y-144441168D01*
X137093449Y-144446676D01*
X137101272Y-144457652D01*
X137114391Y-144479262D01*
X137130702Y-144507955D01*
X137141919Y-144528533D01*
X137161582Y-144565143D01*
X137181532Y-144602175D01*
X137198570Y-144633698D01*
X137204437Y-144644508D01*
X137220277Y-144673786D01*
X137239669Y-144709849D01*
X137258663Y-144745348D01*
X137260348Y-144748508D01*
X137275666Y-144776923D01*
X137288524Y-144800183D01*
X137296778Y-144814431D01*
X137298134Y-144816508D01*
X137302478Y-144823522D01*
X137310800Y-144838302D01*
X137323821Y-144862181D01*
X137342264Y-144896493D01*
X137366853Y-144942574D01*
X137391270Y-144988501D01*
X137401701Y-145007322D01*
X137409103Y-145019225D01*
X137410138Y-145020501D01*
X137415943Y-145029690D01*
X137425314Y-145047441D01*
X137427823Y-145052508D01*
X137439124Y-145074480D01*
X137454736Y-145103437D01*
X137468692Y-145128508D01*
X137488241Y-145163157D01*
X137509702Y-145201383D01*
X137522626Y-145224508D01*
X137539732Y-145255087D01*
X137556785Y-145285387D01*
X137567624Y-145304508D01*
X137580476Y-145327791D01*
X137590780Y-145347723D01*
X137593069Y-145352571D01*
X137601075Y-145368303D01*
X137613976Y-145391608D01*
X137623780Y-145408571D01*
X137638894Y-145434871D01*
X137657956Y-145468916D01*
X137677402Y-145504322D01*
X137681835Y-145512508D01*
X137697942Y-145541936D01*
X137711741Y-145566393D01*
X137721100Y-145582133D01*
X137723274Y-145585347D01*
X137730916Y-145597288D01*
X137742514Y-145617606D01*
X137748877Y-145629347D01*
X137782291Y-145691702D01*
X137811887Y-145745809D01*
X137841030Y-145797718D01*
X137873082Y-145853480D01*
X137881917Y-145868687D01*
X137902208Y-145903822D01*
X137919242Y-145933836D01*
X137931562Y-145956123D01*
X137937711Y-145968075D01*
X137938138Y-145969303D01*
X137941962Y-145977183D01*
X137952581Y-145996599D01*
X137968715Y-146025273D01*
X137989084Y-146060929D01*
X138010138Y-146097379D01*
X138033283Y-146137629D01*
X138053339Y-146173215D01*
X138069018Y-146201796D01*
X138079032Y-146221028D01*
X138082138Y-146228398D01*
X138087079Y-146239557D01*
X138092231Y-146245936D01*
X138103449Y-146261137D01*
X138112173Y-146276508D01*
X138122405Y-146296088D01*
X138129584Y-146308508D01*
X138136864Y-146320735D01*
X138150154Y-146343645D01*
X138167596Y-146373991D01*
X138187333Y-146408522D01*
X138207511Y-146443989D01*
X138226271Y-146477143D01*
X138241758Y-146504735D01*
X138243859Y-146508508D01*
X138276955Y-146567371D01*
X138303353Y-146612882D01*
X138315202Y-146632508D01*
X138326872Y-146652351D01*
X138335051Y-146667842D01*
X138335354Y-146668508D01*
X138340631Y-146678334D01*
X138352868Y-146700111D01*
X138370989Y-146731954D01*
X138393915Y-146771977D01*
X138420571Y-146818297D01*
X138449879Y-146869027D01*
X138454210Y-146876508D01*
X138484892Y-146929531D01*
X138514078Y-146980044D01*
X138540473Y-147025800D01*
X138562781Y-147064549D01*
X138579707Y-147094046D01*
X138589956Y-147112042D01*
X138590217Y-147112508D01*
X138610641Y-147148702D01*
X138626255Y-147176053D01*
X138640021Y-147199704D01*
X138654729Y-147224508D01*
X138668844Y-147248882D01*
X138681011Y-147271061D01*
X138683816Y-147276508D01*
X138693071Y-147292669D01*
X138699474Y-147300670D01*
X138706657Y-147310501D01*
X138713838Y-147324670D01*
X138723095Y-147343604D01*
X138736577Y-147368726D01*
X138751748Y-147395603D01*
X138766074Y-147419807D01*
X138777020Y-147436904D01*
X138780890Y-147441888D01*
X138788729Y-147453321D01*
X138798478Y-147471811D01*
X138798807Y-147472508D01*
X138811541Y-147497250D01*
X138824968Y-147520508D01*
X138835458Y-147537711D01*
X138847855Y-147558745D01*
X138864018Y-147586810D01*
X138885807Y-147625109D01*
X138890138Y-147632751D01*
X138903970Y-147672387D01*
X138906240Y-147719576D01*
X138897250Y-147771136D01*
X138877301Y-147823885D01*
X138870841Y-147836508D01*
X138862888Y-147851463D01*
X138849483Y-147876896D01*
X138832575Y-147909102D01*
X138816136Y-147940508D01*
X138779966Y-148009407D01*
X138749116Y-148067566D01*
X138724119Y-148113987D01*
X138705509Y-148147677D01*
X138698138Y-148160508D01*
X138687276Y-148179601D01*
X138672113Y-148207052D01*
X138655839Y-148237079D01*
X138655073Y-148238508D01*
X138625512Y-148293596D01*
X138601792Y-148337575D01*
X138582252Y-148373467D01*
X138565232Y-148404294D01*
X138549070Y-148433080D01*
X138532105Y-148462847D01*
X138525047Y-148475141D01*
X138507580Y-148505760D01*
X138493538Y-148530828D01*
X138484564Y-148547383D01*
X138482137Y-148552508D01*
X138478403Y-148560124D01*
X138468293Y-148578625D01*
X138453448Y-148605048D01*
X138439281Y-148629874D01*
X138420032Y-148663450D01*
X138403702Y-148692104D01*
X138387980Y-148719940D01*
X138370553Y-148751062D01*
X138349111Y-148789575D01*
X138333040Y-148818508D01*
X138317814Y-148845689D01*
X138298920Y-148879083D01*
X138282138Y-148908508D01*
X138263672Y-148940897D01*
X138244926Y-148974053D01*
X138231235Y-148998508D01*
X138205902Y-149044097D01*
X138185849Y-149080060D01*
X138168619Y-149110773D01*
X138151752Y-149140615D01*
X138132789Y-149173960D01*
X138124495Y-149188508D01*
X138106065Y-149220709D01*
X138090018Y-149248542D01*
X138078347Y-149268564D01*
X138073584Y-149276508D01*
X138064299Y-149292844D01*
X138056242Y-149308508D01*
X138047353Y-149324615D01*
X138041426Y-149332508D01*
X138035639Y-149340923D01*
X138024392Y-149360081D01*
X138009662Y-149386558D01*
X138002125Y-149400508D01*
X137986248Y-149429521D01*
X137964503Y-149468363D01*
X137939132Y-149513072D01*
X137912380Y-149559684D01*
X137895674Y-149588508D01*
X137870786Y-149631447D01*
X137847316Y-149672282D01*
X137827037Y-149707903D01*
X137811721Y-149735202D01*
X137804470Y-149748508D01*
X137789202Y-149776611D01*
X137773535Y-149804264D01*
X137768680Y-149812508D01*
X137754219Y-149837202D01*
X137737726Y-149866129D01*
X137731921Y-149876508D01*
X137720526Y-149896708D01*
X137703198Y-149927028D01*
X137682062Y-149963766D01*
X137659245Y-150003219D01*
X137653036Y-150013918D01*
X137632191Y-150050324D01*
X137614587Y-150082052D01*
X137601659Y-150106440D01*
X137594837Y-150120830D01*
X137594138Y-150123251D01*
X137589023Y-150133251D01*
X137587936Y-150133841D01*
X137581834Y-150141441D01*
X137569644Y-150160273D01*
X137553070Y-150187592D01*
X137533815Y-150220655D01*
X137531617Y-150224508D01*
X137511886Y-150259055D01*
X137494535Y-150289254D01*
X137481364Y-150311987D01*
X137474168Y-150324138D01*
X137473937Y-150324508D01*
X137465079Y-150340042D01*
X137454418Y-150360508D01*
X137443590Y-150381012D01*
X137434404Y-150396508D01*
X137428018Y-150407088D01*
X137415195Y-150429153D01*
X137397347Y-150460242D01*
X137375887Y-150497898D01*
X137354008Y-150536508D01*
X137330502Y-150578043D01*
X137309360Y-150615293D01*
X137291983Y-150645801D01*
X137279770Y-150667109D01*
X137274277Y-150676508D01*
X137264362Y-150693007D01*
X137249158Y-150718778D01*
X137230337Y-150750935D01*
X137209573Y-150786595D01*
X137188537Y-150822874D01*
X137168902Y-150856888D01*
X137152338Y-150885754D01*
X137140520Y-150906587D01*
X137135118Y-150916504D01*
X137135117Y-150916508D01*
X137116171Y-150951301D01*
X137094961Y-150975478D01*
X137066326Y-150994155D01*
X137048107Y-151002812D01*
X137043328Y-151004860D01*
X137038189Y-151006735D01*
X137031984Y-151008445D01*
X137024004Y-151010002D01*
X137013543Y-151011415D01*
X136999895Y-151012694D01*
X136982351Y-151013850D01*
X136960206Y-151014892D01*
X136932753Y-151015831D01*
X136899283Y-151016677D01*
X136859091Y-151017439D01*
X136811469Y-151018128D01*
X136755710Y-151018753D01*
X136691108Y-151019326D01*
X136616956Y-151019855D01*
X136532545Y-151020352D01*
X136437171Y-151020825D01*
X136330125Y-151021286D01*
X136210700Y-151021743D01*
X136078191Y-151022209D01*
X135931889Y-151022691D01*
X135771087Y-151023201D01*
X135595079Y-151023748D01*
X135572411Y-151023818D01*
X135415156Y-151024321D01*
X135258249Y-151024856D01*
X135102799Y-151025416D01*
X134949915Y-151025997D01*
X134800707Y-151026594D01*
X134656285Y-151027201D01*
X134517757Y-151027813D01*
X134386232Y-151028425D01*
X134262820Y-151029032D01*
X134148631Y-151029629D01*
X134044773Y-151030210D01*
X133952356Y-151030771D01*
X133872489Y-151031305D01*
X133806282Y-151031808D01*
X133754843Y-151032276D01*
X133750138Y-151032325D01*
X133657157Y-151033219D01*
X133578922Y-151033763D01*
X133514185Y-151033935D01*
X133461693Y-151033717D01*
X133420199Y-151033090D01*
X133388451Y-151032034D01*
X133365200Y-151030529D01*
X133349195Y-151028557D01*
X133339187Y-151026097D01*
X133338798Y-151025952D01*
X133314197Y-151012204D01*
X133289959Y-150989068D01*
X133264720Y-150954828D01*
X133237117Y-150907771D01*
X133222138Y-150879161D01*
X133205640Y-150847052D01*
X133191682Y-150820504D01*
X133181905Y-150802600D01*
X133178138Y-150796508D01*
X133172829Y-150787859D01*
X133162571Y-150768801D01*
X133149480Y-150743278D01*
X133148090Y-150740508D01*
X133132870Y-150710928D01*
X133112863Y-150673150D01*
X133091130Y-150632918D01*
X133077714Y-150608508D01*
X133058628Y-150573841D01*
X133041313Y-150541995D01*
X133027924Y-150516953D01*
X133021493Y-150504508D01*
X133009755Y-150481888D01*
X132995281Y-150455338D01*
X132991439Y-150448508D01*
X132978864Y-150425949D01*
X132960915Y-150393236D01*
X132939744Y-150354330D01*
X132917505Y-150313195D01*
X132896348Y-150273795D01*
X132885005Y-150252514D01*
X132874345Y-150233668D01*
X132866410Y-150221770D01*
X132865216Y-150220514D01*
X132859183Y-150210444D01*
X132854692Y-150198555D01*
X132846173Y-150179764D01*
X132839613Y-150170555D01*
X132831064Y-150158281D01*
X132818625Y-150136776D01*
X132807962Y-150116508D01*
X132791624Y-150084947D01*
X132774148Y-150052471D01*
X132765233Y-150036508D01*
X132730463Y-149975515D01*
X132702422Y-149926095D01*
X132679827Y-149885973D01*
X132661395Y-149852872D01*
X132650198Y-149832508D01*
X132631796Y-149799227D01*
X132610503Y-149761277D01*
X132594148Y-149732508D01*
X132575678Y-149700120D01*
X132556929Y-149666965D01*
X132543235Y-149642508D01*
X132518187Y-149597432D01*
X132498596Y-149562299D01*
X132482176Y-149533049D01*
X132466643Y-149505623D01*
X132449714Y-149475960D01*
X132438570Y-149456508D01*
X132420689Y-149425171D01*
X132405450Y-149398189D01*
X132394853Y-149379117D01*
X132391332Y-149372508D01*
X132383714Y-149358559D01*
X132371548Y-149337569D01*
X132366151Y-149328508D01*
X132352090Y-149304067D01*
X132334923Y-149272803D01*
X132320994Y-149246508D01*
X132307327Y-149221797D01*
X132295822Y-149203925D01*
X132288841Y-149196538D01*
X132288599Y-149196508D01*
X132282381Y-149190314D01*
X132282138Y-149188003D01*
X132278279Y-149178852D01*
X132267485Y-149158045D01*
X132250929Y-149127716D01*
X132229784Y-149090004D01*
X132205223Y-149047044D01*
X132195364Y-149030003D01*
X132168341Y-148983382D01*
X132142784Y-148939172D01*
X132120238Y-148900057D01*
X132102251Y-148868720D01*
X132090368Y-148847843D01*
X132088495Y-148844508D01*
X132072121Y-148815347D01*
X132055169Y-148785410D01*
X132050090Y-148776508D01*
X132035706Y-148751056D01*
X132018400Y-148720010D01*
X132007642Y-148700508D01*
X131994289Y-148676886D01*
X131983674Y-148659410D01*
X131978658Y-148652508D01*
X131971755Y-148643044D01*
X131963583Y-148628508D01*
X131941206Y-148586038D01*
X131921213Y-148551300D01*
X131906945Y-148528508D01*
X131892073Y-148504445D01*
X131879465Y-148482417D01*
X131876382Y-148476508D01*
X131865985Y-148456935D01*
X131858608Y-148444508D01*
X131851787Y-148433201D01*
X131838883Y-148411094D01*
X131821702Y-148381305D01*
X131802050Y-148346951D01*
X131800658Y-148344508D01*
X131781214Y-148310982D01*
X131764263Y-148282900D01*
X131751510Y-148263006D01*
X131744658Y-148254041D01*
X131744339Y-148253841D01*
X131738195Y-148244704D01*
X131738137Y-148243657D01*
X131734299Y-148233812D01*
X131724031Y-148213848D01*
X131709210Y-148187325D01*
X131701628Y-148174324D01*
X131681341Y-148139973D01*
X131666918Y-148115504D01*
X131656091Y-148097017D01*
X131646593Y-148080615D01*
X131636156Y-148062397D01*
X131622515Y-148038465D01*
X131616843Y-148028508D01*
X131600893Y-148000918D01*
X131587786Y-147979005D01*
X131579617Y-147966241D01*
X131578238Y-147964508D01*
X131571704Y-147955026D01*
X131563801Y-147940508D01*
X131555339Y-147924192D01*
X131541768Y-147898647D01*
X131525648Y-147868683D01*
X131521218Y-147860508D01*
X131503585Y-147826476D01*
X131486976Y-147791787D01*
X131474615Y-147763211D01*
X131473340Y-147759908D01*
X131464949Y-147736170D01*
X131462048Y-147719278D01*
X131464617Y-147702035D01*
X131472634Y-147677245D01*
X131473098Y-147675908D01*
X131480645Y-147655244D01*
X131489087Y-147634976D01*
X131499729Y-147612562D01*
X131513874Y-147585462D01*
X131532828Y-147551134D01*
X131557894Y-147507035D01*
X131575443Y-147476508D01*
X131597173Y-147438737D01*
X131615498Y-147406696D01*
X131632790Y-147376186D01*
X131651417Y-147343011D01*
X131673750Y-147302977D01*
X131692922Y-147268508D01*
X131709701Y-147238471D01*
X131726624Y-147208412D01*
X131735654Y-147192508D01*
X131747955Y-147170418D01*
X131757246Y-147152764D01*
X131759285Y-147148508D01*
X131765721Y-147135943D01*
X131777686Y-147114030D01*
X131792712Y-147087280D01*
X131794291Y-147084508D01*
X131831159Y-147019241D01*
X131864647Y-146958478D01*
X131899775Y-146893105D01*
X131900093Y-146892508D01*
X131920239Y-146855311D01*
X131942679Y-146814896D01*
X131962639Y-146779861D01*
X131963074Y-146779112D01*
X131977819Y-146753253D01*
X131988775Y-146733062D01*
X131993965Y-146722208D01*
X131994137Y-146721464D01*
X131997879Y-146712777D01*
X132007525Y-146694863D01*
X132016735Y-146678860D01*
X132030692Y-146654551D01*
X132049125Y-146621602D01*
X132068981Y-146585494D01*
X132078197Y-146568508D01*
X132099178Y-146529766D01*
X132121619Y-146488533D01*
X132141720Y-146451785D01*
X132147921Y-146440508D01*
X132164411Y-146410290D01*
X132179369Y-146382372D01*
X132189857Y-146362243D01*
X132190728Y-146360508D01*
X132202502Y-146337886D01*
X132216997Y-146311335D01*
X132220839Y-146304508D01*
X132237831Y-146274042D01*
X132261873Y-146230113D01*
X132292582Y-146173426D01*
X132329575Y-146104688D01*
X132333965Y-146096508D01*
X132350423Y-146066128D01*
X132365881Y-146038104D01*
X132377257Y-146018011D01*
X132378138Y-146016508D01*
X132388869Y-145997644D01*
X132404024Y-145970227D01*
X132420524Y-145939834D01*
X132422310Y-145936508D01*
X132459964Y-145866499D01*
X132491376Y-145808467D01*
X132516162Y-145763115D01*
X132533940Y-145731149D01*
X132535436Y-145728508D01*
X132549736Y-145702636D01*
X132562815Y-145677907D01*
X132565547Y-145672508D01*
X132575251Y-145653773D01*
X132589799Y-145626547D01*
X132606257Y-145596318D01*
X132608354Y-145592508D01*
X132626589Y-145559290D01*
X132648626Y-145518959D01*
X132670666Y-145478475D01*
X132678246Y-145464508D01*
X132697078Y-145429920D01*
X132715233Y-145396836D01*
X132729972Y-145370235D01*
X132735439Y-145360508D01*
X132749737Y-145334636D01*
X132762816Y-145309906D01*
X132765547Y-145304508D01*
X132775251Y-145285773D01*
X132789799Y-145258547D01*
X132806257Y-145228318D01*
X132808354Y-145224508D01*
X132826589Y-145191290D01*
X132848626Y-145150959D01*
X132870666Y-145110475D01*
X132878246Y-145096508D01*
X132897078Y-145061920D01*
X132915233Y-145028836D01*
X132929972Y-145002235D01*
X132935439Y-144992508D01*
X132949737Y-144966636D01*
X132962816Y-144941906D01*
X132965547Y-144936508D01*
X132975251Y-144917773D01*
X132989799Y-144890547D01*
X133006257Y-144860318D01*
X133008354Y-144856508D01*
X133026582Y-144823268D01*
X133048586Y-144782909D01*
X133070565Y-144742407D01*
X133078078Y-144728508D01*
X133097527Y-144692837D01*
X133117030Y-144657675D01*
X133133534Y-144628499D01*
X133139540Y-144618155D01*
X133151957Y-144596369D01*
X133160165Y-144580603D01*
X133162137Y-144575502D01*
X133165893Y-144566949D01*
X133175755Y-144548580D01*
X133189619Y-144524310D01*
X133190137Y-144523425D01*
X133204256Y-144498091D01*
X133214407Y-144477505D01*
X133218403Y-144466107D01*
X133218404Y-144466079D01*
X133225763Y-144448609D01*
X133244893Y-144428481D01*
X133272630Y-144408782D01*
X133283076Y-144402933D01*
X133318138Y-144384508D01*
X133950138Y-144379528D01*
X134035564Y-144378879D01*
X134135392Y-144378165D01*
X134248024Y-144377394D01*
X134371862Y-144376576D01*
X134505308Y-144375722D01*
X134646764Y-144374840D01*
X134794631Y-144373940D01*
X134947312Y-144373033D01*
X135103209Y-144372127D01*
X135260723Y-144371233D01*
X135418258Y-144370359D01*
X135574214Y-144369516D01*
X135726994Y-144368714D01*
X135790138Y-144368390D01*
X136998138Y-144362231D01*
X137038138Y-144392642D01*
G37*
%TD.AperFunction*%
%TA.AperFunction,EtchedComponent*%
G36*
X136994398Y-137233749D02*
G01*
X137015742Y-137250692D01*
X137031274Y-137264365D01*
X137037112Y-137271030D01*
X137044701Y-137282275D01*
X137049709Y-137287783D01*
X137057532Y-137298759D01*
X137070651Y-137320369D01*
X137086962Y-137349062D01*
X137098179Y-137369640D01*
X137117842Y-137406250D01*
X137137792Y-137443282D01*
X137154830Y-137474805D01*
X137160697Y-137485615D01*
X137176537Y-137514893D01*
X137195929Y-137550956D01*
X137214923Y-137586455D01*
X137216608Y-137589615D01*
X137231926Y-137618030D01*
X137244784Y-137641290D01*
X137253038Y-137655538D01*
X137254394Y-137657615D01*
X137258738Y-137664629D01*
X137267060Y-137679409D01*
X137280081Y-137703288D01*
X137298524Y-137737600D01*
X137323113Y-137783681D01*
X137347530Y-137829608D01*
X137357961Y-137848429D01*
X137365363Y-137860332D01*
X137366398Y-137861608D01*
X137372203Y-137870797D01*
X137381574Y-137888548D01*
X137384083Y-137893615D01*
X137395384Y-137915587D01*
X137410996Y-137944544D01*
X137424952Y-137969615D01*
X137444501Y-138004264D01*
X137465962Y-138042490D01*
X137478886Y-138065615D01*
X137495992Y-138096194D01*
X137513045Y-138126494D01*
X137523884Y-138145615D01*
X137536736Y-138168898D01*
X137547040Y-138188830D01*
X137549329Y-138193678D01*
X137557335Y-138209410D01*
X137570236Y-138232715D01*
X137580040Y-138249678D01*
X137595154Y-138275978D01*
X137614216Y-138310023D01*
X137633662Y-138345429D01*
X137638095Y-138353615D01*
X137654202Y-138383043D01*
X137668001Y-138407500D01*
X137677360Y-138423240D01*
X137679534Y-138426454D01*
X137687176Y-138438395D01*
X137698774Y-138458713D01*
X137705137Y-138470454D01*
X137738551Y-138532809D01*
X137768147Y-138586916D01*
X137797290Y-138638825D01*
X137829342Y-138694587D01*
X137838177Y-138709794D01*
X137858468Y-138744929D01*
X137875502Y-138774943D01*
X137887822Y-138797230D01*
X137893971Y-138809182D01*
X137894398Y-138810410D01*
X137898222Y-138818290D01*
X137908841Y-138837706D01*
X137924975Y-138866380D01*
X137945344Y-138902036D01*
X137966398Y-138938486D01*
X137989543Y-138978736D01*
X138009599Y-139014322D01*
X138025278Y-139042903D01*
X138035292Y-139062135D01*
X138038398Y-139069505D01*
X138043339Y-139080664D01*
X138048491Y-139087043D01*
X138059709Y-139102244D01*
X138068433Y-139117615D01*
X138078665Y-139137195D01*
X138085844Y-139149615D01*
X138093124Y-139161842D01*
X138106414Y-139184752D01*
X138123856Y-139215098D01*
X138143593Y-139249629D01*
X138163771Y-139285096D01*
X138182531Y-139318250D01*
X138198018Y-139345842D01*
X138200119Y-139349615D01*
X138233215Y-139408478D01*
X138259613Y-139453989D01*
X138271462Y-139473615D01*
X138283132Y-139493458D01*
X138291311Y-139508949D01*
X138291614Y-139509615D01*
X138296891Y-139519441D01*
X138309128Y-139541218D01*
X138327249Y-139573061D01*
X138350175Y-139613084D01*
X138376831Y-139659404D01*
X138406139Y-139710134D01*
X138410470Y-139717615D01*
X138441152Y-139770638D01*
X138470338Y-139821151D01*
X138496733Y-139866907D01*
X138519041Y-139905656D01*
X138535967Y-139935153D01*
X138546216Y-139953149D01*
X138546477Y-139953615D01*
X138566901Y-139989809D01*
X138582515Y-140017160D01*
X138596281Y-140040811D01*
X138610989Y-140065615D01*
X138625104Y-140089989D01*
X138637271Y-140112168D01*
X138640076Y-140117615D01*
X138649331Y-140133776D01*
X138655734Y-140141777D01*
X138662917Y-140151608D01*
X138670098Y-140165777D01*
X138679355Y-140184711D01*
X138692837Y-140209833D01*
X138708008Y-140236710D01*
X138722334Y-140260914D01*
X138733280Y-140278011D01*
X138737150Y-140282995D01*
X138744989Y-140294428D01*
X138754738Y-140312918D01*
X138755067Y-140313615D01*
X138767801Y-140338357D01*
X138781228Y-140361615D01*
X138791718Y-140378818D01*
X138804115Y-140399852D01*
X138820278Y-140427917D01*
X138842067Y-140466216D01*
X138846398Y-140473858D01*
X138860230Y-140513494D01*
X138862500Y-140560683D01*
X138853510Y-140612243D01*
X138833561Y-140664992D01*
X138827101Y-140677615D01*
X138819148Y-140692570D01*
X138805743Y-140718003D01*
X138788835Y-140750209D01*
X138772396Y-140781615D01*
X138736226Y-140850514D01*
X138705376Y-140908673D01*
X138680379Y-140955094D01*
X138661769Y-140988784D01*
X138654398Y-141001615D01*
X138643536Y-141020708D01*
X138628373Y-141048159D01*
X138612099Y-141078186D01*
X138611333Y-141079615D01*
X138581772Y-141134703D01*
X138558052Y-141178682D01*
X138538512Y-141214574D01*
X138521492Y-141245401D01*
X138505330Y-141274187D01*
X138488365Y-141303954D01*
X138481307Y-141316248D01*
X138463840Y-141346867D01*
X138449798Y-141371935D01*
X138440824Y-141388490D01*
X138438397Y-141393615D01*
X138434663Y-141401231D01*
X138424553Y-141419732D01*
X138409708Y-141446155D01*
X138395541Y-141470981D01*
X138376292Y-141504557D01*
X138359962Y-141533211D01*
X138344240Y-141561047D01*
X138326813Y-141592169D01*
X138305371Y-141630682D01*
X138289300Y-141659615D01*
X138274074Y-141686796D01*
X138255180Y-141720190D01*
X138238398Y-141749615D01*
X138219932Y-141782004D01*
X138201186Y-141815160D01*
X138187495Y-141839615D01*
X138162162Y-141885204D01*
X138142109Y-141921167D01*
X138124879Y-141951880D01*
X138108012Y-141981722D01*
X138089049Y-142015067D01*
X138080755Y-142029615D01*
X138062325Y-142061816D01*
X138046278Y-142089649D01*
X138034607Y-142109671D01*
X138029844Y-142117615D01*
X138020559Y-142133951D01*
X138012502Y-142149615D01*
X138003613Y-142165722D01*
X137997686Y-142173615D01*
X137991899Y-142182030D01*
X137980652Y-142201188D01*
X137965922Y-142227665D01*
X137958385Y-142241615D01*
X137942508Y-142270628D01*
X137920763Y-142309470D01*
X137895392Y-142354179D01*
X137868640Y-142400791D01*
X137851934Y-142429615D01*
X137827046Y-142472554D01*
X137803576Y-142513389D01*
X137783297Y-142549010D01*
X137767981Y-142576309D01*
X137760730Y-142589615D01*
X137745462Y-142617718D01*
X137729795Y-142645371D01*
X137724940Y-142653615D01*
X137710479Y-142678309D01*
X137693986Y-142707236D01*
X137688181Y-142717615D01*
X137676786Y-142737815D01*
X137659458Y-142768135D01*
X137638322Y-142804873D01*
X137615505Y-142844326D01*
X137609296Y-142855025D01*
X137588451Y-142891431D01*
X137570847Y-142923159D01*
X137557919Y-142947547D01*
X137551097Y-142961937D01*
X137550398Y-142964358D01*
X137545283Y-142974358D01*
X137544196Y-142974948D01*
X137538094Y-142982548D01*
X137525904Y-143001380D01*
X137509330Y-143028699D01*
X137490075Y-143061762D01*
X137487877Y-143065615D01*
X137468146Y-143100162D01*
X137450795Y-143130361D01*
X137437624Y-143153094D01*
X137430428Y-143165245D01*
X137430197Y-143165615D01*
X137421339Y-143181149D01*
X137410678Y-143201615D01*
X137399850Y-143222119D01*
X137390664Y-143237615D01*
X137384278Y-143248195D01*
X137371455Y-143270260D01*
X137353607Y-143301349D01*
X137332147Y-143339005D01*
X137310268Y-143377615D01*
X137286762Y-143419150D01*
X137265620Y-143456400D01*
X137248243Y-143486908D01*
X137236030Y-143508216D01*
X137230537Y-143517615D01*
X137220622Y-143534114D01*
X137205418Y-143559885D01*
X137186597Y-143592042D01*
X137165833Y-143627702D01*
X137144797Y-143663981D01*
X137125162Y-143697995D01*
X137108598Y-143726861D01*
X137096780Y-143747694D01*
X137091378Y-143757611D01*
X137091377Y-143757615D01*
X137072431Y-143792408D01*
X137051221Y-143816585D01*
X137022586Y-143835262D01*
X137004367Y-143843919D01*
X136999588Y-143845967D01*
X136994449Y-143847842D01*
X136988244Y-143849552D01*
X136980264Y-143851109D01*
X136969803Y-143852522D01*
X136956155Y-143853801D01*
X136938611Y-143854957D01*
X136916466Y-143855999D01*
X136889013Y-143856938D01*
X136855543Y-143857784D01*
X136815351Y-143858546D01*
X136767729Y-143859235D01*
X136711970Y-143859860D01*
X136647368Y-143860433D01*
X136573216Y-143860962D01*
X136488805Y-143861459D01*
X136393431Y-143861932D01*
X136286385Y-143862393D01*
X136166960Y-143862850D01*
X136034451Y-143863316D01*
X135888149Y-143863798D01*
X135727347Y-143864308D01*
X135551339Y-143864855D01*
X135528671Y-143864925D01*
X135371416Y-143865428D01*
X135214509Y-143865963D01*
X135059059Y-143866523D01*
X134906175Y-143867104D01*
X134756967Y-143867701D01*
X134612545Y-143868308D01*
X134474017Y-143868920D01*
X134342492Y-143869532D01*
X134219080Y-143870139D01*
X134104891Y-143870736D01*
X134001033Y-143871317D01*
X133908616Y-143871878D01*
X133828749Y-143872412D01*
X133762542Y-143872915D01*
X133711103Y-143873383D01*
X133706398Y-143873432D01*
X133613417Y-143874326D01*
X133535182Y-143874870D01*
X133470445Y-143875042D01*
X133417953Y-143874824D01*
X133376459Y-143874197D01*
X133344711Y-143873141D01*
X133321460Y-143871636D01*
X133305455Y-143869664D01*
X133295447Y-143867204D01*
X133295058Y-143867059D01*
X133270457Y-143853311D01*
X133246219Y-143830175D01*
X133220980Y-143795935D01*
X133193377Y-143748878D01*
X133178398Y-143720268D01*
X133161900Y-143688159D01*
X133147942Y-143661611D01*
X133138165Y-143643707D01*
X133134398Y-143637615D01*
X133129089Y-143628966D01*
X133118831Y-143609908D01*
X133105740Y-143584385D01*
X133104350Y-143581615D01*
X133089130Y-143552035D01*
X133069123Y-143514257D01*
X133047390Y-143474025D01*
X133033974Y-143449615D01*
X133014888Y-143414948D01*
X132997573Y-143383102D01*
X132984184Y-143358060D01*
X132977753Y-143345615D01*
X132966015Y-143322995D01*
X132951541Y-143296445D01*
X132947699Y-143289615D01*
X132935124Y-143267056D01*
X132917175Y-143234343D01*
X132896004Y-143195437D01*
X132873765Y-143154302D01*
X132852608Y-143114902D01*
X132841265Y-143093621D01*
X132830605Y-143074775D01*
X132822670Y-143062877D01*
X132821476Y-143061621D01*
X132815443Y-143051551D01*
X132810952Y-143039662D01*
X132802433Y-143020871D01*
X132795873Y-143011662D01*
X132787324Y-142999388D01*
X132774885Y-142977883D01*
X132764222Y-142957615D01*
X132747884Y-142926054D01*
X132730408Y-142893578D01*
X132721493Y-142877615D01*
X132686723Y-142816622D01*
X132658682Y-142767202D01*
X132636087Y-142727080D01*
X132617655Y-142693979D01*
X132606458Y-142673615D01*
X132588056Y-142640334D01*
X132566763Y-142602384D01*
X132550408Y-142573615D01*
X132531938Y-142541227D01*
X132513189Y-142508072D01*
X132499495Y-142483615D01*
X132474447Y-142438539D01*
X132454856Y-142403406D01*
X132438436Y-142374156D01*
X132422903Y-142346730D01*
X132405974Y-142317067D01*
X132394830Y-142297615D01*
X132376949Y-142266278D01*
X132361710Y-142239296D01*
X132351113Y-142220224D01*
X132347592Y-142213615D01*
X132339974Y-142199666D01*
X132327808Y-142178676D01*
X132322411Y-142169615D01*
X132308350Y-142145174D01*
X132291183Y-142113910D01*
X132277254Y-142087615D01*
X132263587Y-142062904D01*
X132252082Y-142045032D01*
X132245101Y-142037645D01*
X132244859Y-142037615D01*
X132238641Y-142031421D01*
X132238398Y-142029110D01*
X132234539Y-142019959D01*
X132223745Y-141999152D01*
X132207189Y-141968823D01*
X132186044Y-141931111D01*
X132161483Y-141888151D01*
X132151624Y-141871110D01*
X132124601Y-141824489D01*
X132099044Y-141780279D01*
X132076498Y-141741164D01*
X132058511Y-141709827D01*
X132046628Y-141688950D01*
X132044755Y-141685615D01*
X132028381Y-141656454D01*
X132011429Y-141626517D01*
X132006350Y-141617615D01*
X131991966Y-141592163D01*
X131974660Y-141561117D01*
X131963902Y-141541615D01*
X131950549Y-141517993D01*
X131939934Y-141500517D01*
X131934918Y-141493615D01*
X131928015Y-141484151D01*
X131919843Y-141469615D01*
X131897466Y-141427145D01*
X131877473Y-141392407D01*
X131863205Y-141369615D01*
X131848333Y-141345552D01*
X131835725Y-141323524D01*
X131832642Y-141317615D01*
X131822245Y-141298042D01*
X131814868Y-141285615D01*
X131808047Y-141274308D01*
X131795143Y-141252201D01*
X131777962Y-141222412D01*
X131758310Y-141188058D01*
X131756918Y-141185615D01*
X131737474Y-141152089D01*
X131720523Y-141124007D01*
X131707770Y-141104113D01*
X131700918Y-141095148D01*
X131700599Y-141094948D01*
X131694455Y-141085811D01*
X131694397Y-141084764D01*
X131690559Y-141074919D01*
X131680291Y-141054955D01*
X131665470Y-141028432D01*
X131657888Y-141015431D01*
X131637601Y-140981080D01*
X131623178Y-140956611D01*
X131612351Y-140938124D01*
X131602853Y-140921722D01*
X131592416Y-140903504D01*
X131578775Y-140879572D01*
X131573103Y-140869615D01*
X131557153Y-140842025D01*
X131544046Y-140820112D01*
X131535877Y-140807348D01*
X131534498Y-140805615D01*
X131527964Y-140796133D01*
X131520061Y-140781615D01*
X131511599Y-140765299D01*
X131498028Y-140739754D01*
X131481908Y-140709790D01*
X131477478Y-140701615D01*
X131459845Y-140667583D01*
X131443236Y-140632894D01*
X131430875Y-140604318D01*
X131429600Y-140601015D01*
X131421209Y-140577277D01*
X131418308Y-140560385D01*
X131420877Y-140543142D01*
X131428894Y-140518352D01*
X131429358Y-140517015D01*
X131436905Y-140496351D01*
X131445347Y-140476083D01*
X131455989Y-140453669D01*
X131470134Y-140426569D01*
X131489088Y-140392241D01*
X131514154Y-140348142D01*
X131531703Y-140317615D01*
X131553433Y-140279844D01*
X131571758Y-140247803D01*
X131589050Y-140217293D01*
X131607677Y-140184118D01*
X131630010Y-140144084D01*
X131649182Y-140109615D01*
X131665961Y-140079578D01*
X131682884Y-140049519D01*
X131691914Y-140033615D01*
X131704215Y-140011525D01*
X131713506Y-139993871D01*
X131715545Y-139989615D01*
X131721981Y-139977050D01*
X131733946Y-139955137D01*
X131748972Y-139928387D01*
X131750551Y-139925615D01*
X131787419Y-139860348D01*
X131820907Y-139799585D01*
X131856035Y-139734212D01*
X131856353Y-139733615D01*
X131876499Y-139696418D01*
X131898939Y-139656003D01*
X131918899Y-139620968D01*
X131919334Y-139620219D01*
X131934079Y-139594360D01*
X131945035Y-139574169D01*
X131950225Y-139563315D01*
X131950397Y-139562571D01*
X131954139Y-139553884D01*
X131963785Y-139535970D01*
X131972995Y-139519967D01*
X131986952Y-139495658D01*
X132005385Y-139462709D01*
X132025241Y-139426601D01*
X132034457Y-139409615D01*
X132055438Y-139370873D01*
X132077879Y-139329640D01*
X132097980Y-139292892D01*
X132104181Y-139281615D01*
X132120671Y-139251397D01*
X132135629Y-139223479D01*
X132146117Y-139203350D01*
X132146988Y-139201615D01*
X132158762Y-139178993D01*
X132173257Y-139152442D01*
X132177099Y-139145615D01*
X132194091Y-139115149D01*
X132218133Y-139071220D01*
X132248842Y-139014533D01*
X132285835Y-138945795D01*
X132290225Y-138937615D01*
X132306683Y-138907235D01*
X132322141Y-138879211D01*
X132333517Y-138859118D01*
X132334398Y-138857615D01*
X132345129Y-138838751D01*
X132360284Y-138811334D01*
X132376784Y-138780941D01*
X132378570Y-138777615D01*
X132416224Y-138707606D01*
X132447636Y-138649574D01*
X132472422Y-138604222D01*
X132490200Y-138572256D01*
X132491696Y-138569615D01*
X132505996Y-138543743D01*
X132519075Y-138519014D01*
X132521807Y-138513615D01*
X132531511Y-138494880D01*
X132546059Y-138467654D01*
X132562517Y-138437425D01*
X132564614Y-138433615D01*
X132582849Y-138400397D01*
X132604886Y-138360066D01*
X132626926Y-138319582D01*
X132634506Y-138305615D01*
X132653338Y-138271027D01*
X132671493Y-138237943D01*
X132686232Y-138211342D01*
X132691699Y-138201615D01*
X132705997Y-138175743D01*
X132719076Y-138151013D01*
X132721807Y-138145615D01*
X132731511Y-138126880D01*
X132746059Y-138099654D01*
X132762517Y-138069425D01*
X132764614Y-138065615D01*
X132782849Y-138032397D01*
X132804886Y-137992066D01*
X132826926Y-137951582D01*
X132834506Y-137937615D01*
X132853338Y-137903027D01*
X132871493Y-137869943D01*
X132886232Y-137843342D01*
X132891699Y-137833615D01*
X132905997Y-137807743D01*
X132919076Y-137783013D01*
X132921807Y-137777615D01*
X132931511Y-137758880D01*
X132946059Y-137731654D01*
X132962517Y-137701425D01*
X132964614Y-137697615D01*
X132982842Y-137664375D01*
X133004846Y-137624016D01*
X133026825Y-137583514D01*
X133034338Y-137569615D01*
X133053787Y-137533944D01*
X133073290Y-137498782D01*
X133089794Y-137469606D01*
X133095800Y-137459262D01*
X133108217Y-137437476D01*
X133116425Y-137421710D01*
X133118397Y-137416609D01*
X133122153Y-137408056D01*
X133132015Y-137389687D01*
X133145879Y-137365417D01*
X133146397Y-137364532D01*
X133160516Y-137339198D01*
X133170667Y-137318612D01*
X133174663Y-137307214D01*
X133174664Y-137307186D01*
X133182023Y-137289716D01*
X133201153Y-137269588D01*
X133228890Y-137249889D01*
X133239336Y-137244040D01*
X133274398Y-137225615D01*
X133906398Y-137220635D01*
X133991824Y-137219986D01*
X134091652Y-137219272D01*
X134204284Y-137218501D01*
X134328122Y-137217683D01*
X134461568Y-137216829D01*
X134603024Y-137215947D01*
X134750891Y-137215047D01*
X134903572Y-137214140D01*
X135059469Y-137213234D01*
X135216983Y-137212340D01*
X135374518Y-137211466D01*
X135530474Y-137210623D01*
X135683254Y-137209821D01*
X135746398Y-137209497D01*
X136954398Y-137203338D01*
X136994398Y-137233749D01*
G37*
%TD.AperFunction*%
%TD*%
D13*
%TO.P,H1,1*%
%TO.N,N/C*%
X208400000Y-153950000D03*
%TD*%
D14*
%TO.P,SW13,A,A_A*%
%TO.N,/IO38*%
X187800000Y-86150000D03*
D15*
%TO.P,SW13,B,B_B*%
%TO.N,/IO39*%
X187800000Y-91150000D03*
%TO.P,SW13,C,C_C*%
%TO.N,GND*%
X187800000Y-88650000D03*
D16*
%TO.P,SW13,MP*%
%TO.N,N/C*%
X195300000Y-83050000D03*
X195300000Y-94250000D03*
D15*
%TO.P,SW13,S1,S1_S1*%
%TO.N,GND*%
X202300000Y-91150000D03*
%TO.P,SW13,S2,S2_S2*%
%TO.N,/IO40*%
X202300000Y-86150000D03*
%TD*%
D17*
%TO.P,SW3,1,1_1*%
%TO.N,/btn_3*%
X157896000Y-119427100D03*
%TO.P,SW3,2,2_2*%
%TO.N,GND*%
X151546000Y-121967100D03*
%TD*%
%TO.P,SW2,1,1_1*%
%TO.N,/btn_2*%
X176950000Y-100400000D03*
%TO.P,SW2,2,2_2*%
%TO.N,GND*%
X170600000Y-102940000D03*
%TD*%
D13*
%TO.P,H4,1*%
%TO.N,N/C*%
X208150000Y-73550000D03*
%TD*%
D18*
%TO.P,D1,1,K_1*%
%TO.N,GND*%
X134587087Y-133062913D03*
%TO.P,D1,2,A_2*%
%TO.N,Net-(D1-A)*%
X135912913Y-131737087D03*
%TD*%
D17*
%TO.P,SW1,1,1_1*%
%TO.N,/btn_1*%
X157900000Y-100400000D03*
%TO.P,SW1,2,2_2*%
%TO.N,GND*%
X151550000Y-102940000D03*
%TD*%
D18*
%TO.P,D2,1,K_1*%
%TO.N,GND*%
X139537087Y-133112913D03*
%TO.P,D2,2,A_2*%
%TO.N,Net-(D2-A)*%
X140862913Y-131787087D03*
%TD*%
D17*
%TO.P,SW6,1,1_1*%
%TO.N,/btn_6*%
X196040000Y-110290000D03*
%TO.P,SW6,2,2_2*%
%TO.N,GND*%
X189690000Y-112830000D03*
%TD*%
%TO.P,SW5,1,1_1*%
%TO.N,/btn_5*%
X167480000Y-81300000D03*
%TO.P,SW5,2,2_2*%
%TO.N,GND*%
X161130000Y-83840000D03*
%TD*%
%TO.P,SW7,1,1_1*%
%TO.N,/btn_7*%
X167780000Y-138500000D03*
%TO.P,SW7,2,2_2*%
%TO.N,GND*%
X161430000Y-141040000D03*
%TD*%
D13*
%TO.P,H2,1*%
%TO.N,N/C*%
X122550000Y-154050000D03*
%TD*%
D18*
%TO.P,D3,1,K_1*%
%TO.N,GND*%
X129837087Y-132912913D03*
%TO.P,D3,2,A_2*%
%TO.N,Net-(D3-A)*%
X131162913Y-131587087D03*
%TD*%
D17*
%TO.P,SW8,1,1_1*%
%TO.N,/btn_8*%
X138880000Y-109800000D03*
%TO.P,SW8,2,2_2*%
%TO.N,GND*%
X132530000Y-112340000D03*
%TD*%
D13*
%TO.P,H3,1*%
%TO.N,N/C*%
X122550000Y-73650000D03*
%TD*%
D17*
%TO.P,SW4,1,1_1*%
%TO.N,/btn_4*%
X176956200Y-119426800D03*
%TO.P,SW4,2,2_2*%
%TO.N,GND*%
X170606200Y-121966800D03*
%TD*%
D19*
%TO.P,J1,S1,SHIELD_S1*%
%TO.N,GND*%
X160130000Y-74032500D03*
%TO.P,J1,S2,SHIELD_S2*%
X168770000Y-74032500D03*
D20*
%TO.P,J1,S3,SHIELD_S3*%
X160130000Y-69852500D03*
%TO.P,J1,S4,SHIELD_S4*%
X168770000Y-69852500D03*
%TD*%
D21*
%TO.N,/btn_3*%
X196050300Y-131286400D03*
%TO.N,/btn_2*%
X184121300Y-100613100D03*
%TO.N,Net-(D1-A)*%
X137350000Y-132604200D03*
%TO.N,/btn_1*%
X185048300Y-102824700D03*
%TO.N,Net-(D2-A)*%
X142990800Y-133914800D03*
%TO.N,/btn_5*%
X201046600Y-108558900D03*
%TO.N,/btn_7*%
X202085300Y-141699000D03*
%TO.N,Net-(D3-A)*%
X132050000Y-132446500D03*
%TO.N,/btn_8*%
X199979400Y-130057500D03*
%TO.N,/btn_4*%
X201850000Y-127110600D03*
%TO.N,+3.3V*%
X184001700Y-145214100D03*
X145408000Y-131637500D03*
X204988800Y-140364600D03*
%TO.N,/rst*%
X203140600Y-127110600D03*
X207301100Y-127110600D03*
%TO.N,/USB_D-*%
X163755700Y-73262600D03*
X194370300Y-103877200D03*
%TO.N,/USB_D+*%
X194154900Y-102418400D03*
X165099200Y-73506200D03*
%TD*%
%TO.N,GND*%
D10*
X170403200Y-102743200D02*
X151746800Y-102743200D01*
X139537000Y-133113000D02*
X139537100Y-133112900D01*
X149002200Y-121967100D02*
X139537100Y-131432200D01*
X151550000Y-102940000D02*
X141930000Y-102940000D01*
X189690000Y-112830000D02*
X179743000Y-112830000D01*
X187800000Y-88650000D02*
X190300000Y-91150000D01*
X170600000Y-102940000D02*
X170403200Y-102743200D01*
X179743000Y-112830000D02*
X170606200Y-121966800D01*
X129837100Y-132912900D02*
X130143900Y-133219700D01*
X190300000Y-91150000D02*
X202300000Y-91150000D01*
X130143900Y-133219700D02*
X134430300Y-133219700D01*
X151746800Y-102743200D02*
X151550000Y-102940000D01*
X139285600Y-133364400D02*
X139450000Y-133200000D01*
D22*
X134424000Y-132900000D02*
X134587000Y-133063000D01*
D10*
X134587000Y-133063000D02*
X134587100Y-133062900D01*
X134430300Y-133219700D02*
X134587000Y-133063000D01*
X139537100Y-131432200D02*
X139537100Y-133112900D01*
X151546000Y-121967100D02*
X149002200Y-121967100D01*
X168770000Y-69852500D02*
X160130000Y-69852500D01*
X134587000Y-133063000D02*
X134888400Y-133364400D01*
X134888400Y-133364400D02*
X139285600Y-133364400D01*
D22*
X139450000Y-133200000D02*
X139537000Y-133113000D01*
D10*
X141930000Y-102940000D02*
X132530000Y-112340000D01*
%TO.N,/btn_3*%
D22*
X157896000Y-119427100D02*
X169755300Y-131286400D01*
X169755300Y-131286400D02*
X196050300Y-131286400D01*
%TO.N,/btn_2*%
X184121300Y-100613100D02*
X177163100Y-100613100D01*
X177163100Y-100613100D02*
X176950000Y-100400000D01*
%TO.N,Net-(D1-A)*%
X136050000Y-131600000D02*
X135913000Y-131737000D01*
X135913000Y-131737000D02*
X135912900Y-131737100D01*
X136780000Y-132604200D02*
X137350000Y-132604200D01*
X135912900Y-131737100D02*
X136780000Y-132604200D01*
%TO.N,/btn_1*%
X175361200Y-102824700D02*
X185048300Y-102824700D01*
X157900000Y-100400000D02*
X172936500Y-100400000D01*
X172936500Y-100400000D02*
X175361200Y-102824700D01*
%TO.N,Net-(D2-A)*%
X142990600Y-133914800D02*
X142990800Y-133914800D01*
X140862900Y-131787100D02*
X142990600Y-133914800D01*
%TO.N,/btn_5*%
X194738900Y-108558900D02*
X167480000Y-81300000D01*
X201046600Y-108558900D02*
X194738900Y-108558900D01*
%TO.N,/btn_7*%
X170979000Y-141699000D02*
X202085300Y-141699000D01*
X167780000Y-138500000D02*
X170979000Y-141699000D01*
%TO.N,Net-(D3-A)*%
X132022300Y-132446500D02*
X132050000Y-132446500D01*
X131162900Y-131587100D02*
X132022300Y-132446500D01*
%TO.N,/btn_8*%
X172877400Y-130057500D02*
X152619900Y-109800000D01*
X199979400Y-130057500D02*
X172877400Y-130057500D01*
X152619900Y-109800000D02*
X138880000Y-109800000D01*
%TO.N,/btn_4*%
X184640000Y-127110600D02*
X201850000Y-127110600D01*
X176956200Y-119426800D02*
X184640000Y-127110600D01*
%TO.N,+3.3V*%
D10*
X169754100Y-145214100D02*
X168593000Y-144053000D01*
X168593000Y-143056300D02*
X157174200Y-131637500D01*
X157174200Y-131637500D02*
X145408000Y-131637500D01*
X200139300Y-145214100D02*
X184001700Y-145214100D01*
X184001700Y-145214100D02*
X169754100Y-145214100D01*
X204988800Y-140364600D02*
X200139300Y-145214100D01*
X168593000Y-144053000D02*
X168593000Y-143056300D01*
%TO.N,/rst*%
D22*
X207301100Y-127110600D02*
X203140600Y-127110600D01*
%TO.N,/USB_D-*%
X194370300Y-103877200D02*
X163755700Y-73262600D01*
%TO.N,/USB_D+*%
X194154900Y-102418400D02*
X165242700Y-73506200D01*
X165242700Y-73506200D02*
X165099200Y-73506200D01*
%TD*%
M02*
