%TF.GenerationSoftware,KiCad,Pcbnew,10.0.2*%
%TF.CreationDate,2026-06-06T16:39:37+02:00*%
%TF.ProjectId,C.A.S.E,432e412e-532e-4452-9e6b-696361645f70,rev?*%
%TF.SameCoordinates,Original*%
%TF.FileFunction,Legend,Top*%
%TF.FilePolarity,Positive*%
%FSLAX46Y46*%
G04 Gerber Fmt 4.6, Leading zero omitted, Abs format (unit mm)*
G04 Created by KiCad (PCBNEW 10.0.2) date 2026-06-06 16:39:37*
%MOMM*%
%LPD*%
G01*
G04 APERTURE LIST*
%ADD10C,0.400000*%
%ADD11C,0.700000*%
%ADD12C,0.120000*%
G04 APERTURE END LIST*
D10*
X122762057Y-132872557D02*
X120762057Y-132872557D01*
X121047771Y-132872557D02*
X120904914Y-132729700D01*
X120904914Y-132729700D02*
X120762057Y-132443985D01*
X120762057Y-132443985D02*
X120762057Y-132015414D01*
X120762057Y-132015414D02*
X120904914Y-131729700D01*
X120904914Y-131729700D02*
X121190628Y-131586843D01*
X121190628Y-131586843D02*
X122762057Y-131586843D01*
X121190628Y-131586843D02*
X120904914Y-131443985D01*
X120904914Y-131443985D02*
X120762057Y-131158271D01*
X120762057Y-131158271D02*
X120762057Y-130729700D01*
X120762057Y-130729700D02*
X120904914Y-130443985D01*
X120904914Y-130443985D02*
X121190628Y-130301128D01*
X121190628Y-130301128D02*
X122762057Y-130301128D01*
X122762057Y-127586843D02*
X121190628Y-127586843D01*
X121190628Y-127586843D02*
X120904914Y-127729700D01*
X120904914Y-127729700D02*
X120762057Y-128015414D01*
X120762057Y-128015414D02*
X120762057Y-128586843D01*
X120762057Y-128586843D02*
X120904914Y-128872557D01*
X122619200Y-127586843D02*
X122762057Y-127872557D01*
X122762057Y-127872557D02*
X122762057Y-128586843D01*
X122762057Y-128586843D02*
X122619200Y-128872557D01*
X122619200Y-128872557D02*
X122333485Y-129015414D01*
X122333485Y-129015414D02*
X122047771Y-129015414D01*
X122047771Y-129015414D02*
X121762057Y-128872557D01*
X121762057Y-128872557D02*
X121619200Y-128586843D01*
X121619200Y-128586843D02*
X121619200Y-127872557D01*
X121619200Y-127872557D02*
X121476342Y-127586843D01*
X122762057Y-124872557D02*
X119762057Y-124872557D01*
X122619200Y-124872557D02*
X122762057Y-125158271D01*
X122762057Y-125158271D02*
X122762057Y-125729699D01*
X122762057Y-125729699D02*
X122619200Y-126015414D01*
X122619200Y-126015414D02*
X122476342Y-126158271D01*
X122476342Y-126158271D02*
X122190628Y-126301128D01*
X122190628Y-126301128D02*
X121333485Y-126301128D01*
X121333485Y-126301128D02*
X121047771Y-126158271D01*
X121047771Y-126158271D02*
X120904914Y-126015414D01*
X120904914Y-126015414D02*
X120762057Y-125729699D01*
X120762057Y-125729699D02*
X120762057Y-125158271D01*
X120762057Y-125158271D02*
X120904914Y-124872557D01*
X122619200Y-122301128D02*
X122762057Y-122586842D01*
X122762057Y-122586842D02*
X122762057Y-123158271D01*
X122762057Y-123158271D02*
X122619200Y-123443985D01*
X122619200Y-123443985D02*
X122333485Y-123586842D01*
X122333485Y-123586842D02*
X121190628Y-123586842D01*
X121190628Y-123586842D02*
X120904914Y-123443985D01*
X120904914Y-123443985D02*
X120762057Y-123158271D01*
X120762057Y-123158271D02*
X120762057Y-122586842D01*
X120762057Y-122586842D02*
X120904914Y-122301128D01*
X120904914Y-122301128D02*
X121190628Y-122158271D01*
X121190628Y-122158271D02*
X121476342Y-122158271D01*
X121476342Y-122158271D02*
X121762057Y-123586842D01*
X122762057Y-118586842D02*
X119762057Y-118586842D01*
X120904914Y-118586842D02*
X120762057Y-118301128D01*
X120762057Y-118301128D02*
X120762057Y-117729699D01*
X120762057Y-117729699D02*
X120904914Y-117443985D01*
X120904914Y-117443985D02*
X121047771Y-117301128D01*
X121047771Y-117301128D02*
X121333485Y-117158270D01*
X121333485Y-117158270D02*
X122190628Y-117158270D01*
X122190628Y-117158270D02*
X122476342Y-117301128D01*
X122476342Y-117301128D02*
X122619200Y-117443985D01*
X122619200Y-117443985D02*
X122762057Y-117729699D01*
X122762057Y-117729699D02*
X122762057Y-118301128D01*
X122762057Y-118301128D02*
X122619200Y-118586842D01*
X120762057Y-116158270D02*
X122762057Y-115443984D01*
X120762057Y-114729699D02*
X122762057Y-115443984D01*
X122762057Y-115443984D02*
X123476342Y-115729699D01*
X123476342Y-115729699D02*
X123619200Y-115872556D01*
X123619200Y-115872556D02*
X123762057Y-116158270D01*
D11*
X129177192Y-87233600D02*
X128796240Y-87424076D01*
X128796240Y-87424076D02*
X128034335Y-87424076D01*
X128034335Y-87424076D02*
X127653383Y-87233600D01*
X127653383Y-87233600D02*
X127462906Y-87043123D01*
X127462906Y-87043123D02*
X127272430Y-86662171D01*
X127272430Y-86662171D02*
X127272430Y-85519314D01*
X127272430Y-85519314D02*
X127462906Y-85138361D01*
X127462906Y-85138361D02*
X127653383Y-84947885D01*
X127653383Y-84947885D02*
X128034335Y-84757409D01*
X128034335Y-84757409D02*
X128796240Y-84757409D01*
X128796240Y-84757409D02*
X129177192Y-84947885D01*
X130891477Y-87043123D02*
X131081954Y-87233600D01*
X131081954Y-87233600D02*
X130891477Y-87424076D01*
X130891477Y-87424076D02*
X130701001Y-87233600D01*
X130701001Y-87233600D02*
X130891477Y-87043123D01*
X130891477Y-87043123D02*
X130891477Y-87424076D01*
X134510525Y-87424076D02*
X134510525Y-85328838D01*
X134510525Y-85328838D02*
X134320049Y-84947885D01*
X134320049Y-84947885D02*
X133939097Y-84757409D01*
X133939097Y-84757409D02*
X133177192Y-84757409D01*
X133177192Y-84757409D02*
X132796239Y-84947885D01*
X134510525Y-87233600D02*
X134129573Y-87424076D01*
X134129573Y-87424076D02*
X133177192Y-87424076D01*
X133177192Y-87424076D02*
X132796239Y-87233600D01*
X132796239Y-87233600D02*
X132605763Y-86852647D01*
X132605763Y-86852647D02*
X132605763Y-86471695D01*
X132605763Y-86471695D02*
X132796239Y-86090742D01*
X132796239Y-86090742D02*
X133177192Y-85900266D01*
X133177192Y-85900266D02*
X134129573Y-85900266D01*
X134129573Y-85900266D02*
X134510525Y-85709790D01*
X136415287Y-87043123D02*
X136605764Y-87233600D01*
X136605764Y-87233600D02*
X136415287Y-87424076D01*
X136415287Y-87424076D02*
X136224811Y-87233600D01*
X136224811Y-87233600D02*
X136415287Y-87043123D01*
X136415287Y-87043123D02*
X136415287Y-87424076D01*
X138129573Y-87233600D02*
X138510526Y-87424076D01*
X138510526Y-87424076D02*
X139272430Y-87424076D01*
X139272430Y-87424076D02*
X139653383Y-87233600D01*
X139653383Y-87233600D02*
X139843859Y-86852647D01*
X139843859Y-86852647D02*
X139843859Y-86662171D01*
X139843859Y-86662171D02*
X139653383Y-86281219D01*
X139653383Y-86281219D02*
X139272430Y-86090742D01*
X139272430Y-86090742D02*
X138701002Y-86090742D01*
X138701002Y-86090742D02*
X138320049Y-85900266D01*
X138320049Y-85900266D02*
X138129573Y-85519314D01*
X138129573Y-85519314D02*
X138129573Y-85328838D01*
X138129573Y-85328838D02*
X138320049Y-84947885D01*
X138320049Y-84947885D02*
X138701002Y-84757409D01*
X138701002Y-84757409D02*
X139272430Y-84757409D01*
X139272430Y-84757409D02*
X139653383Y-84947885D01*
X141558144Y-87043123D02*
X141748621Y-87233600D01*
X141748621Y-87233600D02*
X141558144Y-87424076D01*
X141558144Y-87424076D02*
X141367668Y-87233600D01*
X141367668Y-87233600D02*
X141558144Y-87043123D01*
X141558144Y-87043123D02*
X141558144Y-87424076D01*
X144986716Y-87233600D02*
X144605764Y-87424076D01*
X144605764Y-87424076D02*
X143843859Y-87424076D01*
X143843859Y-87424076D02*
X143462906Y-87233600D01*
X143462906Y-87233600D02*
X143272430Y-86852647D01*
X143272430Y-86852647D02*
X143272430Y-85328838D01*
X143272430Y-85328838D02*
X143462906Y-84947885D01*
X143462906Y-84947885D02*
X143843859Y-84757409D01*
X143843859Y-84757409D02*
X144605764Y-84757409D01*
X144605764Y-84757409D02*
X144986716Y-84947885D01*
X144986716Y-84947885D02*
X145177192Y-85328838D01*
X145177192Y-85328838D02*
X145177192Y-85709790D01*
X145177192Y-85709790D02*
X143272430Y-86090742D01*
D10*
G36*
X121315252Y-110225994D02*
G01*
X121331256Y-110129923D01*
X121376069Y-110060214D01*
X121445794Y-110015260D01*
X121541849Y-109999214D01*
X121627519Y-110017911D01*
X121749577Y-110087508D01*
X121870586Y-110184803D01*
X121998888Y-110312090D01*
X122119310Y-110454165D01*
X122232995Y-110612142D01*
X122328962Y-110776862D01*
X122391448Y-110926849D01*
X122447972Y-111134654D01*
X122466552Y-111342306D01*
X122451014Y-111525842D01*
X122406164Y-111688258D01*
X122333012Y-111833417D01*
X122253695Y-111959263D01*
X123437234Y-111959263D01*
X123508675Y-112047374D01*
X123559660Y-112130986D01*
X123575720Y-112215352D01*
X123561161Y-112293789D01*
X123517102Y-112362264D01*
X123435036Y-112425095D01*
X123379992Y-112445645D01*
X123288124Y-112462831D01*
X123025807Y-112479684D01*
X122597894Y-112483897D01*
X122185648Y-112478553D01*
X121790976Y-112462831D01*
X121408002Y-112435900D01*
X121078032Y-112400000D01*
X120769706Y-112353363D01*
X120534530Y-112305661D01*
X120332822Y-112244064D01*
X120236493Y-112190073D01*
X120196760Y-112152389D01*
X120171463Y-112108374D01*
X120152595Y-112013852D01*
X120170387Y-111924845D01*
X120224036Y-111850270D01*
X120265985Y-111812534D01*
X120307934Y-111797880D01*
X120372964Y-111799895D01*
X120479942Y-111816564D01*
X120748670Y-111862909D01*
X121013185Y-111898447D01*
X121216700Y-111921528D01*
X121306826Y-111925741D01*
X121300598Y-111879579D01*
X121260664Y-111795682D01*
X121190261Y-111687975D01*
X121060597Y-111543109D01*
X120849237Y-111350732D01*
X120761310Y-111254195D01*
X120742376Y-111214438D01*
X120736031Y-111170298D01*
X120753300Y-111083167D01*
X120803923Y-111016123D01*
X120895582Y-110964584D01*
X120948384Y-110950098D01*
X120987906Y-110949930D01*
X121096899Y-110993893D01*
X121246010Y-111101055D01*
X121426444Y-111271048D01*
X121590209Y-111451482D01*
X121688761Y-111594181D01*
X121730710Y-111676064D01*
X121760019Y-111711601D01*
X121799952Y-111684490D01*
X121864982Y-111615064D01*
X121926158Y-111523617D01*
X121962072Y-111426569D01*
X121974159Y-111321423D01*
X121962295Y-111206540D01*
X121924638Y-111080871D01*
X121856739Y-110941503D01*
X121718671Y-110741710D01*
X121512540Y-110515605D01*
X121407576Y-110412840D01*
X121348775Y-110343597D01*
X121321481Y-110286810D01*
X121315252Y-110225994D01*
G37*
G36*
X121622083Y-108026343D02*
G01*
X121692153Y-108050134D01*
X121755439Y-108097784D01*
X121803953Y-108178164D01*
X121847030Y-108318152D01*
X121871788Y-108474645D01*
X121880369Y-108647513D01*
X121872543Y-108810518D01*
X121850877Y-108945551D01*
X121846199Y-108994148D01*
X121855273Y-109012779D01*
X121976357Y-109037875D01*
X122132978Y-109077808D01*
X122308466Y-109153279D01*
X122467102Y-109247801D01*
X122577744Y-109344338D01*
X122667388Y-109468437D01*
X122736379Y-109606655D01*
X122780993Y-109750346D01*
X122794815Y-109877215D01*
X122786388Y-109961296D01*
X122765689Y-110032554D01*
X122685286Y-110190084D01*
X122584042Y-110315972D01*
X122461057Y-110414488D01*
X122319447Y-110485086D01*
X122155518Y-110529083D01*
X121964450Y-110544548D01*
X121778671Y-110526943D01*
X121591125Y-110473107D01*
X121412444Y-110390493D01*
X121250223Y-110286444D01*
X121106413Y-110161444D01*
X120988089Y-110020097D01*
X120900633Y-109863653D01*
X120855832Y-109705207D01*
X120855577Y-109700994D01*
X121341081Y-109700994D01*
X121372588Y-109755582D01*
X121448426Y-109835266D01*
X121545146Y-109915134D01*
X121635455Y-109973752D01*
X121792739Y-110035461D01*
X121942496Y-110054007D01*
X122089747Y-110032554D01*
X122206310Y-109981176D01*
X122262264Y-109927184D01*
X122278974Y-109868972D01*
X122257545Y-109790938D01*
X122178040Y-109688354D01*
X122117774Y-109635574D01*
X122062452Y-109600427D01*
X121913159Y-109549869D01*
X121776322Y-109533199D01*
X121677587Y-109537229D01*
X121568227Y-109572950D01*
X121458867Y-109619112D01*
X121374787Y-109665273D01*
X121341081Y-109700994D01*
X120855577Y-109700994D01*
X120849603Y-109602442D01*
X120874883Y-109510118D01*
X120942110Y-109403140D01*
X121057332Y-109256045D01*
X121209130Y-109061042D01*
X121300781Y-108910013D01*
X121357722Y-108757979D01*
X121376252Y-108605565D01*
X121368009Y-108494373D01*
X121346943Y-108378968D01*
X121334303Y-108274005D01*
X121343146Y-108194446D01*
X121367826Y-108131306D01*
X121408502Y-108080923D01*
X121463813Y-108047409D01*
X121546593Y-108025077D01*
X121622083Y-108026343D01*
G37*
G36*
X121475720Y-105495315D02*
G01*
X121555587Y-105495315D01*
X121662566Y-105535249D01*
X121822117Y-105623360D01*
X122059155Y-105776500D01*
X122354875Y-105994902D01*
X122555549Y-106188913D01*
X122681815Y-106362255D01*
X122750054Y-106519510D01*
X122771367Y-106666215D01*
X122758528Y-106779240D01*
X122721646Y-106875232D01*
X122660725Y-106958025D01*
X122540988Y-107061953D01*
X122400240Y-107144687D01*
X122314694Y-107178393D01*
X122216692Y-107197260D01*
X122070696Y-107205687D01*
X121837138Y-107207702D01*
X121411789Y-107203489D01*
X121554672Y-107421659D01*
X121664099Y-107606474D01*
X121737487Y-107770071D01*
X121784116Y-107931522D01*
X121798304Y-108068108D01*
X121781939Y-108199454D01*
X121735289Y-108307344D01*
X121671750Y-108386041D01*
X121590392Y-108445830D01*
X121496742Y-108487668D01*
X121395120Y-108512875D01*
X121289402Y-108521846D01*
X121180797Y-108515073D01*
X121075825Y-108492571D01*
X120985525Y-108456271D01*
X120906515Y-108404948D01*
X120844658Y-108341050D01*
X120803814Y-108264636D01*
X120790069Y-108177102D01*
X120797737Y-108115421D01*
X120821393Y-108053454D01*
X120904924Y-107942079D01*
X121019780Y-107860380D01*
X121083301Y-107836531D01*
X121145076Y-107828872D01*
X121192120Y-107819767D01*
X121203695Y-107799380D01*
X121188224Y-107756904D01*
X121107707Y-107635799D01*
X120852718Y-107320908D01*
X120680893Y-107113180D01*
X120586554Y-106989349D01*
X120548818Y-106909665D01*
X120542407Y-106834193D01*
X120547221Y-106775258D01*
X120559260Y-106737657D01*
X120626304Y-106657789D01*
X120697745Y-106609612D01*
X120783658Y-106592943D01*
X120915366Y-106603384D01*
X121120163Y-106641120D01*
X121402081Y-106685083D01*
X121723749Y-106712377D01*
X122005666Y-106718789D01*
X122120525Y-106711635D01*
X122172728Y-106699738D01*
X122227669Y-106665375D01*
X122243803Y-106620054D01*
X122232807Y-106573712D01*
X122191732Y-106508680D01*
X122103302Y-106416538D01*
X121940806Y-106283584D01*
X121668794Y-106091207D01*
X121438925Y-105926169D01*
X121338244Y-105836810D01*
X121307925Y-105793169D01*
X121295286Y-105753419D01*
X121291072Y-105713485D01*
X121303522Y-105642069D01*
X121341448Y-105577198D01*
X121399454Y-105526686D01*
X121475720Y-105495315D01*
G37*
G36*
X123165026Y-104735842D02*
G01*
X123123213Y-104824070D01*
X123040886Y-104917028D01*
X122904357Y-105017027D01*
X122663618Y-105138924D01*
X122316526Y-105262491D01*
X121929976Y-105364350D01*
X121445861Y-105461976D01*
X120930763Y-105538999D01*
X120335778Y-105600462D01*
X120084085Y-105617131D01*
X119928747Y-105608888D01*
X119875030Y-105590670D01*
X119838438Y-105564741D01*
X119781835Y-105482859D01*
X119756739Y-105430469D01*
X119748312Y-105390535D01*
X119756739Y-105352800D01*
X119781835Y-105306638D01*
X119832210Y-105237395D01*
X119916107Y-105191233D01*
X120058806Y-105159726D01*
X120285403Y-105134446D01*
X120648469Y-105090483D01*
X121051470Y-105027468D01*
X121446045Y-104954012D01*
X121788046Y-104878541D01*
X122063002Y-104805085D01*
X122310481Y-104725401D01*
X122490915Y-104653960D01*
X122549417Y-104621276D01*
X122560341Y-104605600D01*
X122546106Y-104589496D01*
X122459591Y-104546981D01*
X122180055Y-104448246D01*
X121757821Y-104320385D01*
X121230439Y-104175488D01*
X120635830Y-104024363D01*
X120009530Y-103875436D01*
X119742817Y-103799965D01*
X119667666Y-103765541D01*
X119618803Y-103728524D01*
X119564941Y-103654392D01*
X119547362Y-103568972D01*
X119564903Y-103483537D01*
X119618620Y-103409420D01*
X119664108Y-103373645D01*
X119715340Y-103350802D01*
X119775994Y-103340653D01*
X119874708Y-103342376D01*
X120149665Y-103386523D01*
X120592416Y-103485075D01*
X121431756Y-103695001D01*
X122107332Y-103887892D01*
X122604672Y-104057885D01*
X122793997Y-104137257D01*
X122908937Y-104198569D01*
X123026450Y-104290861D01*
X123110254Y-104391643D01*
X123164146Y-104504942D01*
X123181695Y-104622452D01*
X123165026Y-104735842D01*
G37*
%TO.C,SW13*%
D12*
X194800000Y-88650000D02*
X195800000Y-88650000D01*
X195300000Y-88150000D02*
X195300000Y-89150000D01*
X198300000Y-88650000D02*
G75*
G02*
X192300000Y-88650000I-3000000J0D01*
G01*
X192300000Y-88650000D02*
G75*
G02*
X198300000Y-88650000I3000000J0D01*
G01*
%TD*%
M02*
