%TF.GenerationSoftware,KiCad,Pcbnew,10.0.2*%
%TF.CreationDate,2026-06-06T16:39:37+02:00*%
%TF.ProjectId,C.A.S.E,432e412e-532e-4452-9e6b-696361645f70,rev?*%
%TF.SameCoordinates,Original*%
%TF.FileFunction,Paste,Bot*%
%TF.FilePolarity,Positive*%
%FSLAX46Y46*%
G04 Gerber Fmt 4.6, Leading zero omitted, Abs format (unit mm)*
G04 Created by KiCad (PCBNEW 10.0.2) date 2026-06-06 16:39:37*
%MOMM*%
%LPD*%
G01*
G04 APERTURE LIST*
G04 Aperture macros list*
%AMRoundRect*
0 Rectangle with rounded corners*
0 $1 Rounding radius*
0 $2 $3 $4 $5 $6 $7 $8 $9 X,Y pos of 4 corners*
0 Add a 4 corners polygon primitive as box body*
4,1,4,$2,$3,$4,$5,$6,$7,$8,$9,$2,$3,0*
0 Add four circle primitives for the rounded corners*
1,1,$1+$1,$2,$3*
1,1,$1+$1,$4,$5*
1,1,$1+$1,$6,$7*
1,1,$1+$1,$8,$9*
0 Add four rect primitives between the rounded corners*
20,1,$1+$1,$2,$3,$4,$5,0*
20,1,$1+$1,$4,$5,$6,$7,0*
20,1,$1+$1,$6,$7,$8,$9,0*
20,1,$1+$1,$8,$9,$2,$3,0*%
G04 Aperture macros list end*
%ADD10RoundRect,0.250000X-0.450000X0.262500X-0.450000X-0.262500X0.450000X-0.262500X0.450000X0.262500X0*%
%ADD11RoundRect,0.250000X0.450000X-0.262500X0.450000X0.262500X-0.450000X0.262500X-0.450000X-0.262500X0*%
%ADD12RoundRect,0.250000X-0.475000X0.250000X-0.475000X-0.250000X0.475000X-0.250000X0.475000X0.250000X0*%
%ADD13R,1.500000X0.900000*%
%ADD14R,0.900000X1.500000*%
%ADD15R,0.900000X0.900000*%
%ADD16R,1.500000X1.400000*%
%ADD17R,2.150000X0.950000*%
%ADD18R,2.150000X3.250000*%
%ADD19RoundRect,0.250000X0.475000X-0.250000X0.475000X0.250000X-0.475000X0.250000X-0.475000X-0.250000X0*%
%ADD20R,0.600000X1.300000*%
%ADD21R,0.300000X1.300000*%
G04 APERTURE END LIST*
D10*
%TO.C,R2*%
X156600000Y-72987500D03*
X156600000Y-74812500D03*
%TD*%
D11*
%TO.C,R1*%
X174300000Y-74862500D03*
X174300000Y-73037500D03*
%TD*%
D12*
%TO.C,C6*%
X206450000Y-134200000D03*
X206450000Y-136100000D03*
%TD*%
D10*
%TO.C,R7*%
X210100000Y-100087500D03*
X210100000Y-101912500D03*
%TD*%
D13*
%TO.C,X1*%
X203600000Y-133790000D03*
X203600000Y-135060000D03*
X203600000Y-136330000D03*
X203600000Y-137600000D03*
X203600000Y-138870000D03*
X203600000Y-140140000D03*
X203600000Y-141410000D03*
X203600000Y-142680000D03*
X203600000Y-143950000D03*
X203600000Y-145220000D03*
X203600000Y-146490000D03*
X203600000Y-147760000D03*
X203600000Y-149030000D03*
X203600000Y-150300000D03*
D14*
X201835000Y-151550000D03*
X200565000Y-151550000D03*
X199295000Y-151550000D03*
X198025000Y-151550000D03*
X196755000Y-151550000D03*
X195485000Y-151550000D03*
X194215000Y-151550000D03*
X192945000Y-151550000D03*
X191675000Y-151550000D03*
X190405000Y-151550000D03*
X189135000Y-151550000D03*
X187865000Y-151550000D03*
D13*
X186100000Y-150300000D03*
X186100000Y-149030000D03*
X186100000Y-147760000D03*
X186100000Y-146490000D03*
X186100000Y-145220000D03*
X186100000Y-143950000D03*
X186100000Y-142680000D03*
X186100000Y-141410000D03*
X186100000Y-140140000D03*
X186100000Y-138870000D03*
X186100000Y-137600000D03*
X186100000Y-136330000D03*
X186100000Y-135060000D03*
X186100000Y-133790000D03*
D15*
X196350000Y-141510000D03*
X196350000Y-140110000D03*
X197750000Y-140110000D03*
X197750000Y-141510000D03*
X197750000Y-142910000D03*
X196350000Y-142910000D03*
X194950000Y-142910000D03*
X194950000Y-141510000D03*
X194950000Y-140110000D03*
%TD*%
D10*
%TO.C,R10*%
X137350000Y-136237500D03*
X137350000Y-138062500D03*
%TD*%
D16*
%TO.C,rst*%
X202650000Y-101600000D03*
X196150000Y-101600000D03*
%TD*%
%TO.C,boot*%
X186100000Y-101700000D03*
X192600000Y-101700000D03*
%TD*%
D17*
%TO.C,U1*%
X182475000Y-146500000D03*
X182475000Y-148800000D03*
X182475000Y-151100000D03*
D18*
X176675000Y-148800000D03*
%TD*%
D10*
%TO.C,R12*%
X132050000Y-136387500D03*
X132050000Y-138212500D03*
%TD*%
D19*
%TO.C,C7*%
X206250000Y-108700000D03*
X206250000Y-106800000D03*
%TD*%
D10*
%TO.C,R6*%
X206300000Y-102737500D03*
X206300000Y-104562500D03*
%TD*%
D20*
%TO.C,J1*%
X161250000Y-74672500D03*
X162050000Y-74672500D03*
D21*
X163200000Y-74672500D03*
X164200000Y-74672500D03*
X164700000Y-74672500D03*
X165700000Y-74672500D03*
D20*
X167650000Y-74672500D03*
X166850000Y-74672500D03*
D21*
X166200000Y-74672500D03*
X165200000Y-74672500D03*
X163700000Y-74672500D03*
X162700000Y-74672500D03*
%TD*%
D19*
%TO.C,C1*%
X174300000Y-70500000D03*
X174300000Y-68600000D03*
%TD*%
D12*
%TO.C,C2*%
X178050000Y-141800000D03*
X178050000Y-143700000D03*
%TD*%
D11*
%TO.C,R11*%
X144200000Y-133462500D03*
X144200000Y-131637500D03*
%TD*%
M02*
