M48
; DRILL file KiCad 10.0.2 date 2026-06-06T16:39:36
; FORMAT={-:-/ absolute / metric / decimal}
; #@! TF.CreationDate,2026-06-06T16:39:36+02:00
; #@! TF.GenerationSoftware,Kicad,Pcbnew,10.0.2
; #@! TF.FileFunction,Plated,1,2,PTH
FMAT,2
METRIC
; #@! TA.AperFunction,Plated,PTH,ViaDrill
T1C0.300
; #@! TA.AperFunction,Plated,PTH,ComponentDrill
T2C0.600
; #@! TA.AperFunction,Plated,PTH,ComponentDrill
T3C1.000
; #@! TA.AperFunction,Plated,PTH,ComponentDrill
T4C1.500
; #@! TA.AperFunction,Plated,PTH,ComponentDrill
T5C2.200
%
G90
G05
T1
X132.05Y-132.446
X137.35Y-132.604
X142.991Y-133.915
X145.408Y-131.637
X163.756Y-73.263
X165.099Y-73.506
X184.002Y-145.214
X184.121Y-100.613
X185.048Y-102.825
X194.155Y-102.418
X194.37Y-103.877
X196.05Y-131.286
X199.979Y-130.058
X201.047Y-108.559
X201.85Y-127.111
X202.085Y-141.699
X203.141Y-127.111
X204.989Y-140.365
X207.301Y-127.111
T3
X187.8Y-86.15
X187.8Y-88.65
X187.8Y-91.15
X202.3Y-86.15
X202.3Y-91.15
T4
X132.53Y-112.34
X138.88Y-109.8
X151.546Y-121.967
X151.55Y-102.94
X157.896Y-119.427
X157.9Y-100.4
X161.13Y-83.84
X161.43Y-141.04
X167.48Y-81.3
X167.78Y-138.5
X170.6Y-102.94
X170.606Y-121.967
X176.95Y-100.4
X176.956Y-119.427
X189.69Y-112.83
X196.04Y-110.29
T5
X122.55Y-73.65
X122.55Y-154.05
X208.15Y-73.55
X208.4Y-153.95
T2
G00X160.13Y-69.552
M15
G01X160.13Y-70.153
M16
G05
G00X160.13Y-73.483
M15
G01X160.13Y-74.582
M16
G05
G00X168.77Y-69.552
M15
G01X168.77Y-70.153
M16
G05
G00X168.77Y-73.483
M15
G01X168.77Y-74.582
M16
G05
T4
G00X194.65Y-83.05
M15
G01X195.95Y-83.05
M16
G05
G00X194.65Y-94.25
M15
G01X195.95Y-94.25
M16
G05
M30
