%TF.GenerationSoftware,KiCad,Pcbnew,10.0.2*%
%TF.CreationDate,2026-06-06T16:39:37+02:00*%
%TF.ProjectId,C.A.S.E,432e412e-532e-4452-9e6b-696361645f70,rev?*%
%TF.SameCoordinates,Original*%
%TF.FileFunction,Soldermask,Bot*%
%TF.FilePolarity,Negative*%
%FSLAX46Y46*%
G04 Gerber Fmt 4.6, Leading zero omitted, Abs format (unit mm)*
G04 Created by KiCad (PCBNEW 10.0.2) date 2026-06-06 16:39:37*
%MOMM*%
%LPD*%
G01*
G04 APERTURE LIST*
G04 Aperture macros list*
%AMRoundRect*
0 Rectangle with rounded corners*
0 $1 Rounding radius*
0 $2 $3 $4 $5 $6 $7 $8 $9 X,Y pos of 4 corners*
0 Add a 4 corners polygon primitive as box body*
4,1,4,$2,$3,$4,$5,$6,$7,$8,$9,$2,$3,0*
0 Add four circle primitives for the rounded corners*
1,1,$1+$1,$2,$3*
1,1,$1+$1,$4,$5*
1,1,$1+$1,$6,$7*
1,1,$1+$1,$8,$9*
0 Add four rect primitives between the rounded corners*
20,1,$1+$1,$2,$3,$4,$5,0*
20,1,$1+$1,$4,$5,$6,$7,0*
20,1,$1+$1,$6,$7,$8,$9,0*
20,1,$1+$1,$8,$9,$2,$3,0*%
G04 Aperture macros list end*
%ADD10C,4.400000*%
%ADD11R,2.000000X2.000000*%
%ADD12C,2.000000*%
%ADD13R,3.200000X2.000000*%
%ADD14C,1.700000*%
%ADD15C,4.000000*%
%ADD16C,2.200000*%
%ADD17RoundRect,0.250000X-0.450000X0.262500X-0.450000X-0.262500X0.450000X-0.262500X0.450000X0.262500X0*%
%ADD18RoundRect,0.250000X0.450000X-0.262500X0.450000X0.262500X-0.450000X0.262500X-0.450000X-0.262500X0*%
%ADD19RoundRect,0.250000X-0.475000X0.250000X-0.475000X-0.250000X0.475000X-0.250000X0.475000X0.250000X0*%
%ADD20RoundRect,0.102000X0.750000X0.450000X-0.750000X0.450000X-0.750000X-0.450000X0.750000X-0.450000X0*%
%ADD21RoundRect,0.102000X0.450000X0.750000X-0.450000X0.750000X-0.450000X-0.750000X0.450000X-0.750000X0*%
%ADD22RoundRect,0.102000X0.450000X0.450000X-0.450000X0.450000X-0.450000X-0.450000X0.450000X-0.450000X0*%
%ADD23RoundRect,0.102000X0.750000X0.700000X-0.750000X0.700000X-0.750000X-0.700000X0.750000X-0.700000X0*%
%ADD24RoundRect,0.102000X-0.750000X-0.700000X0.750000X-0.700000X0.750000X0.700000X-0.750000X0.700000X0*%
%ADD25RoundRect,0.102000X1.075000X0.475000X-1.075000X0.475000X-1.075000X-0.475000X1.075000X-0.475000X0*%
%ADD26RoundRect,0.102000X1.075000X1.625000X-1.075000X1.625000X-1.075000X-1.625000X1.075000X-1.625000X0*%
%ADD27RoundRect,0.250000X0.475000X-0.250000X0.475000X0.250000X-0.475000X0.250000X-0.475000X-0.250000X0*%
%ADD28C,0.650000*%
%ADD29RoundRect,0.102000X-0.300000X-0.650000X0.300000X-0.650000X0.300000X0.650000X-0.300000X0.650000X0*%
%ADD30RoundRect,0.102000X-0.150000X-0.650000X0.150000X-0.650000X0.150000X0.650000X-0.150000X0.650000X0*%
%ADD31O,1.254000X2.304000*%
%ADD32O,1.004000X1.804000*%
G04 APERTURE END LIST*
D10*
%TO.C,H1*%
X208400000Y-153950000D03*
%TD*%
D11*
%TO.C,SW13*%
X187800000Y-86150000D03*
D12*
X187800000Y-91150000D03*
X187800000Y-88650000D03*
D13*
X195300000Y-83050000D03*
X195300000Y-94250000D03*
D12*
X202300000Y-91150000D03*
X202300000Y-86150000D03*
%TD*%
D14*
%TO.C,SW3*%
X150276000Y-124507100D03*
D15*
X155356000Y-124507100D03*
D14*
X160436000Y-124507100D03*
D16*
X157896000Y-119427100D03*
X151546000Y-121967100D03*
%TD*%
D14*
%TO.C,SW2*%
X169330000Y-105480000D03*
D15*
X174410000Y-105480000D03*
D14*
X179490000Y-105480000D03*
D16*
X176950000Y-100400000D03*
X170600000Y-102940000D03*
%TD*%
D10*
%TO.C,H4*%
X208150000Y-73550000D03*
%TD*%
D14*
%TO.C,SW1*%
X150280000Y-105480000D03*
D15*
X155360000Y-105480000D03*
D14*
X160440000Y-105480000D03*
D16*
X157900000Y-100400000D03*
X151550000Y-102940000D03*
%TD*%
D14*
%TO.C,SW6*%
X188420000Y-115370000D03*
D15*
X193500000Y-115370000D03*
D14*
X198580000Y-115370000D03*
D16*
X196040000Y-110290000D03*
X189690000Y-112830000D03*
%TD*%
D14*
%TO.C,SW5*%
X159860000Y-86380000D03*
D15*
X164940000Y-86380000D03*
D14*
X170020000Y-86380000D03*
D16*
X167480000Y-81300000D03*
X161130000Y-83840000D03*
%TD*%
D14*
%TO.C,SW7*%
X160160000Y-143580000D03*
D15*
X165240000Y-143580000D03*
D14*
X170320000Y-143580000D03*
D16*
X167780000Y-138500000D03*
X161430000Y-141040000D03*
%TD*%
D10*
%TO.C,H2*%
X122550000Y-154050000D03*
%TD*%
D14*
%TO.C,SW8*%
X131260000Y-114880000D03*
D15*
X136340000Y-114880000D03*
D14*
X141420000Y-114880000D03*
D16*
X138880000Y-109800000D03*
X132530000Y-112340000D03*
%TD*%
D10*
%TO.C,H3*%
X122550000Y-73650000D03*
%TD*%
D14*
%TO.C,SW4*%
X169336200Y-124506800D03*
D15*
X174416200Y-124506800D03*
D14*
X179496200Y-124506800D03*
D16*
X176956200Y-119426800D03*
X170606200Y-121966800D03*
%TD*%
D17*
%TO.C,R2*%
X156600000Y-72987500D03*
X156600000Y-74812500D03*
%TD*%
D18*
%TO.C,R1*%
X174300000Y-74862500D03*
X174300000Y-73037500D03*
%TD*%
D19*
%TO.C,C6*%
X206450000Y-134200000D03*
X206450000Y-136100000D03*
%TD*%
D17*
%TO.C,R7*%
X210100000Y-100087500D03*
X210100000Y-101912500D03*
%TD*%
D20*
%TO.C,X1*%
X203600000Y-133790000D03*
X203600000Y-135060000D03*
X203600000Y-136330000D03*
X203600000Y-137600000D03*
X203600000Y-138870000D03*
X203600000Y-140140000D03*
X203600000Y-141410000D03*
X203600000Y-142680000D03*
X203600000Y-143950000D03*
X203600000Y-145220000D03*
X203600000Y-146490000D03*
X203600000Y-147760000D03*
X203600000Y-149030000D03*
X203600000Y-150300000D03*
D21*
X201835000Y-151550000D03*
X200565000Y-151550000D03*
X199295000Y-151550000D03*
X198025000Y-151550000D03*
X196755000Y-151550000D03*
X195485000Y-151550000D03*
X194215000Y-151550000D03*
X192945000Y-151550000D03*
X191675000Y-151550000D03*
X190405000Y-151550000D03*
X189135000Y-151550000D03*
X187865000Y-151550000D03*
D20*
X186100000Y-150300000D03*
X186100000Y-149030000D03*
X186100000Y-147760000D03*
X186100000Y-146490000D03*
X186100000Y-145220000D03*
X186100000Y-143950000D03*
X186100000Y-142680000D03*
X186100000Y-141410000D03*
X186100000Y-140140000D03*
X186100000Y-138870000D03*
X186100000Y-137600000D03*
X186100000Y-136330000D03*
X186100000Y-135060000D03*
X186100000Y-133790000D03*
D22*
X196350000Y-141510000D03*
X196350000Y-140110000D03*
X197750000Y-140110000D03*
X197750000Y-141510000D03*
X197750000Y-142910000D03*
X196350000Y-142910000D03*
X194950000Y-142910000D03*
X194950000Y-141510000D03*
X194950000Y-140110000D03*
%TD*%
D17*
%TO.C,R10*%
X137350000Y-136237500D03*
X137350000Y-138062500D03*
%TD*%
D23*
%TO.C,rst*%
X202650000Y-101600000D03*
X196150000Y-101600000D03*
%TD*%
D24*
%TO.C,boot*%
X186100000Y-101700000D03*
X192600000Y-101700000D03*
%TD*%
D25*
%TO.C,U1*%
X182475000Y-146500000D03*
X182475000Y-148800000D03*
X182475000Y-151100000D03*
D26*
X176675000Y-148800000D03*
%TD*%
D17*
%TO.C,R12*%
X132050000Y-136387500D03*
X132050000Y-138212500D03*
%TD*%
D27*
%TO.C,C7*%
X206250000Y-108700000D03*
X206250000Y-106800000D03*
%TD*%
D17*
%TO.C,R6*%
X206300000Y-102737500D03*
X206300000Y-104562500D03*
%TD*%
D28*
%TO.C,J1*%
X161560000Y-73532500D03*
X167340000Y-73532500D03*
D29*
X161250000Y-74672500D03*
X162050000Y-74672500D03*
D30*
X163200000Y-74672500D03*
X164200000Y-74672500D03*
X164700000Y-74672500D03*
X165700000Y-74672500D03*
D29*
X167650000Y-74672500D03*
X166850000Y-74672500D03*
D30*
X166200000Y-74672500D03*
X165200000Y-74672500D03*
X163700000Y-74672500D03*
X162700000Y-74672500D03*
D31*
X160130000Y-74032500D03*
X168770000Y-74032500D03*
D32*
X160130000Y-69852500D03*
X168770000Y-69852500D03*
%TD*%
D27*
%TO.C,C1*%
X174300000Y-70500000D03*
X174300000Y-68600000D03*
%TD*%
D19*
%TO.C,C2*%
X178050000Y-141800000D03*
X178050000Y-143700000D03*
%TD*%
D18*
%TO.C,R11*%
X144200000Y-133462500D03*
X144200000Y-131637500D03*
%TD*%
M02*
