M48
; DRILL file KiCad 10.0.2 date 2026-06-06T16:39:36
; FORMAT={-:-/ absolute / metric / decimal}
; #@! TF.CreationDate,2026-06-06T16:39:36+02:00
; #@! TF.GenerationSoftware,Kicad,Pcbnew,10.0.2
; #@! TF.FileFunction,NonPlated,1,2,NPTH
FMAT,2
METRIC
; #@! TA.AperFunction,NonPlated,NPTH,ComponentDrill
T1C0.650
; #@! TA.AperFunction,NonPlated,NPTH,ComponentDrill
T2C1.700
; #@! TA.AperFunction,NonPlated,NPTH,ComponentDrill
T3C4.000
%
G90
G05
T1
X161.56Y-73.532
X167.34Y-73.532
T2
X131.26Y-114.88
X141.42Y-114.88
X150.276Y-124.507
X150.28Y-105.48
X159.86Y-86.38
X160.16Y-143.58
X160.436Y-124.507
X160.44Y-105.48
X169.33Y-105.48
X169.336Y-124.507
X170.02Y-86.38
X170.32Y-143.58
X179.49Y-105.48
X179.496Y-124.507
X188.42Y-115.37
X198.58Y-115.37
T3
X136.34Y-114.88
X155.356Y-124.507
X155.36Y-105.48
X164.94Y-86.38
X165.24Y-143.58
X174.41Y-105.48
X174.416Y-124.507
X193.5Y-115.37
M30
