<svg version="1.2" xmlns="http://www.w3.org/2000/svg" viewBox="0 0 1080 1080" width="1080" height="1080">
	<style>
		.s0 { fill: #ffffff } 
	</style>
	<path id="c.o" class="s0" aria-label="c.o"  d="m406.4 372.4q-0.3 0-14.9-4-14.4-3.9-23.5-3.9-21.7 0-34.6 13.2-13 13-13 34.7 0 22.5 14.2 35.4 14.2 12.7 36.9 12.7 10.7 0 24.1-5.4 13.5-5.6 12.7-5.6 4.2 0 10.8 31 5.6 28.3 5.6 37.6 0 9.3-30.3 15.9-23.4 5.1-37.8 5.1-53.7 0-88.7-36.1-34.9-36.2-34.9-90.1 0-53.5 34.9-89.9 35.2-36.6 88.7-36.6 36.3 0 63.9 15.6 6.4 3.5 6.4 6.6 0 3.2-7.3 28.8-6.9 24.7-9.1 29.8-1.9 5.2-4.1 5.2zm153 107.1q0 24.2-16.8 41.3-16.6 17.1-40.5 17.1-24 0-40.6-17.1-16.6-17.3-16.6-41.3 0-23.9 16.6-41 16.6-17.1 40.6-17.1 23.9 0 40.5 17.1 16.8 17.1 16.8 41zm268.2-66.6q0 55.6-34.2 90.3-33.9 34.7-89.3 34.7-53.7 0-88.4-34.2-34.7-34.2-34.7-87.9 0-56.6 33.2-91.8 33.2-35.4 89.9-35.4 55.2 0 89.3 34.7 34.2 34.4 34.2 89.6zm-80.1 0q0-19.3-11.9-34-12-14.8-31-14.8-19.3 0-31.8 15.1-11.7 14.2-11.7 33.7 0 19.8 11.7 33.9 12.5 15.2 31.8 15.2 19 0 31.5-15.2 11.4-14.1 11.4-33.9z"/>
	<path id="r.e" class="s0" aria-label="r.e"  d="m427.6 636.9q0 9.5-10.5 9.5-4.6 0-13.7-0.5-8.7-0.7-13.1-0.7-20.3 0-27.6 6.3-7.3 6.4-7.3 25.7 0 10.5 0.2 32 0.5 21.2 0.5 31.7 0 7.1 1 21.2 0.9 14 0.9 20.8 0 5.9-8 6.6-11.7 1-35.9 1-23.2 0-37.1-1.5-8.1-1-8.1-8.1 0-19.5 0.3-58.3 0.2-39.1 0.2-58.6 0-57.4-10.5-94.5-0.5-2.2-0.5-3.6 0-3.7 3.7-4.9 13.4-1.5 39.3-5.4 38.6-7.6 39.8-7.6 4.4 0 5.6 15.4 1.2 15.4 4.4 15.4-3.4 0 20-12.7 23.5-12.9 45.2-12.9 13.7 0 13.7 5.8 0 7.1-1.5 20-1.5 14-1.7 20.1 0 7 0.2 18.8 0.5 14.4 0.5 19zm134.8 98.6q0 24.2-16.8 41.3-16.6 17.1-40.5 17.1-24 0-40.6-17.1-16.6-17.3-16.6-41.3 0-23.9 16.6-41 16.6-17.1 40.6-17.1 23.9 0 40.5 17.1 16.8 17.1 16.8 41zm258-79.1q0 24.7-15.9 28.1-2.7 0.5-50.5 5.4-28.8 3.2-86 7.5 3.5 15.9 20.8 24.2 14.2 6.9 32.2 6.9 21.7 0 43.7-11.8 9.3-5.8 18.6-11.7 5.1 2.5 17.1 24.9 12.2 22.5 12.2 28.6 0 1.7-3.7 5.6-29.8 32-92.5 32-58.1 0-93.8-34-36.6-34.4-36.6-92 0-56.1 32.7-92 33.7-37.1 89.4-37.1 46.9 0 79.6 34.1 32.7 34.2 32.7 81.3zm-85.5-14.9q0-15.1-10.7-26.6-10.7-11.4-25.6-11.4-15.4 0-25.4 12.9-9.3 12-9.3 28.1 0 6.6 6.8 6.6 18.1 0 56.2-5.7 8-1.2 8-3.9z"/>
</svg>